<svg width="256" height="48" viewBox="0 0 256 48" fill="none" xmlns="http://www.w3.org/2000/svg">
<path d="M38.0183 32.3591L39.2934 41.4095C39.3868 42.1088 39.2881 42.8204 39.008 43.4679C38.7278 44.1155 38.2767 44.6745 37.703 45.0852C37.1293 45.4959 36.4547 45.7427 35.7514 45.7992C35.0481 45.8557 34.3427 45.7198 33.7108 45.406L25.5312 41.3162C25.0015 41.0555 24.4189 40.9199 23.8285 40.9199C23.238 40.9199 22.6555 41.0555 22.1257 41.3162L13.8839 45.266C13.2489 45.5712 12.5426 45.6973 11.8411 45.6308C11.1397 45.5642 10.4697 45.3075 9.9033 44.8884C9.33695 44.4692 8.89571 43.9035 8.62711 43.2521C8.35852 42.6007 8.27275 41.8883 8.37906 41.1918L9.7475 32.1414C9.83335 31.5573 9.78559 30.9614 9.60782 30.3985C9.43005 29.8355 9.12689 29.3202 8.72117 28.8914L2.40768 22.2824C1.92085 21.7719 1.58208 21.1386 1.42766 20.4504C1.27325 19.7621 1.30901 19.0448 1.53112 18.3753C1.75322 17.7057 2.1533 17.1093 2.68848 16.6498C3.22367 16.1903 3.87379 15.885 4.56919 15.7668L13.5885 14.2117C14.1715 14.1143 14.7244 13.8841 15.2044 13.539C15.6843 13.1938 16.0785 12.743 16.3565 12.2212L20.6328 4.24385C20.9647 3.62282 21.4589 3.10357 22.0628 2.74153C22.6667 2.37949 23.3576 2.18826 24.0617 2.18826C24.7658 2.18826 25.4567 2.37949 26.0606 2.74153C26.6646 3.10357 27.1588 3.62282 27.4906 4.24385L31.7048 12.439C31.9813 12.9618 32.3725 13.4152 32.8492 13.7653C33.3259 14.1154 33.8756 14.3531 34.4572 14.4605L43.4454 16.0156C44.1485 16.1379 44.8044 16.4514 45.3412 16.9217C45.8779 17.3921 46.2749 18.0011 46.4885 18.6821C46.7021 19.3631 46.7241 20.0897 46.5522 20.7823C46.3802 21.475 46.0209 22.107 45.5136 22.609L39.1068 29.1246C38.6913 29.5455 38.3773 30.0555 38.1887 30.616C38 31.1765 37.9418 31.7727 38.0183 32.3591Z" fill="#020305" stroke="#020305" stroke-width="2" stroke-linecap="round" stroke-linejoin="round"/>
<path d="M90.0183 32.3591L91.2934 41.4095C91.3868 42.1088 91.2881 42.8204 91.008 43.4679C90.7278 44.1155 90.2767 44.6745 89.703 45.0852C89.1293 45.4959 88.4547 45.7427 87.7514 45.7992C87.0481 45.8557 86.3427 45.7198 85.7108 45.406L77.5312 41.3162C77.0015 41.0555 76.4189 40.9199 75.8285 40.9199C75.238 40.9199 74.6555 41.0555 74.1257 41.3162L65.8839 45.266C65.2489 45.5712 64.5426 45.6973 63.8411 45.6308C63.1397 45.5642 62.4697 45.3075 61.9033 44.8884C61.3369 44.4692 60.8957 43.9035 60.6271 43.2521C60.3585 42.6007 60.2728 41.8883 60.3791 41.1918L61.7475 32.1414C61.8334 31.5573 61.7856 30.9614 61.6078 30.3985C61.43 29.8355 61.1269 29.3202 60.7212 28.8914L54.4077 22.2824C53.9208 21.7719 53.5821 21.1386 53.4277 20.4504C53.2733 19.7621 53.309 19.0448 53.5311 18.3753C53.7532 17.7057 54.1533 17.1093 54.6885 16.6498C55.2237 16.1903 55.8738 15.885 56.5692 15.7668L65.5885 14.2117C66.1715 14.1143 66.7244 13.8841 67.2044 13.539C67.6843 13.1938 68.0785 12.743 68.3565 12.2212L72.6328 4.24385C72.9647 3.62282 73.4589 3.10357 74.0628 2.74153C74.6667 2.37949 75.3576 2.18826 76.0617 2.18826C76.7658 2.18826 77.4567 2.37949 78.0606 2.74153C78.6646 3.10357 79.1588 3.62282 79.4906 4.24385L83.7048 12.439C83.9813 12.9618 84.3725 13.4152 84.8492 13.7653C85.3259 14.1154 85.8756 14.3531 86.4572 14.4605L95.4454 16.0156C96.1485 16.1379 96.8044 16.4514 97.3412 16.9217C97.8779 17.3921 98.2749 18.0011 98.4885 18.6821C98.7021 19.3631 98.7241 20.0897 98.5522 20.7823C98.3802 21.475 98.0209 22.107 97.5136 22.609L91.1068 29.1246C90.6913 29.5455 90.3773 30.0555 90.1887 30.616C90 31.1765 89.9418 31.7727 90.0183 32.3591Z" fill="#020305" stroke="#020305" stroke-width="2" stroke-linecap="round" stroke-linejoin="round"/>
<path d="M142.018 32.3591L143.293 41.4095C143.387 42.1088 143.288 42.8204 143.008 43.4679C142.728 44.1155 142.277 44.6745 141.703 45.0852C141.129 45.4959 140.455 45.7427 139.751 45.7992C139.048 45.8557 138.343 45.7198 137.711 45.406L129.531 41.3162C129.001 41.0555 128.419 40.9199 127.828 40.9199C127.238 40.9199 126.655 41.0555 126.126 41.3162L117.884 45.266C117.249 45.5712 116.543 45.6973 115.841 45.6308C115.14 45.5642 114.47 45.3075 113.903 44.8884C113.337 44.4692 112.896 43.9035 112.627 43.2521C112.359 42.6007 112.273 41.8883 112.379 41.1918L113.748 32.1414C113.833 31.5573 113.786 30.9614 113.608 30.3985C113.43 29.8355 113.127 29.3202 112.721 28.8914L106.408 22.2824C105.921 21.7719 105.582 21.1386 105.428 20.4504C105.273 19.7621 105.309 19.0448 105.531 18.3753C105.753 17.7057 106.153 17.1093 106.688 16.6498C107.224 16.1903 107.874 15.885 108.569 15.7668L117.588 14.2117C118.172 14.1143 118.724 13.8841 119.204 13.539C119.684 13.1938 120.079 12.743 120.356 12.2212L124.633 4.24385C124.965 3.62282 125.459 3.10357 126.063 2.74153C126.667 2.37949 127.358 2.18826 128.062 2.18826C128.766 2.18826 129.457 2.37949 130.061 2.74153C130.665 3.10357 131.159 3.62282 131.491 4.24385L135.705 12.439C135.981 12.9618 136.373 13.4152 136.849 13.7653C137.326 14.1154 137.876 14.3531 138.457 14.4605L147.445 16.0156C148.149 16.1379 148.804 16.4514 149.341 16.9217C149.878 17.3921 150.275 18.0011 150.488 18.6821C150.702 19.3631 150.724 20.0897 150.552 20.7823C150.38 21.475 150.021 22.107 149.514 22.609L143.107 29.1246C142.691 29.5455 142.377 30.0555 142.189 30.616C142 31.1765 141.942 31.7727 142.018 32.3591Z" fill="#020305" stroke="#020305" stroke-width="2" stroke-linecap="round" stroke-linejoin="round"/>
<path d="M194.018 32.3591L195.293 41.4095C195.387 42.1088 195.288 42.8204 195.008 43.4679C194.728 44.1155 194.277 44.6745 193.703 45.0852C193.129 45.4959 192.455 45.7427 191.751 45.7992C191.048 45.8557 190.343 45.7198 189.711 45.406L181.531 41.3162C181.001 41.0555 180.419 40.9199 179.828 40.9199C179.238 40.9199 178.655 41.0555 178.126 41.3162L169.884 45.266C169.249 45.5712 168.543 45.6973 167.841 45.6308C167.14 45.5642 166.47 45.3075 165.903 44.8884C165.337 44.4692 164.896 43.9035 164.627 43.2521C164.359 42.6007 164.273 41.8883 164.379 41.1918L165.748 32.1414C165.833 31.5573 165.786 30.9614 165.608 30.3985C165.43 29.8355 165.127 29.3202 164.721 28.8914L158.408 22.2824C157.921 21.7719 157.582 21.1386 157.428 20.4504C157.273 19.7621 157.309 19.0448 157.531 18.3753C157.753 17.7057 158.153 17.1093 158.688 16.6498C159.224 16.1903 159.874 15.885 160.569 15.7668L169.588 14.2117C170.172 14.1143 170.724 13.8841 171.204 13.539C171.684 13.1938 172.079 12.743 172.356 12.2212L176.633 4.24385C176.965 3.62282 177.459 3.10357 178.063 2.74153C178.667 2.37949 179.358 2.18826 180.062 2.18826C180.766 2.18826 181.457 2.37949 182.061 2.74153C182.665 3.10357 183.159 3.62282 183.491 4.24385L187.705 12.439C187.981 12.9618 188.373 13.4152 188.849 13.7653C189.326 14.1154 189.876 14.3531 190.457 14.4605L199.445 16.0156C200.149 16.1379 200.804 16.4514 201.341 16.9217C201.878 17.3921 202.275 18.0011 202.488 18.6821C202.702 19.3631 202.724 20.0897 202.552 20.7823C202.38 21.475 202.021 22.107 201.514 22.609L195.107 29.1246C194.691 29.5455 194.377 30.0555 194.189 30.616C194 31.1765 193.942 31.7727 194.018 32.3591Z" fill="#020305" stroke="#020305" stroke-width="2" stroke-linecap="round" stroke-linejoin="round"/>
<path d="M246.018 32.3591L247.293 41.4095C247.387 42.1088 247.288 42.8204 247.008 43.4679C246.728 44.1155 246.277 44.6745 245.703 45.0852C245.129 45.4959 244.455 45.7427 243.751 45.7992C243.048 45.8557 242.343 45.7198 241.711 45.406L233.531 41.3162C233.001 41.0555 232.419 40.9199 231.828 40.9199C231.238 40.9199 230.655 41.0555 230.126 41.3162L221.884 45.266C221.249 45.5712 220.543 45.6973 219.841 45.6308C219.14 45.5642 218.47 45.3075 217.903 44.8884C217.337 44.4692 216.896 43.9035 216.627 43.2521C216.359 42.6007 216.273 41.8883 216.379 41.1918L217.748 32.1414C217.833 31.5573 217.786 30.9614 217.608 30.3985C217.43 29.8355 217.127 29.3202 216.721 28.8914L210.408 22.2824C209.921 21.7719 209.582 21.1386 209.428 20.4504C209.273 19.7621 209.309 19.0448 209.531 18.3753C209.753 17.7057 210.153 17.1093 210.688 16.6498C211.224 16.1903 211.874 15.885 212.569 15.7668L221.588 14.2117C222.172 14.1143 222.724 13.8841 223.204 13.539C223.684 13.1938 224.079 12.743 224.356 12.2212L228.633 4.24385C228.965 3.62282 229.459 3.10357 230.063 2.74153C230.667 2.37949 231.358 2.18826 232.062 2.18826C232.766 2.18826 233.457 2.37949 234.061 2.74153C234.665 3.10357 235.159 3.62282 235.491 4.24385L239.705 12.439C239.981 12.9618 240.373 13.4152 240.849 13.7653C241.326 14.1154 241.876 14.3531 242.457 14.4605L251.445 16.0156C252.149 16.1379 252.804 16.4514 253.341 16.9217C253.878 17.3921 254.275 18.0011 254.488 18.6821C254.702 19.3631 254.724 20.0897 254.552 20.7823C254.38 21.475 254.021 22.107 253.514 22.609L247.107 29.1246C246.691 29.5455 246.377 30.0555 246.189 30.616C246 31.1765 245.942 31.7727 246.018 32.3591V32.3591Z" stroke="#020305" stroke-width="2" stroke-linecap="round" stroke-linejoin="round"/>
</svg>
