<svg width="50" height="121" viewBox="0 0 50 121" fill="none" xmlns="http://www.w3.org/2000/svg">
<path d="M12.1223 40.97V116.214C12.1303 116.785 12.2507 117.348 12.4766 117.873C12.7025 118.397 13.0294 118.872 13.4388 119.27C13.8482 119.668 14.3319 119.981 14.8624 120.192C15.3929 120.403 15.9598 120.508 16.5306 120.5L33.4742 120.491C34.6264 120.506 35.7374 120.063 36.5632 119.26C37.3889 118.456 37.8618 117.357 37.878 116.205V40.97" stroke="black" stroke-width="2" stroke-linecap="round" stroke-linejoin="round"/>
<path d="M24.9999 120.495V81.7063" stroke="black" stroke-width="2" stroke-linecap="round" stroke-linejoin="round"/>
<path d="M37.8779 76.69H39.3742C41.7241 76.7023 43.9828 75.7806 45.6532 74.1277C47.3237 72.4748 48.2691 70.226 48.2816 67.876V43.6136C48.2566 38.9137 46.3658 34.4161 43.0249 31.1102C39.684 27.8044 35.1667 25.9611 30.4668 25.9857H19.5333C14.8333 25.9611 10.3161 27.8044 6.97518 31.1102C3.63429 34.4161 1.74342 38.9137 1.71851 43.6136V67.876C1.73096 70.226 2.67639 72.4748 4.34684 74.1277C6.01729 75.7806 8.27592 76.7023 10.6259 76.69H12.1222" stroke="black" stroke-width="2" stroke-linecap="round" stroke-linejoin="round"/>
<path d="M24.9999 25.9855C32.1121 25.9855 37.8778 20.2803 37.8778 13.2427C37.8778 6.20506 32.1121 0.499939 24.9999 0.499939C17.8877 0.499939 12.1221 6.20506 12.1221 13.2427C12.1221 20.2803 17.8877 25.9855 24.9999 25.9855Z" stroke="black" stroke-width="2" stroke-linecap="round" stroke-linejoin="round"/>
</svg>
