<svg width="397" height="620" viewBox="0 0 397 620" fill="none" xmlns="http://www.w3.org/2000/svg">
<path d="M265.758 591.903V615.032H312.483V591.903C312.483 586.78 310.621 581.657 307.826 578.087C305.498 575.293 303.169 572.964 299.91 571.102C296.65 569.239 292.924 568.307 289.199 568.307C282.679 568.307 276.78 571.101 272.589 575.293C268.553 579.329 265.758 585.383 265.758 591.903Z" fill="#4C9CA3"/>
<path d="M308.292 584.917C308.292 584.917 328.628 557.13 315.743 532.604C315.743 532.604 294.011 547.351 295.874 577L308.292 584.917Z" fill="#4C9CA3"/>
<path d="M300.065 571.102C303.325 572.964 306.119 575.293 307.982 578.087C311.707 570.636 319.469 552.163 314.036 540.21C313.415 539.589 301.772 548.438 300.065 571.102Z" fill="#F73C4F"/>
<path d="M269.95 584.917C269.95 584.917 249.614 557.13 262.499 532.604C262.499 532.604 284.231 547.351 282.368 577L269.95 584.917Z" fill="#4C9CA3"/>
<path d="M278.332 571.102C275.072 572.964 272.278 575.293 270.415 578.087C266.69 570.636 258.928 552.163 264.361 540.21C264.361 539.589 276.469 548.438 278.332 571.102Z" fill="#F73C4F"/>
<path d="M281.903 594.541C281.903 595.007 281.903 595.473 281.903 596.404C286.094 595.473 290.751 595.007 294.787 594.541C294.787 590.816 291.527 588.022 288.267 588.022C285.007 588.022 281.903 590.971 281.903 594.541Z" fill="#FF8F6A"/>
<path d="M278.332 585.383C278.332 586.78 279.264 587.711 280.661 587.711C282.058 587.711 282.989 586.78 282.989 585.383C282.989 583.986 282.058 583.054 280.661 583.054C279.264 583.054 278.332 583.986 278.332 585.383Z" fill="#111010"/>
<path d="M296.805 587.246C295.519 587.246 294.476 586.203 294.476 584.917C294.476 583.631 295.519 582.589 296.805 582.589C298.091 582.589 299.133 583.631 299.133 584.917C299.133 586.203 298.091 587.246 296.805 587.246Z" fill="#111010"/>
<path d="M309.224 583.054L318.072 587.246L313.881 588.177L318.072 590.506L311.086 592.834L309.224 583.054Z" fill="#4C9CA3"/>
<path d="M269.95 583.054L261.101 587.246L265.293 588.177L261.101 590.506L267.621 592.834L269.95 583.054Z" fill="#4C9CA3"/>
<path d="M331.422 620C331.422 620 328.628 510.871 350.36 468.337C350.36 468.337 302.704 492.399 327.231 620H331.422Z" fill="#454556"/>
<path d="M340.736 618.603C340.736 618.603 350.05 568.152 368.057 547.351C368.057 547.351 330.646 558.838 336.079 619.068L340.736 618.603Z" fill="#454556"/>
<path d="M320.866 619.068C320.866 619.068 295.874 558.527 299.599 521.116C299.599 521.116 276.004 557.13 316.209 619.068H320.866Z" fill="#454556"/>
<path d="M286.56 619.534L261.101 609.91L244.491 619.534H286.56Z" fill="#FF8F6A"/>
<path d="M396.62 620C396.62 620 386.84 602.924 351.757 597.336C317.14 591.747 289.354 619.534 289.354 619.534L396.62 620Z" fill="#FF8F6A"/>
<path d="M73.8908 619.068L101.677 589.884L115.493 593.61L142.348 552.008H152.128C157.716 552.008 162.373 555.733 164.547 560.39L182.554 578.397L185.348 583.986L210.806 593.765L216.394 605.253L251.011 619.068L201.492 617.206L201.958 618.603L73.8908 619.068Z" fill="#FF8F6A"/>
<path d="M73.8908 619.068L201.492 619.534L182.088 579.329L164.081 561.322C161.752 556.199 157.095 552.939 151.662 552.939H144.211L126.67 594.076H115.648L101.833 590.35L105.092 598.733L73.8908 619.068Z" fill="#F05E2B"/>
<path d="M64.732 619.534L43.4651 603.855L21.2668 595.007L0 618.603L64.732 619.534Z" fill="#F05E2B"/>
<path d="M70.1651 530.275L103.385 557.596C103.385 557.596 104.782 556.199 106.645 553.405C109.439 550.145 113.63 545.022 118.132 539.124C130.551 523.911 148.713 501.713 163.926 481.377C173.705 468.493 182.398 455.919 187.521 447.226C190.315 442.569 191.712 438.843 192.178 436.515C192.178 435.118 192.178 431.858 192.178 427.666C191.712 401.743 187.987 330.646 186.59 301.928C186.124 294.477 186.124 290.441 186.124 290.441C157.872 265.914 133.345 294.166 133.345 294.166H93.6052C93.6052 302.083 94.5366 308.914 95.9337 314.968C101.988 339.494 118.132 344.617 118.132 344.617C118.132 344.617 144.522 419.594 140.796 425.493C139.399 427.822 129.775 442.103 118.132 459.179C97.4861 490.07 70.1651 530.275 70.1651 530.275Z" fill="#323244"/>
<path d="M70.1651 530.275L103.385 557.596C103.385 557.596 104.782 556.199 106.645 553.405L81.1866 527.481L150.576 426.735C150.576 414.782 126.98 342.599 126.98 342.599L140.33 326.921L120.461 334.837C113.475 330.18 109.749 320.09 109.749 320.09H155.543L160.666 297.892C181.001 294.166 187.521 303.014 187.521 303.014C187.055 295.563 187.055 291.527 187.055 291.527C158.803 267.001 134.276 295.253 134.276 295.253H94.5367C94.5367 303.17 95.4681 310 96.8652 316.054C102.919 340.581 119.063 345.703 119.063 345.703C119.063 345.703 145.453 420.681 141.727 426.58C140.33 428.908 130.706 443.19 119.063 460.265C97.4861 490.07 70.1651 530.275 70.1651 530.275Z" fill="#1F1F35"/>
<path d="M128.533 67.992C144.677 71.7176 159.579 92.0529 163.615 98.107L165.944 95.7785C165.944 95.7785 163.615 85.9989 157.095 76.3744C153.836 71.2518 149.644 66.595 144.677 63.0246C142.348 61.1619 139.554 59.7648 136.76 58.8334L128.533 67.992Z" fill="#DDCAE6"/>
<path d="M144.677 62.4035C152.594 67.9919 158.027 76.2194 161.287 82.7391C164.547 89.7246 165.944 95.1578 165.944 95.1578L171.532 90.9665C171.532 90.9665 177.12 100.281 184.416 103.851C185.813 104.317 186.745 104.782 188.142 104.782C195.593 105.714 205.218 96.8652 213.6 87.2407C221.051 78.8582 227.416 69.6997 230.21 64.577C229.279 59.92 227.416 55.7286 224.156 51.6926L221.362 48.8983C221.362 48.8983 213.911 60.8513 205.218 51.6926L190.936 62.4035C191.402 61.9378 197.922 52.1581 193.73 47.6564C193.73 47.6564 196.525 45.3279 195.127 40.6709C195.127 40.2052 194.662 39.7397 194.662 39.7397C194.662 39.274 194.196 39.2739 194.196 38.8082C194.196 38.8082 194.196 38.3424 193.73 38.3424C193.73 38.3424 193.73 37.877 193.265 37.877C191.868 36.9456 190.47 36.0139 188.608 36.0139C188.142 36.0139 188.142 36.0139 187.676 36.0139H186.745C186.745 36.0139 186.745 36.0139 186.279 36.0139H185.814C185.814 36.0139 185.348 36.014 185.348 36.4797C185.348 36.4797 184.882 36.4798 184.882 36.9455L184.416 37.4112C184.416 37.4112 175.568 36.4796 171.066 48.4325C171.066 48.4325 164.547 55.8839 158.182 51.6926C157.716 51.2269 156.785 50.7613 156.319 50.2956L144.677 62.4035Z" fill="#FF8F6A"/>
<path d="M189.073 36.6351C188.608 36.6351 188.608 36.6351 188.142 36.6351C188.608 36.6351 189.073 36.6351 189.073 36.6351Z" fill="#EA6044"/>
<path d="M184.882 38.3423C184.882 37.8766 185.348 37.8766 184.882 38.3423V38.3423Z" fill="#EA6044"/>
<path d="M183.485 56.505C183.019 55.1079 180.225 49.5195 184.882 43.6206C185.348 42.6892 186.279 41.7578 187.211 41.2921C191.402 38.4979 192.799 43.6207 192.799 44.0864C192.799 44.0864 193.73 39.4293 189.073 38.9636C184.882 38.3427 177.897 49.0538 183.485 56.505Z" fill="#1F1F35"/>
<path d="M118.753 344.927V459.644C130.706 442.103 140.486 427.666 141.417 425.959C144.677 419.905 118.753 344.927 118.753 344.927Z" fill="#1F1F35"/>
<path d="M118.753 539.589V568.307H158.027L164.547 481.843C149.334 502.178 131.172 524.376 118.753 539.589Z" fill="#1F1F35"/>
<path d="M116.89 559.459H161.287V568.773H116.89V559.459Z" fill="#1F1F35"/>
<path d="M65.6633 532.604L69.6994 535.863L96.5547 556.665L103.074 561.788L108.973 554.336L71.5623 525.308L65.6633 532.604Z" fill="#1F1F35"/>
<path d="M114.096 617.671H217.171C217.171 617.671 219.965 591.747 191.247 591.747L157.561 572.343L151.973 581.657L153.37 585.383C153.37 585.383 151.507 587.245 147.782 589.108C141.727 592.368 131.172 595.163 119.529 585.383C119.529 585.383 117.201 588.643 115.338 596.87C114.872 598.267 114.872 600.13 114.407 601.527C114.407 602.458 113.941 603.39 113.941 604.321C113.941 605.718 113.475 607.581 113.475 608.978C113.475 609.444 113.475 610.375 113.475 610.841C114.096 612.238 114.096 615.032 114.096 617.671Z" fill="#323244"/>
<path d="M114.096 617.671H217.171C217.171 617.671 219.965 591.747 191.247 591.747V609.754H114.096C114.096 612.238 114.096 615.032 114.096 617.671Z" fill="#DDCAE6"/>
<path d="M120.616 583.986C138.157 599.198 154.301 584.451 154.301 584.451L152.904 580.726L157.095 573.74C155.233 571.878 154.301 569.549 154.301 568.152H120.616V583.986Z" fill="#DDCAE6"/>
<path d="M36.0139 569.238L99.8145 617.361H124.807C125.738 610.841 123.41 603.079 113.32 595.628L98.5727 559.614L96.2442 560.546L88.793 563.805L87.8617 567.531C87.8617 567.531 85.5331 567.531 82.2733 567.065C75.2878 566.134 64.7319 561.943 61.0063 546.73C61.0063 546.73 56.8151 548.127 50.2953 553.715C49.3639 554.647 47.9668 555.578 46.5697 556.975C46.104 557.441 45.1726 558.372 44.7069 558.838C43.7755 559.769 42.3784 561.167 41.4471 562.564C40.9814 563.029 40.9814 563.495 40.5157 563.495C39.2738 565.047 37.8767 567.376 36.0139 569.238Z" fill="#323244"/>
<path d="M61.4721 546.575C66.5948 569.239 88.3274 567.376 88.3274 567.376L89.2587 563.65L96.7099 560.39C96.7099 558.993 96.7099 557.596 96.7099 556.665L69.8546 535.863L61.4721 546.575Z" fill="#DDCAE6"/>
<path d="M93.7606 294.476H133.966L135.829 298.668L136.76 300.997C140.02 300.531 143.28 299.599 146.54 298.668C146.54 298.668 146.54 298.668 147.005 298.668C157.251 294.477 163.615 286.715 164.081 286.249L162.218 280.661C162.684 280.661 163.15 280.661 163.615 280.661H164.081C164.547 280.661 165.012 280.661 165.478 280.661H165.944C166.409 280.661 166.875 280.661 167.341 280.661H167.807C168.272 280.661 168.738 280.661 169.204 281.127H169.669C170.135 281.127 170.601 281.592 171.532 281.592C171.998 281.592 171.998 281.592 172.464 281.592C172.929 281.592 172.929 281.592 173.395 282.058C174.326 282.524 174.792 282.524 175.723 282.989C176.655 283.455 177.121 283.455 178.052 283.921C178.518 284.387 179.449 284.386 179.915 284.852C180.38 285.318 180.846 285.318 181.312 285.784C181.777 286.249 182.243 286.249 182.709 286.715C183.64 287.181 184.106 287.647 185.037 288.578C185.969 289.509 186.434 289.975 187.366 290.441C187.366 290.441 193.886 271.036 183.175 258.152C183.175 258.152 183.175 256.289 182.709 253.029C181.312 238.282 177.12 194.817 174.326 164.236C173.861 157.717 172.929 152.283 172.464 147.626C171.998 141.107 171.532 136.139 171.066 134.742C169.669 124.031 165.478 119.995 165.478 119.995L165.012 99.6593C165.012 99.1936 164.547 99.1939 164.081 98.7282C160.355 93.1398 145.608 72.3384 128.998 68.6128L116.114 78.8583C116.114 78.8583 91.1216 88.1724 86.9303 133.345C81.8076 178.052 93.7606 294.476 93.7606 294.476Z" fill="#4C9CA3"/>
<path d="M148.402 303.79C145.608 315.278 155.388 319.469 155.388 319.469C169.669 304.256 165.633 288.423 165.633 288.423L163.77 286.094C163.305 286.56 156.785 294.477 146.695 298.513L148.402 303.79Z" fill="#F05E2B"/>
<path d="M159.89 142.97L146.074 153.06L137.691 206.77L161.752 280.661L163.615 286.249L128.533 207.701L116.424 204.907L128.998 203.51L134.897 167.807L125.738 127.601L137.691 163.771L142.348 150.265L151.973 113.786L146.074 147.471L159.89 142.97Z" fill="#28878D"/>
<path d="M85.5332 178.983C85.9989 195.593 87.396 214.066 88.3274 230.831C90.6559 265.448 93.9157 294.632 93.9157 294.632H134.121C134.121 294.632 105.403 247.907 93.9157 222.914C91.5872 217.792 89.7244 213.6 89.2587 210.962C87.3959 203.045 87.8616 193.42 89.7244 180.38C91.5872 166.099 95.3128 148.402 99.0384 126.825C106.49 86.1541 131.327 77.7718 131.327 77.7718C151.662 81.963 162.373 95.7786 164.081 98.5728C164.081 98.1071 163.615 98.1073 163.615 97.6416C159.89 92.0532 145.143 71.2518 128.533 67.5262L115.648 77.7718C115.648 77.7718 90.6559 87.0855 86.4646 132.258C85.0675 144.677 85.0675 160.976 85.5332 178.983Z" fill="#28878D"/>
<path d="M89.5692 314.502C91.8977 314.967 94.2262 315.433 96.5547 315.433C107.576 316.364 115.959 313.57 115.959 313.57C115.959 313.57 111.302 304.722 121.547 304.722C130.395 304.722 134.897 300.531 136.294 299.133L134.432 294.942H94.6919L89.5692 314.502Z" fill="#C0A1D1"/>
<path d="M163.615 286.249C173.861 286.249 181.622 295.098 187.211 302.393C190.936 307.982 193.265 313.104 193.73 313.881L186.745 290.751C185.813 290.285 185.348 289.354 184.416 288.888C183.485 288.423 183.019 287.491 182.088 287.026C181.622 286.56 181.157 286.56 180.691 286.094C180.225 285.628 179.759 285.628 179.294 285.162C178.828 284.697 177.897 284.231 177.431 284.231C176.5 283.766 176.034 283.3 175.102 283.3C174.171 282.834 173.705 282.834 172.774 282.369C172.308 282.369 172.308 282.369 171.843 281.903C171.377 281.903 171.377 281.903 170.911 281.903C170.446 281.903 169.98 281.437 169.048 281.437H168.583C168.117 281.437 167.651 281.437 167.186 280.971H166.72C166.254 280.971 165.788 280.971 165.323 280.971H164.857C164.391 280.971 163.926 280.971 163.46 280.971H162.994C162.529 280.971 162.063 280.971 161.597 280.971L163.615 286.249Z" fill="#DDCAE6"/>
<path d="M186.279 67.992L204.286 57.2811C214.997 63.3352 221.362 54.4867 223.225 51.2268L221.362 49.3641C221.362 49.3641 213.911 61.3171 205.218 52.1584L190.936 62.8693C191.402 62.4036 197.922 52.6239 193.73 48.1222C195.438 56.039 186.279 67.992 186.279 67.992Z" fill="#F05E2B"/>
<path d="M144.677 62.4035C152.594 67.9919 158.027 76.2194 161.287 82.7391L167.807 76.6851C166.409 83.6705 171.532 90.5006 171.532 90.5006C171.532 90.5006 177.12 99.8147 184.416 103.385C158.493 78.8583 180.225 58.5225 180.225 58.5225C172.308 47.0353 184.882 37.7215 184.882 37.7215C184.882 37.7215 176.034 36.7903 171.532 48.7432C171.532 48.7432 165.012 56.1941 158.648 52.0028C158.182 51.5371 157.251 51.0716 156.785 50.6059L144.677 62.4035Z" fill="#F05E2B"/>
<path d="M166.875 156.319C166.875 158.648 167.806 160.977 169.669 162.839C170.601 163.771 171.998 164.702 173.395 165.168C172.929 158.648 171.998 153.215 171.532 148.558C168.738 149.8 166.875 152.594 166.875 156.319Z" fill="#DDCAE6"/>
<path d="M164.033 572.907L166.847 574.553L162.146 582.593L159.332 580.948L164.033 572.907Z" fill="#DDCAE6"/>
<path d="M168.668 576.147L171.482 577.792L166.783 585.833L163.968 584.188L168.668 576.147Z" fill="#DDCAE6"/>
<path d="M173.615 578.923L176.43 580.568L171.73 588.609L168.915 586.964L173.615 578.923Z" fill="#DDCAE6"/>
<path d="M178.455 581.721L181.269 583.366L176.57 591.408L173.755 589.763L178.455 581.721Z" fill="#DDCAE6"/>
<path d="M183.277 584.861L186.092 586.506L181.392 594.548L178.578 592.903L183.277 584.861Z" fill="#DDCAE6"/>
<path d="M188.103 587.664L190.918 589.309L186.218 597.351L183.404 595.706L188.103 587.664Z" fill="#DDCAE6"/>
<path d="M102.275 562.419L103.527 565.429L94.9273 569.007L93.6752 565.997L102.275 562.419Z" fill="#DDCAE6"/>
<path d="M104.299 567.778L105.551 570.787L96.9517 574.366L95.6992 571.356L104.299 567.778Z" fill="#DDCAE6"/>
<path d="M106.993 573.296L108.245 576.305L99.6464 579.883L98.394 576.874L106.993 573.296Z" fill="#DDCAE6"/>
<path d="M108.345 578.19L109.598 581.2L100.998 584.778L99.7455 581.768L108.345 578.19Z" fill="#DDCAE6"/>
<path d="M111.443 583.561L112.696 586.57L104.097 590.149L102.845 587.139L111.443 583.561Z" fill="#DDCAE6"/>
<path d="M112.912 588.865L114.164 591.875L105.565 595.454L104.312 592.444L112.912 588.865Z" fill="#DDCAE6"/>
<path d="M82.2733 567.376L103.54 597.336L87.8617 567.686C87.7065 567.376 85.5331 567.841 82.2733 567.376Z" fill="#DDCAE6"/>
<path d="M148.868 588.177L185.814 600.13L154.301 584.451C154.301 584.917 151.973 586.78 148.868 588.177Z" fill="#DDCAE6"/>
<path d="M115.493 601.061H124.341V596.404H116.424C115.959 597.336 115.493 599.198 115.493 601.061Z" fill="#DDCAE6"/>
<path d="M114.562 608.047H124.341V603.39H115.027C114.562 604.787 114.562 606.65 114.562 608.047Z" fill="#111010"/>
<path d="M47.0354 556.665L52.6238 560.856L55.418 557.131L50.761 553.871C49.3639 554.336 47.9668 555.733 47.0354 556.665Z" fill="#DDCAE6"/>
<path d="M42.068 562.253L48.1221 566.91L50.9162 563.185L45.3279 558.993C43.9308 559.925 42.9994 560.856 42.068 562.253Z" fill="#DDCAE6"/>
<path d="M36.0139 569.238L99.8145 617.361H124.807H128.067C128.067 617.361 134.587 599.819 113.32 595.628L102.298 609.91L40.8261 563.185C39.2737 565.047 37.8767 567.376 36.0139 569.238Z" fill="#DDCAE6"/>
<path d="M181.622 253.34C182.088 256.6 182.088 258.463 182.088 258.463L181.622 253.34Z" fill="#FFDEE9"/>
<path d="M165.478 253.34L182.088 258.463C182.088 258.463 182.088 256.6 181.622 253.34H165.478Z" fill="#28878D"/>
<path d="M183.485 56.505C181.157 50.9166 184.882 43.6203 188.608 42.6889C191.868 41.7575 192.799 44.0859 193.265 44.5516C193.265 43.6202 191.868 38.9635 187.676 41.7577C186.745 42.2234 185.814 43.1548 185.348 44.0862C180.225 49.5194 183.019 55.1079 183.485 56.505Z" fill="#F05E2B"/>
<path d="M156.164 51.3822L158.027 52.7791C165.012 56.9704 170.911 49.5195 170.911 49.5195C175.568 37.5666 184.261 38.4978 184.261 38.4978L185.193 37.5662C185.193 37.5662 185.658 37.5666 185.658 37.1009C185.658 37.1009 185.658 37.1009 186.124 37.1009C186.124 37.1009 186.124 37.1009 186.59 37.1009H187.521C187.987 37.1009 187.987 37.1009 188.453 37.1009C189.85 37.1009 191.712 37.5665 193.11 38.9636C193.11 38.9636 193.575 38.9636 193.575 39.4293C193.575 39.4293 193.575 39.8947 194.041 39.8947C194.041 40.3604 194.507 40.3606 194.507 40.8263C194.507 41.292 194.972 41.2921 194.972 41.7578C196.369 46.4148 193.575 48.7433 193.575 48.7433C197.301 53.4003 191.247 62.559 190.781 63.4904L205.062 52.7791C213.911 62.5588 221.207 49.9849 221.207 49.9849L224.001 53.2449C227.261 56.9705 229.123 61.6276 230.055 66.1293C231.918 76.3747 228.192 87.3961 219.344 94.3816C219.344 94.3816 219.344 94.3816 218.878 94.3816C219.81 93.9159 256.755 83.3599 242.474 42.9994C242.474 42.5337 242.008 42.0681 242.008 41.1367C225.864 -0.931397 196.68 7.91702 196.68 7.91702C196.68 7.91702 194.817 1.39709 188.297 0C188.297 0 191.557 2.32857 192.489 7.45125C164.236 6.98555 159.734 46.7252 159.734 46.7252L156.164 51.3822Z" fill="#323244"/>
<path d="M183.951 438.377C183.951 442.569 185.348 445.829 187.676 447.691C190.471 443.034 191.868 439.309 192.333 436.98C192.333 435.583 192.333 432.323 192.333 428.132C191.868 428.132 191.402 428.132 190.936 428.132C187.211 427.666 183.951 432.789 183.951 438.377Z" fill="#FFDEE9"/>
<path d="M131.172 78.2375C131.172 78.2375 147.316 85.6887 160.355 104.627C160.355 104.627 135.829 81.4971 120.15 81.0314L131.172 78.2375Z" fill="#28878D"/>
<path d="M128.533 67.992C144.677 71.7176 159.579 92.0529 163.615 98.107C162.684 89.7245 159.89 82.4285 157.561 76.3744C154.301 71.2518 150.11 66.595 145.143 63.0246C142.814 61.1619 140.02 59.7648 137.226 58.8334L128.533 67.992Z" fill="#C0A1D1"/>
<path d="M219.499 93.45C220.43 92.9843 253.65 75.4433 221.362 49.0537L224.156 52.3134C227.416 56.0389 229.279 60.696 230.21 65.1978C232.539 75.4431 228.813 86.4646 219.499 93.45Z" fill="#1F1F35"/>
<path d="M156.164 51.3822L158.027 52.7791C165.012 56.9704 170.911 49.5195 170.911 49.5195C175.568 37.5666 184.261 38.4978 184.261 38.4978L185.193 37.5662C185.193 37.5662 185.658 37.5666 185.658 37.1009C185.658 37.1009 185.658 37.1009 186.124 37.1009C186.124 37.1009 186.124 37.1009 186.59 37.1009H187.521C187.987 37.1009 187.987 37.1009 188.453 37.1009C189.85 37.1009 191.712 37.5665 193.11 38.9636C193.11 38.9636 193.575 38.9636 193.575 39.4293C193.575 39.4293 193.575 39.8947 194.041 39.8947C194.041 40.3604 194.507 40.3606 194.507 40.8263C194.507 41.292 194.972 41.2921 194.972 41.7578C196.369 46.4148 193.575 48.7433 193.575 48.7433C197.301 53.4003 191.247 62.559 190.781 63.4904L204.131 46.8802C209.254 40.3604 218.878 38.9633 225.864 44.5517C236.575 53.4 241.076 67.6816 241.076 67.6816C239.214 34.4618 210.961 22.3537 210.03 21.888C226.174 26.545 236.419 35.238 242.784 43.6206C242.784 43.1549 242.318 42.6892 242.318 41.7578C226.174 -0.310239 196.99 8.5378 196.99 8.5378C196.99 8.5378 195.127 2.01825 188.608 0.621158C188.608 0.621158 191.868 2.94935 192.799 8.07203C164.547 7.60633 160.045 47.346 160.045 47.346L156.164 51.3822Z" fill="#1F1F35"/>
<path d="M108.663 96.7101C108.663 96.7101 93.45 166.565 95.7785 209.564C95.7785 209.564 90.6558 167.496 100.901 114.251L108.663 96.7101Z" fill="#28878D"/>
<path d="M213.6 87.8619C221.051 79.4793 227.416 70.3204 230.21 65.1978C229.279 60.5408 227.416 56.3494 224.156 52.3134L223.225 51.3822C223.225 51.8479 226.95 68.4578 213.6 87.8619Z" fill="#F05E2B"/>
</svg>
