<svg width="609" height="367" viewBox="0 0 609 367" fill="none" xmlns="http://www.w3.org/2000/svg">
<path d="M420.258 0H82.5606V186.06H420.258V0Z" fill="#EA781F"/>
<path d="M418.198 1.53662H84.6205V184.491H418.198V1.53662Z" fill="#49809E"/>
<path d="M429.413 186.06H73.4054V189.264H429.413V186.06Z" fill="#EA781F"/>
<path d="M284.205 116.455C283.289 116.455 282.537 117.207 282.537 118.122C282.537 119.038 283.289 119.79 284.205 119.79C285.12 119.79 285.872 119.038 285.872 118.122C285.84 117.207 285.12 116.455 284.205 116.455Z" fill="white"/>
<path d="M287.507 126.786C286.592 126.786 285.84 127.538 285.84 128.454C285.84 129.369 286.592 130.121 287.507 130.121C288.423 130.121 289.175 129.369 289.175 128.454C289.175 127.538 288.423 126.786 287.507 126.786Z" fill="white"/>
<path d="M247.845 104.064L249.775 102.658C250.2 102.331 250.298 101.71 250.003 101.285C249.676 100.86 249.055 100.762 248.63 101.056L246.668 102.495L239.998 93.7983C239.573 93.2425 238.854 93.079 238.265 93.4059C237.644 93.7002 237.35 94.3868 237.546 95.0406L240.946 106.68L238.102 108.772C237.677 109.099 237.578 109.72 237.873 110.145C238.069 110.407 238.363 110.537 238.657 110.537C238.854 110.537 239.05 110.472 239.246 110.341L241.535 108.674L243.529 115.54C243.66 115.965 244.053 116.259 244.478 116.259C244.576 116.259 244.674 116.259 244.739 116.226C245.262 116.063 245.557 115.54 245.393 115.016L243.17 107.497L246.211 105.274L249.807 109.949C250.134 110.374 250.755 110.472 251.181 110.145C251.606 109.818 251.704 109.197 251.377 108.772L247.845 104.064ZM242.647 105.437L240.292 97.46L245.066 103.672L242.647 105.437Z" fill="white"/>
<path d="M263.802 85.6902C261.742 85.3633 259.518 86.5402 257.785 87.7499C258.766 84.4478 259.355 80.8515 258.112 79.0861C257.426 78.1052 256.608 78.0399 256.183 78.0726C255.3 78.1379 254.516 78.8572 253.764 79.8707C253.535 79.6745 253.175 79.5765 252.848 79.6746C252.325 79.838 252.031 80.3611 252.161 80.8842L252.456 81.9304C252.031 82.7151 251.638 83.5651 251.246 84.4151C251.082 84.7748 250.919 85.1344 250.821 85.3306C250.657 85.494 250.559 85.7556 250.559 86.0171C250.559 86.5729 251.017 86.9979 251.54 86.9979C252.227 86.9979 252.423 86.6056 253.044 85.2652C253.11 85.1017 253.208 84.9382 253.273 84.7748L254.875 90.2346C254.843 90.3 254.843 90.3327 254.81 90.3981C254.777 90.4635 254.745 90.5289 254.745 90.5943C254.352 91.6731 253.927 92.6866 253.535 93.6021C253.306 94.0925 253.535 94.681 254.025 94.9098C254.156 94.9752 254.287 95.0079 254.418 95.0079C254.81 95.0079 255.17 94.779 255.333 94.4194C255.431 94.1906 255.595 93.7982 255.791 93.3405L258.112 101.285C258.243 101.71 258.636 102.004 259.061 102.004C259.159 102.004 259.257 102.004 259.322 101.972C259.845 101.808 260.14 101.285 260.009 100.762L259.813 100.043C261.644 99.0946 266.156 96.4791 267.431 92.9155C267.987 91.3789 267.889 89.875 267.17 88.4038C266.189 86.4421 264.815 85.821 263.802 85.6902ZM255.954 86.8672L254.581 82.192C255.562 80.4919 256.052 80.0996 256.314 80.0342C256.347 80.0669 256.412 80.0996 256.477 80.2303C257.197 81.2112 256.804 83.9247 255.954 86.8672ZM265.567 92.2289C264.586 94.9425 261.022 97.133 259.257 98.0811L257.131 90.8231C258.668 89.4173 261.513 87.3249 263.507 87.6191C264.292 87.7499 264.913 88.273 265.404 89.2538C265.862 90.2346 265.927 91.2154 265.567 92.2289Z" fill="white"/>
<path d="M282.603 76.961C281.197 76.6013 279.725 76.9283 278.254 77.9091C275.082 80.0669 271.747 88.8615 273.938 94.0271C274.821 96.0868 276.783 98.2446 281.197 98.2446C282.276 98.2446 283.485 98.1138 284.859 97.8196C285.382 97.7215 285.742 97.1984 285.611 96.6426C285.513 96.1195 284.99 95.7599 284.434 95.8906C279.823 96.8714 276.881 95.956 275.736 93.2424C273.807 88.7307 277.044 81.0804 279.333 79.5438C280.314 78.8899 281.229 78.661 282.079 78.8572C283.649 79.2495 284.597 81.0804 284.63 81.1131C284.859 81.6035 285.48 81.7996 285.938 81.5381C286.428 81.3092 286.624 80.6881 286.396 80.1976C286.363 80.1323 285.055 77.6148 282.603 76.961Z" fill="white"/>
<path d="M266.221 112.695L245.262 127.08L244.412 135.646L240.096 129.565L234.799 133.358C234.341 133.685 234.243 134.306 234.57 134.731C234.897 135.189 235.519 135.287 235.944 134.96L239.638 132.311L245.851 141.073L247.126 128.192L267.333 114.33C267.791 114.036 267.889 113.414 267.595 112.957C267.3 112.499 266.679 112.401 266.221 112.695Z" fill="white"/>
<path d="M294.276 118.449L276.03 125.871C275.54 126.067 275.278 126.656 275.475 127.146C275.638 127.538 275.998 127.767 276.39 127.767C276.521 127.767 276.652 127.734 276.75 127.702L294.995 120.28C295.485 120.084 295.747 119.496 295.551 119.005C295.355 118.482 294.766 118.253 294.276 118.449Z" fill="white"/>
<path d="M291.627 57.0505C291.235 56.6582 290.613 56.6909 290.221 57.0832L285.218 62.2815L280.216 57.0832C279.823 56.6909 279.202 56.6909 278.81 57.0505C278.417 57.4428 278.417 58.064 278.777 58.4563L283.812 63.6873L278.777 68.9183C278.385 69.3106 278.417 69.9318 278.81 70.3242C279.006 70.5203 279.235 70.5857 279.496 70.5857C279.758 70.5857 280.02 70.4876 280.216 70.2915L285.218 65.0932L290.221 70.2915C290.417 70.4876 290.679 70.5857 290.94 70.5857C291.202 70.5857 291.431 70.4876 291.627 70.3242C292.019 69.9318 292.019 69.3106 291.66 68.9183L286.624 63.6873L291.66 58.4563C292.019 58.064 292.019 57.4428 291.627 57.0505Z" fill="white"/>
<path d="M527.767 70.7493C527.767 70.7493 533.456 85.0365 541.99 86.9981C550.524 88.927 548.399 85.1018 548.399 85.1018C548.399 85.1018 537.118 73.659 527.767 70.7493Z" fill="#FAA853"/>
<path d="M527.734 70.8473C527.799 70.88 534.601 73.1359 539.669 77.6476L539.799 77.5168C534.699 73.0051 527.865 70.7165 527.8 70.6838L527.734 70.8473Z" fill="#3F2A49"/>
<path d="M553.173 83.7613C553.173 83.7613 554.938 88.0769 560.17 84.6441C565.434 81.2112 570.012 73.3975 570.012 73.3975C558.829 76.1437 553.173 83.7613 553.173 83.7613Z" fill="#FAA853"/>
<path d="M549.184 85.0364C549.184 85.0364 548.562 91.4444 554.579 85.9519C560.562 80.4593 566.578 70.7493 566.578 70.7493C555.985 74.2148 549.314 84.5787 549.184 85.0364Z" fill="#EA781F"/>
<path d="M548.791 90.8559C548.791 90.8232 548.824 90.6924 548.857 90.5289C547.091 92.229 548.791 90.8559 548.791 90.8559Z" fill="#FAA853"/>
<path d="M548.857 90.5289C549.641 89.777 551.145 88.3711 553.794 85.9845C562.361 78.2033 563.897 64.897 563.897 64.897C554.252 72.6454 549.445 88.0442 548.857 90.5289Z" fill="#FAA853"/>
<path d="M548.105 89.8424C548.105 89.8097 548.105 89.679 548.072 89.5155C546.797 91.5752 548.105 89.8424 548.105 89.8424Z" fill="#258D8C"/>
<path d="M548.105 89.4828C548.693 88.5347 549.772 86.8346 551.734 83.8595C558.11 74.2148 556.279 60.9412 556.279 60.9412C548.889 70.8147 548.072 86.9654 548.105 89.4828Z" fill="#EA781F"/>
<path d="M543.789 60.9412C543.789 60.9412 541.99 74.2148 548.333 83.8595C550.295 86.8346 551.407 88.5347 551.963 89.4828C551.996 86.9654 551.178 70.8147 543.789 60.9412Z" fill="#FAA853"/>
<path d="M551.963 89.8424C551.963 89.8424 553.271 91.6079 551.996 89.5155C551.963 89.679 551.963 89.8097 551.963 89.8424Z" fill="#FAA853"/>
<path d="M535.778 66.7933C536.17 73.0051 541.761 81.6363 541.761 81.6363L548.824 90.5617C548.824 90.5617 551.799 88.4039 548.007 80.0343C544.279 71.632 535.778 66.7933 535.778 66.7933Z" fill="#EA781F"/>
<path d="M534.274 83.5651C534.274 83.5651 534.339 87.1287 534.797 91.3789C534.993 93.1444 535.255 95.0079 535.582 96.8061C536.497 101.645 538.067 105.895 540.748 105.666H557.587C560.268 105.895 561.837 101.645 562.753 96.8061C563.113 95.0079 563.342 93.1444 563.538 91.3789C563.995 87.1287 564.061 83.5651 564.061 83.5651C558.339 82.6824 540.028 82.6824 534.274 83.5651Z" fill="#3F64A0"/>
<path d="M535.582 96.8062H562.753C563.113 95.008 563.342 93.1445 563.538 91.379H534.797C534.993 93.1445 535.255 95.008 535.582 96.8062Z" fill="#49809E"/>
<path d="M534.274 83.4671H534.208V83.5325C534.208 83.5652 534.274 87.1288 534.731 91.3463C534.96 93.3406 535.222 95.1715 535.516 96.8062L535.68 96.7735C535.385 95.1715 535.091 93.3406 534.895 91.3463C534.47 87.4884 534.404 84.1537 534.372 83.6306C540.126 82.7805 558.208 82.7805 563.995 83.6306C563.995 84.1864 563.897 87.4884 563.472 91.3463C563.243 93.3406 562.982 95.1715 562.688 96.7735C562.164 99.4871 561.51 101.612 560.758 103.083C559.843 104.849 558.797 105.666 557.619 105.568V105.732C557.685 105.732 557.75 105.732 557.848 105.732C560.072 105.732 561.772 102.724 562.884 96.7735C563.178 95.1388 563.472 93.3079 563.668 91.3136C564.126 87.0961 564.192 83.5325 564.192 83.4998V83.4344H564.126C558.372 82.6171 539.963 82.6171 534.274 83.4671Z" fill="#3F2A49"/>
<path d="M556.115 91.2809H537.772V91.4444H556.115V91.2809Z" fill="#3F2A49"/>
<path d="M559.222 96.7407H545.358V96.9042H559.222V96.7407Z" fill="#3F2A49"/>
<path d="M541.429 99.5827L541.321 99.705L543.205 101.376L543.313 101.253L541.429 99.5827Z" fill="#3F2A49"/>
<path d="M541.395 101.011L541.287 101.134L543.17 102.804L543.279 102.682L541.395 101.011Z" fill="#3F2A49"/>
<path d="M556.214 60.9411C556.214 60.9738 556.639 63.9817 556.377 68.1665C556.116 72.0243 555.2 77.713 552.257 82.8459L552.421 82.944C555.396 77.7784 556.312 72.057 556.573 68.1665C556.835 63.949 556.41 60.9411 556.41 60.9084L556.214 60.9411Z" fill="#3F2A49"/>
<path d="M556.475 82.9439L556.606 83.0747C562.066 76.6667 563.963 65.0277 563.963 64.9297L563.799 64.897C563.767 64.9951 561.903 76.5687 556.475 82.9439Z" fill="#3F2A49"/>
<path d="M557.391 83.0094L557.521 83.1402C559.876 81.0805 566.611 70.9127 566.677 70.8146L566.513 70.7166C566.448 70.8146 559.712 80.9497 557.391 83.0094Z" fill="#3F2A49"/>
<path d="M561.87 83.2709L562.001 83.4017C562.066 83.369 567.102 78.7919 570.11 73.4301L569.946 73.332C566.971 78.6611 561.936 83.2055 561.87 83.2709Z" fill="#3F2A49"/>
<path d="M543.854 60.8757L543.723 60.9738C543.756 61.0392 548.203 67.4472 549.576 73.7244C550.949 80.0343 551.44 82.8786 551.44 82.9113L551.603 82.8786C551.603 82.8459 551.113 80.0016 549.739 73.6917C548.366 67.4145 543.887 60.9411 543.854 60.8757Z" fill="#3F2A49"/>
<path d="M535.81 66.6952L535.712 66.8587C535.778 66.8914 542.873 71.4685 546.11 76.7322C546.143 76.7649 548.693 81.0804 549.053 82.9113L549.216 82.8786C548.824 81.0151 546.339 76.8303 546.241 76.6341C543.004 71.3377 535.909 66.7606 535.81 66.6952Z" fill="#3F2A49"/>
<path d="M565.532 105.47H479.179V109.262H565.532V105.47Z" fill="#44243D"/>
<path d="M521.293 85.4941H483.429V105.601H521.293V85.4941Z" fill="#49809E"/>
<path d="M521.326 85.4941H509.195V105.601H521.326V85.4941Z" fill="#3F64A0"/>
<path d="M523.255 85.4941H481.533V89.025H523.255V85.4941Z" fill="#49809E"/>
<path d="M523.058 88.7962H481.533V89.1885H523.451V85.4941H523.058V88.7962Z" fill="#3F2A49"/>
<path d="M523.255 85.4941H509.195V89.025H523.255V85.4941Z" fill="#3F64A0"/>
<g opacity="0.5">
<g opacity="0.5">
<path opacity="0.5" d="M504.159 90.5616H487.745V94.3868H504.159V90.5616Z" fill="#F3FFFE"/>
</g>
</g>
<g opacity="0.5">
<g opacity="0.5">
<path opacity="0.5" d="M504.159 100.468H487.745V100.86H504.159V100.468Z" fill="#F3FFFE"/>
</g>
</g>
<g opacity="0.5">
<g opacity="0.5">
<path opacity="0.5" d="M504.159 98.3755H487.745V98.7678H504.159V98.3755Z" fill="#F3FFFE"/>
</g>
</g>
<path d="M521.129 105.405H483.429V105.797H521.522V88.9924H521.129V105.405Z" fill="#3F2A49"/>
<path d="M487.974 78.1381L485.849 79.2496L485.195 81.0805V83.3037L487.549 84.7422L490.198 84.971L519.004 84.7422C517.762 81.8978 519.266 78.1381 519.266 78.1381H487.974Z" fill="#E0E7E1"/>
<path d="M488.857 78.3015L519.985 78.3342C520.181 78.3342 520.345 78.1708 520.345 77.9746C520.345 77.7784 520.181 77.615 519.985 77.615L488.857 77.5823C486.568 77.5823 484.705 79.315 484.705 81.4728C484.705 83.6306 486.568 85.3634 488.824 85.3634L519.952 85.3961C520.148 85.3961 520.312 85.2326 520.312 85.0364C520.312 84.8403 520.148 84.6768 519.952 84.6768L488.824 84.6441C486.961 84.6441 485.424 83.2383 485.424 81.4728C485.457 79.7401 486.993 78.3015 488.857 78.3015Z" fill="#3F64A0"/>
<path d="M518.841 81.4401H503.571C503.538 81.4401 503.505 81.4727 503.505 81.5054C503.505 81.5381 503.538 81.5708 503.571 81.5708H518.841C518.873 81.5708 518.906 81.5381 518.906 81.5054C518.906 81.4727 518.873 81.4401 518.841 81.4401Z" fill="#AAC9F8"/>
<path d="M501.413 81.4073H486.568C486.536 81.4073 486.503 81.4401 486.503 81.4728C486.503 81.5055 486.536 81.5381 486.568 81.5381H501.413C501.446 81.5381 501.478 81.5055 501.478 81.4728C501.478 81.4401 501.446 81.4073 501.413 81.4073Z" fill="#AAC9F8"/>
<path d="M494.579 82.8459H486.961C486.928 82.8459 486.895 82.8786 486.895 82.9113C486.895 82.944 486.928 82.9767 486.961 82.9767H494.579C494.612 82.9767 494.645 82.944 494.645 82.9113C494.677 82.9113 494.612 82.8459 494.579 82.8459Z" fill="#AAC9F8"/>
<path d="M518.808 82.8786L495.691 82.8459C495.658 82.8459 495.625 82.8786 495.625 82.9113C495.625 82.944 495.658 82.9767 495.691 82.9767L518.808 83.0094C518.841 83.0094 518.873 82.9767 518.873 82.944C518.906 82.9113 518.873 82.8786 518.808 82.8786Z" fill="#AAC9F8"/>
<path d="M516.781 70.4551L485.522 70.4224C485.522 70.4224 487.026 74.1821 485.751 77.0265L514.557 77.288L517.206 77.0592L519.56 75.6207V73.3975L518.906 71.5666L516.781 70.4551Z" fill="#E0E7E1"/>
<path d="M515.898 69.8993L484.77 69.8666C484.574 69.8666 484.41 70.03 484.41 70.2262C484.41 70.4224 484.574 70.5858 484.77 70.5858L515.898 70.6185C517.762 70.6185 519.298 72.0244 519.298 73.7898C519.298 75.5226 517.762 76.9611 515.898 76.9611L484.77 76.9284C484.574 76.9284 484.41 77.0919 484.41 77.2881C484.41 77.4842 484.574 77.6477 484.77 77.6477L515.898 77.6804C518.187 77.6804 520.05 75.9476 520.05 73.7898C520.05 71.632 518.187 69.8993 515.898 69.8993Z" fill="#FAA853"/>
<path d="M501.217 73.6917H485.947C485.914 73.6917 485.882 73.7243 485.882 73.757C485.882 73.7897 485.914 73.8224 485.947 73.8224H501.217C501.249 73.8224 501.282 73.7897 501.282 73.757C501.282 73.7243 501.249 73.6917 501.217 73.6917Z" fill="#AAC9F8"/>
<path d="M518.187 73.6917H503.342C503.309 73.6917 503.277 73.7243 503.277 73.757C503.277 73.7897 503.309 73.8224 503.342 73.8224H518.187C518.219 73.8224 518.252 73.7897 518.252 73.757C518.285 73.757 518.252 73.6917 518.187 73.6917Z" fill="#AAC9F8"/>
<path d="M517.794 75.163H510.176C510.143 75.163 510.11 75.1957 510.11 75.2284C510.11 75.261 510.143 75.2937 510.176 75.2937H517.794C517.827 75.2937 517.86 75.261 517.86 75.2284C517.86 75.1957 517.827 75.163 517.794 75.163Z" fill="#AAC9F8"/>
<path d="M509.064 75.1629L485.947 75.1302C485.914 75.1302 485.882 75.1629 485.882 75.1956C485.882 75.2283 485.914 75.261 485.947 75.261L509.064 75.2937C509.097 75.2937 509.129 75.261 509.129 75.2283C509.162 75.1956 509.097 75.1629 509.064 75.1629Z" fill="#AAC9F8"/>
<path d="M515.898 69.8011L484.77 69.7684C484.508 69.7684 484.312 69.9646 484.312 70.2261C484.312 70.4877 484.508 70.6839 484.77 70.6839C484.803 70.6839 484.835 70.6512 484.835 70.6185C484.835 70.5858 484.803 70.5531 484.77 70.5531C484.606 70.5531 484.476 70.4223 484.476 70.2588C484.476 70.0954 484.606 69.9646 484.77 69.9646L515.898 69.9973C518.121 69.9973 519.952 71.6974 519.952 73.8224C519.952 75.9148 518.121 77.6476 515.898 77.6149L484.77 77.5822C484.606 77.5822 484.476 77.4514 484.476 77.288C484.476 77.1245 484.606 76.9937 484.77 76.9937C484.803 76.9937 484.835 76.961 484.835 76.9283C484.835 76.8956 484.803 76.863 484.77 76.863C484.508 76.863 484.312 77.0591 484.312 77.3207C484.312 77.5822 484.508 77.7784 484.77 77.7784L515.898 77.8111C518.219 77.8111 520.116 76.0456 520.116 73.8551C520.116 71.5993 518.252 69.8011 515.898 69.8011Z" fill="#3F2A49"/>
<path d="M519.985 78.2688C519.952 78.2688 519.92 78.3015 519.92 78.3342C519.92 78.3668 519.952 78.3995 519.985 78.3995C520.247 78.3995 520.443 78.2034 520.443 77.9418C520.443 77.6803 520.247 77.4841 519.985 77.4841L488.857 77.4514C486.536 77.4514 484.639 79.2169 484.639 81.4074C484.639 83.5978 486.536 85.396 488.857 85.396L519.985 85.4287C520.247 85.4287 520.443 85.2325 520.443 84.971C520.443 84.7094 520.247 84.5133 519.985 84.5133C519.952 84.5133 519.92 84.546 519.92 84.5787C519.92 84.6113 519.952 84.644 519.985 84.644C520.148 84.644 520.279 84.7748 520.279 84.9383C520.279 85.1017 520.148 85.2325 519.985 85.2325L488.857 85.1998C486.634 85.1998 484.803 83.4998 484.803 81.3747C484.803 79.2823 486.634 77.5495 488.857 77.5822L519.985 77.6149C520.148 77.6149 520.279 77.7457 520.279 77.9091C520.247 78.138 520.148 78.2688 519.985 78.2688Z" fill="#3F2A49"/>
<path d="M507.56 80.0342C508.737 80.263 509.358 84.2844 509.358 84.2844C509.685 83.6959 510.241 83.042 510.241 83.042L511.026 84.2844C511.582 82.4862 510.601 80.0342 510.601 80.0342H507.56Z" fill="#F75553"/>
<path d="M489.315 76.5361L490.1 75.2937C490.1 75.2937 490.655 75.9476 490.982 76.5361C490.982 76.5361 491.604 72.5147 492.781 72.2859H489.74C489.74 72.2859 488.759 74.7379 489.315 76.5361Z" fill="#FAA853"/>
<path d="M518.841 79.9688L486.993 79.9362C486.961 79.9362 486.928 79.9688 486.928 80.0015C486.928 80.0342 486.961 80.0669 486.993 80.0669L518.841 80.0996C518.873 80.0996 518.906 80.0669 518.906 80.0342C518.906 80.0015 518.873 79.9688 518.841 79.9688Z" fill="#AAC9F8"/>
<path d="M517.794 72.2532L485.947 72.2205C485.914 72.2205 485.882 72.2532 485.882 72.2859C485.882 72.3185 485.914 72.3512 485.947 72.3512L517.794 72.3839C517.827 72.3839 517.86 72.3512 517.86 72.3185C517.892 72.2859 517.827 72.2532 517.794 72.2532Z" fill="#AAC9F8"/>
<path d="M110.975 123.419C110.975 123.419 121.242 143.199 125.59 146.958C129.939 150.718 178.854 151.601 178.854 151.601L179.443 136.529L139.781 129.369L128.598 110.407L110.975 123.419Z" fill="#F9B59D"/>
<path d="M132.718 135.744C132.816 135.744 132.914 135.679 132.98 135.614L140.173 129.892C140.435 129.696 140.468 129.336 140.271 129.075C140.075 128.813 139.716 128.781 139.454 128.977L132.261 134.698C131.999 134.894 131.966 135.254 132.162 135.515C132.293 135.712 132.489 135.777 132.718 135.744Z" fill="#F07162"/>
<path d="M112.904 57.4429C112.904 57.4429 116.566 50.8387 109.242 44.3981C101.917 37.9574 99.7595 47.6021 96.6205 48.2232C93.4816 48.8444 88.0865 47.2751 85.5688 52.7677C83.0184 58.2602 83.8032 62.5431 80.5334 63.1643C77.2637 63.7855 66.0159 71.0108 67.8469 81.8978C69.6453 92.7848 80.0757 93.1117 80.0757 93.1117C80.0757 93.1117 120.718 98.31 124.381 87.9461C128.043 77.5822 124.479 72.6455 119.607 68.6241C116.566 66.1394 110.353 63.7528 112.904 57.4429Z" fill="#33192C"/>
<path d="M108.392 60.3853C108.392 60.3853 110.582 75.1956 108.097 78.4649C108.097 78.4649 106.887 80.1977 103.977 80.2631V89.5154H90.8985V59.1429L108.392 60.3853Z" fill="#F9B59D"/>
<path d="M104.108 72.0243C104.043 72.0243 104.01 71.9916 103.977 71.9262C103.977 71.8608 104.01 71.7954 104.075 71.7954C104.828 71.632 105.318 70.6838 105.449 70.3896C104.37 69.8011 103.683 69.0492 103.487 68.1337C103.127 66.6625 104.075 65.2894 104.108 65.2567C104.141 65.1913 104.206 65.1913 104.272 65.224C104.337 65.2567 104.337 65.3221 104.304 65.3875C104.304 65.3875 103.389 66.6952 103.716 68.0683C103.912 68.9511 104.599 69.6703 105.678 70.2261L105.776 70.2588L105.743 70.3569C105.743 70.4223 105.187 71.7954 104.108 72.0243C104.141 72.0243 104.141 72.0243 104.108 72.0243Z" fill="#F07162"/>
<path d="M103.977 83.9902V80.2631C103.977 80.2631 97.6668 79.9034 93.8085 77.4514C93.8085 77.4514 99.0728 82.5189 103.977 83.9902Z" fill="#F07162"/>
<path d="M96.8166 65.747C96.7513 65.747 96.6859 65.7143 96.6532 65.6816C96.5551 65.5836 96.5551 65.4528 96.6532 65.3547C96.6859 65.322 99.7267 62.2161 102.539 64.4393C102.637 64.5374 102.669 64.6681 102.571 64.7662C102.473 64.8643 102.343 64.897 102.244 64.7989C99.7921 62.8373 97.1109 65.5509 97.0128 65.6489C96.9474 65.7143 96.882 65.747 96.8166 65.747Z" fill="#33192C"/>
<path d="M105.089 65.224C105.024 65.224 104.958 65.1913 104.893 65.1259C104.795 65.0278 104.828 64.8644 104.926 64.799C105.024 64.7336 107.149 62.9027 108.49 64.047C108.588 64.1451 108.588 64.2759 108.522 64.3739C108.424 64.472 108.293 64.472 108.195 64.4066C107.149 63.5239 105.285 65.1259 105.253 65.1586C105.22 65.1913 105.154 65.224 105.089 65.224Z" fill="#33192C"/>
<path d="M107.836 67.0549C107.836 67.4145 107.541 67.7087 107.182 67.7087C106.822 67.7087 106.528 67.4145 106.528 67.0549C106.528 66.6952 106.822 66.401 107.182 66.401C107.541 66.401 107.836 66.6952 107.836 67.0549Z" fill="#3F2A49"/>
<path d="M101.525 67.0549C101.525 67.4145 101.231 67.7087 100.871 67.7087C100.511 67.7087 100.217 67.4145 100.217 67.0549C100.217 66.6952 100.511 66.401 100.871 66.401C101.198 66.401 101.525 66.6952 101.525 67.0549Z" fill="#3F2A49"/>
<path d="M93.5143 69.8992C93.5143 71.9589 91.8467 73.6263 89.7868 73.6263C87.7268 73.6263 86.0593 71.9589 86.0593 69.8992C86.0593 67.8395 87.7268 66.1721 89.7868 66.1721C91.8467 66.1721 93.5143 67.8395 93.5143 69.8992Z" fill="#F9B59D"/>
<path d="M89.5252 72.1878C88.7404 72.1878 88.2173 71.5993 88.0538 71.0108C87.8576 70.3243 88.0865 69.6377 88.6423 69.278C89.4598 68.7876 90.1791 69.0819 90.5715 69.3107C90.408 68.9184 90.1791 68.6242 89.8521 68.4607C89.1328 68.0684 88.2173 68.3626 88.2173 68.3626C88.1519 68.3953 88.0865 68.3626 88.0538 68.2972C88.0211 68.2318 88.0538 68.1665 88.1192 68.1338C88.1519 68.1338 89.1328 67.8068 89.9502 68.2645C90.408 68.5261 90.735 68.9838 90.8985 69.6377L90.9966 70.0627L90.7023 69.7684C90.6696 69.7358 89.7868 68.8857 88.7404 69.5069C88.1846 69.8665 88.1192 70.5204 88.25 70.9454C88.3808 71.4031 88.8058 71.9589 89.5252 71.9589C89.5906 71.9589 89.656 72.0243 89.656 72.0897C89.656 72.1551 89.6233 72.1878 89.5252 72.1878Z" fill="#F07162"/>
<path d="M108.391 60.3853C108.391 60.3853 107.247 54.6639 99.5959 54.0428C91.9448 53.4216 90.8984 59.143 90.8984 59.143L99.6286 60.9084L107.803 60.3526L108.391 60.3853Z" fill="#F9B59D"/>
<path d="M108.392 55.5467C108.392 55.5467 103.618 60.2219 97.4379 59.143C97.4379 59.143 95.378 66.6952 90.8985 66.3356C86.4189 65.976 88.8712 55.514 88.8712 55.514C88.8712 55.514 97.2417 52.1465 97.7649 52.1465C98.288 52.1465 107.149 51.6234 107.149 51.6234L108.392 55.5467Z" fill="#33192C"/>
<path d="M102.179 69.1799C101.983 69.1799 101.983 68.8856 102.179 68.8856C102.375 68.8856 102.375 69.1799 102.179 69.1799Z" fill="#EA5942"/>
<path d="M101.296 69.703C101.1 69.703 101.1 69.4088 101.296 69.4088C101.492 69.4088 101.492 69.703 101.296 69.703Z" fill="#EA5942"/>
<path d="M99.6613 68.6568C99.4651 68.6568 99.4651 68.3625 99.6613 68.3625C99.8575 68.3625 99.8575 68.6568 99.6613 68.6568Z" fill="#EA5942"/>
<path d="M98.2554 69.703C98.0592 69.703 98.0592 69.4088 98.2554 69.4088C98.4515 69.4088 98.4515 69.703 98.2554 69.703Z" fill="#EA5942"/>
<path d="M96.8167 68.2645C96.6205 68.2645 96.6205 67.9702 96.8167 67.9702C97.0129 67.9702 97.0129 68.2645 96.8167 68.2645Z" fill="#EA5942"/>
<path d="M96.2608 70.3896C96.0646 70.3896 96.0646 70.0953 96.2608 70.0953C96.457 70.0953 96.457 70.3896 96.2608 70.3896Z" fill="#EA5942"/>
<path d="M105.154 68.3298C104.958 68.3298 104.958 68.0356 105.154 68.0356C105.318 68.0029 105.318 68.3298 105.154 68.3298Z" fill="#EA5942"/>
<path d="M106.234 69.5069C106.037 69.5069 106.037 69.2126 106.234 69.2126C106.43 69.2126 106.43 69.5069 106.234 69.5069Z" fill="#EA5942"/>
<path d="M107.574 68.9837C107.378 68.9837 107.378 68.6895 107.574 68.6895C107.77 68.6895 107.77 68.9837 107.574 68.9837Z" fill="#EA5942"/>
<path d="M107.672 71.0761C107.476 71.0761 107.476 70.7819 107.672 70.7819C107.868 70.7819 107.868 71.0761 107.672 71.0761Z" fill="#EA5942"/>
<path d="M108.653 69.8338C108.457 69.8338 108.457 69.5396 108.653 69.5396C108.849 69.5396 108.849 69.8338 108.653 69.8338Z" fill="#EA5942"/>
<path d="M108.424 68.003C108.228 68.003 108.228 67.7087 108.424 67.7087C108.62 67.7087 108.62 68.003 108.424 68.003Z" fill="#EA5942"/>
<path d="M100.217 70.6512C100.021 70.6512 100.021 70.3569 100.217 70.3569C100.413 70.3569 100.413 70.6512 100.217 70.6512Z" fill="#EA5942"/>
<path d="M97.7649 219.244L101.787 351.981L122.026 353.975L136.838 214.078L97.7649 219.244Z" fill="#F9B59D"/>
<path d="M100.348 219.244L65.46 351.981L44.7626 353.975L62.4518 214.078L100.348 219.244Z" fill="#F9B59D"/>
<path d="M45.155 235.035C46.0705 227.875 55.3565 196.358 58.8552 186.289C62.3865 176.219 70.5281 159.774 70.5281 159.774L76.8714 147.743L70.9205 131.821L69.351 135.287C55.1931 130.873 45.155 121.457 45.155 121.457L47.4438 118.253L54.0486 109.328L60.9805 100.697L67.2257 94.1579L74.4191 90.6923L77.8523 90.0385C78.0158 89.9731 78.212 89.9404 78.3754 89.9077C78.5389 89.875 78.7351 89.875 78.8986 89.8423L83.2473 89.0249L83.8032 89.3846C88.6097 89.0249 93.3181 88.8942 94.8222 88.8615C97.2091 88.6326 111.04 88.8615 111.04 88.8615L111.073 88.8942C113.067 89.123 125.198 90.8231 127.552 93.2097C128.173 93.8636 131.607 99.8139 135.007 113.055L136.577 120.411L134.974 121.555L132.882 123.353L129.318 124.661L128.468 125.871L127.062 147.122V148.397L128.925 151.764L133.111 160.918L135.563 167.457L138.571 177.233L140.108 183.771L141.776 191.749L143.149 198.614L144.097 204.401L144.849 210.842C144.849 210.842 145.503 214.732 145.503 214.83C145.503 214.928 145.993 221.075 145.993 221.075L146.288 226.469L146.778 234.97L146.517 241.607L146.778 247.164L145.405 255.861C100.348 275.281 41.8853 251.643 41.8853 251.643L45.155 235.035Z" fill="#EA781F"/>
<path d="M71.5417 97.6234C71.6071 97.6234 71.6725 97.5907 71.7052 97.5253C73.8305 94.7137 77.2637 93.5694 77.2964 93.5694C77.4272 93.5367 77.4599 93.4059 77.4272 93.3078C77.3945 93.1771 77.2637 93.1444 77.1656 93.1771C77.0348 93.2098 73.5362 94.3867 71.3455 97.2965C71.2801 97.3946 71.2801 97.5253 71.3782 97.5907C71.4436 97.6234 71.4763 97.6234 71.5417 97.6234Z" fill="#3F2A49"/>
<path d="M71.9341 99.6504C71.9995 99.6504 72.0649 99.6177 72.0976 99.5523C74.2229 96.7407 77.6561 95.5964 77.6888 95.5964C77.8196 95.5637 77.8523 95.4329 77.8196 95.3348C77.7869 95.2041 77.6561 95.1714 77.558 95.2041C77.4272 95.2367 73.9286 96.4137 71.7379 99.3235C71.6725 99.4216 71.6725 99.5523 71.7706 99.6177C71.836 99.6504 71.9014 99.6504 71.9341 99.6504Z" fill="#3F2A49"/>
<path d="M45.0242 235.787C45.1223 235.787 45.1877 235.722 45.2204 235.624C50.877 207.049 59.2148 184.687 65.2311 170.988C71.7379 156.113 76.9694 147.906 77.0348 147.841L77.1002 147.776L77.0675 147.678L70.8877 131.167L69.2202 135.025C54.5718 130.35 46.3321 122.536 45.2858 121.523C46.6264 119.626 61.7979 98.0157 68.2393 93.6348C74.9095 89.0904 86.2228 88.9596 86.3209 88.9596C86.4189 88.9596 86.517 88.8615 86.517 88.7634C86.517 88.6653 86.4189 88.5673 86.3209 88.5673C86.2228 88.5673 74.8114 88.698 68.0104 93.3079C61.242 97.9177 45.0242 121.196 44.8607 121.424L44.7626 121.555L44.8607 121.653C44.9588 121.751 53.4274 130.415 69.2202 135.417L69.3837 135.483L70.7896 132.181L76.5771 147.678C76.0212 148.56 70.9858 156.701 64.806 170.792C58.7897 184.523 50.4192 206.919 44.7626 235.526C44.7299 235.624 44.7953 235.722 44.9261 235.754C45.0242 235.787 45.0242 235.787 45.0242 235.787Z" fill="#3F2A49"/>
<path d="M69.3183 135.45C69.3837 135.45 69.4818 135.417 69.4818 135.319L76.1193 117.796C76.152 117.697 76.1193 117.599 76.0212 117.534C75.9231 117.501 75.825 117.534 75.7596 117.632L69.1548 135.189C69.1221 135.287 69.1548 135.385 69.2529 135.45C69.2856 135.45 69.2856 135.45 69.3183 135.45Z" fill="#3F2A49"/>
<path d="M82.5279 148.528C82.626 148.528 82.7241 148.462 82.7241 148.364C82.7241 148.266 82.6587 148.168 82.5606 148.168L76.904 147.579C76.8059 147.579 76.7078 147.645 76.7078 147.743C76.7078 147.841 76.7732 147.939 76.8713 147.939L82.5279 148.528C82.4952 148.528 82.5279 148.528 82.5279 148.528Z" fill="#3F2A49"/>
<path d="M146.059 255.698C146.157 255.698 146.255 255.632 146.255 255.502C148.511 219.113 143.214 191.88 138.408 175.467C133.372 158.368 127.781 149.083 127.291 148.266L128.958 125.544C132.882 119.561 132.228 114.232 131.018 110.799C129.677 107.072 127.389 104.751 127.356 104.718C127.291 104.653 127.16 104.653 127.094 104.718C127.029 104.783 127.029 104.914 127.094 104.98C127.127 105.012 129.35 107.301 130.658 110.93C131.868 114.297 132.457 119.496 128.631 125.348L128.598 125.38V125.446L126.898 148.331L126.931 148.397C126.996 148.495 132.816 157.78 138.048 175.565C142.887 191.978 148.151 219.146 145.895 255.469C145.863 255.6 145.961 255.698 146.059 255.698Z" fill="#3F2A49"/>
<path d="M100.348 125.413H122.124C122.222 125.413 122.321 125.315 122.321 125.217C122.321 125.119 122.222 125.021 122.124 125.021H100.348C100.25 125.021 100.152 125.119 100.152 125.217C100.152 125.348 100.25 125.413 100.348 125.413Z" fill="#3F2A49"/>
<path d="M104.566 129.238H119.018C119.116 129.238 119.214 129.14 119.214 129.042C119.214 128.944 119.116 128.846 119.018 128.846H104.566C104.468 128.846 104.37 128.944 104.37 129.042C104.37 129.14 104.435 129.238 104.566 129.238Z" fill="#3F2A49"/>
<path d="M142.985 360.383H101.787V351.981C101.787 351.981 104.795 347.959 109.34 350.019C109.34 350.019 116.239 354.923 122.321 349.006L137.427 355.708C137.459 355.675 142.985 357.506 142.985 360.383Z" fill="#EA781F"/>
<path d="M101.721 363.325H143.051C144.032 363.325 144.784 362.541 144.784 361.593V361.037C144.784 360.056 143.999 359.304 143.051 359.304H101.721C101.231 359.304 100.838 359.696 100.838 360.187V362.475C100.838 362.933 101.231 363.325 101.721 363.325Z" fill="#B7BEB8"/>
<path d="M129.318 124.792C129.35 124.792 129.35 124.792 129.318 124.792C133.732 124.105 136.609 120.378 136.74 120.215L136.805 120.149L136.773 120.051C136.609 119.43 136.38 118.482 136.086 117.305C134.222 109.491 130.397 93.2098 125.885 91.6405C120.816 89.875 112.381 88.7961 112.315 88.7961C112.217 88.7961 112.119 88.8615 112.086 88.9596C112.086 89.0577 112.152 89.1558 112.25 89.1885C112.348 89.1885 120.751 90.2347 125.754 92.0001C130.037 93.504 133.993 110.243 135.694 117.403C135.955 118.547 136.184 119.463 136.348 120.084C135.923 120.607 133.143 123.844 129.285 124.432C129.187 124.432 129.122 124.53 129.122 124.661C129.154 124.727 129.22 124.792 129.318 124.792Z" fill="#3F2A49"/>
<path d="M64.1848 180.306C64.1848 180.306 66.7024 179.554 68.9259 178.312C71.182 177.069 71.2474 179.031 70.855 179.816C70.4626 180.6 67.9776 183.15 67.9776 183.15L64.1848 180.306Z" fill="#F07162"/>
<path d="M62.5172 179.881C62.5499 179.946 62.5826 180.044 62.6153 180.077C66.2447 180.6 70.4953 181.189 71.5417 181.319C73.4381 181.581 79.5852 184.556 81.2854 186.485C84.3917 189.983 82.1683 189.852 82.1683 189.852C85.0783 193.808 81.4816 193.155 81.4816 193.155C84.3917 196.457 80.8931 196.522 80.8931 196.522C82.2664 198.451 81.8086 199.203 81.1547 199.497C80.6969 199.726 80.141 199.661 79.6833 199.432C78.8658 198.974 77.0348 197.993 75.1384 196.914C75.1384 196.914 68.9913 194.887 57.7761 192.631L53.4274 191.291L62.5172 179.881Z" fill="#F9B59D"/>
<path d="M77.231 193.481C77.1329 193.449 77.0348 193.514 76.9694 193.58C76.904 193.678 76.9367 193.841 77.0675 193.906C78.637 194.789 80.7296 196.685 80.7623 196.685C80.8604 196.784 80.9912 196.751 81.0893 196.653C81.1874 196.555 81.1547 196.424 81.0566 196.326C80.9585 196.26 78.8658 194.397 77.2637 193.481C77.2964 193.514 77.2637 193.481 77.231 193.481Z" fill="#F07162"/>
<path d="M77.8195 190.604C77.7214 190.572 77.5906 190.637 77.5579 190.735C77.5252 190.866 77.5579 190.997 77.6887 191.029C79.716 191.847 81.3181 193.318 81.3508 193.318C81.4489 193.416 81.5797 193.384 81.6778 193.285C81.7759 193.187 81.7432 193.057 81.6451 192.959C81.5797 192.893 79.9448 191.455 77.8522 190.572C77.8522 190.637 77.8522 190.637 77.8195 190.604Z" fill="#F07162"/>
<path d="M79.0294 187.433C78.9313 187.4 78.8005 187.466 78.7678 187.564C78.7024 187.695 78.7678 187.826 78.8986 187.858C80.6315 188.61 82.0375 190.016 82.0702 190.016C82.1683 190.114 82.2991 190.114 82.3972 190.016C82.4953 189.918 82.4953 189.787 82.3972 189.689C82.3318 189.624 80.8931 188.218 79.0948 187.433C79.0621 187.466 79.0294 187.466 79.0294 187.433Z" fill="#F07162"/>
<path d="M33.1551 150.26C33.0897 146.566 42.5065 130.383 46.2667 123.288C52.1522 128.421 60.6208 132.54 64.4791 133.979C60.7516 139.962 56.4355 147.743 54.6699 150.522C52.8388 153.399 60.0649 176.219 62.648 180.6L53.4274 191.291C47.0514 185.439 33.3512 163.011 33.1551 150.26Z" fill="#F9B59D"/>
<path d="M187.519 134.992C187.519 134.992 183.791 136.856 182.745 136.823C181.699 136.791 177.317 136.137 177.317 136.137L175.911 151.535C175.911 151.535 179.148 151.764 184.707 151.209C190.265 150.685 187.519 134.992 187.519 134.992Z" fill="#F9B59D"/>
<path d="M105.285 73.659C105.22 73.6263 100.838 72.7435 100.838 72.7435C100.838 72.7435 101.067 74.6725 102.702 74.9994C104.337 75.3264 105.285 73.659 105.285 73.659Z" fill="#FBFDFC"/>
<path d="M144.162 362.933C144.653 362.508 144.947 361.92 144.947 361.266C144.947 360.056 143.966 359.075 142.756 359.075H101.852C101.198 359.075 100.675 359.598 100.675 360.252V362.279H100.969V360.252C100.969 359.762 101.362 359.402 101.819 359.402H142.724C143.77 359.402 144.587 360.252 144.587 361.266C144.587 361.821 144.358 362.345 143.933 362.704L144.162 362.933Z" fill="#3F2A49"/>
<path d="M142.626 359.337L142.887 359.206C142.854 359.141 142.037 357.44 138.931 356.133C135.89 354.825 122.517 348.907 122.386 348.842L122.255 349.104C122.386 349.169 135.759 355.087 138.8 356.394C141.808 357.669 142.626 359.304 142.626 359.337Z" fill="#3F2A49"/>
<path d="M101.95 351.981H101.656V359.108H101.95V351.981Z" fill="#3F2A49"/>
<path d="M115.552 352.046C116.141 352.046 116.468 351.981 116.5 351.981L116.468 351.686C116.435 351.686 112.871 352.177 109.47 349.855L109.307 350.117C111.694 351.784 114.212 352.046 115.552 352.046Z" fill="#3F2A49"/>
<path d="M103.698 356.361L103.533 356.605L105.458 357.903L105.622 357.659L103.698 356.361Z" fill="#3F2A49"/>
<path d="M105.118 356.008L104.954 356.252L106.878 357.551L107.043 357.307L105.118 356.008Z" fill="#3F2A49"/>
<path d="M24.8173 359.827H66.0159V351.425C66.0159 351.425 63.0077 347.403 58.4628 349.463C58.4628 349.463 51.5636 354.367 45.4819 348.45L30.3758 355.152C30.3758 355.119 24.8173 356.983 24.8173 359.827Z" fill="#EA781F"/>
<path d="M66.1139 362.77H24.7845C23.8036 362.77 23.0516 361.985 23.0516 361.037V360.481C23.0516 359.5 23.8363 358.748 24.7845 358.748H66.1139C66.6044 358.748 66.9967 359.141 66.9967 359.631V361.92C66.9967 362.377 66.6044 362.77 66.1139 362.77Z" fill="#B7BEB8"/>
<path d="M23.6729 362.41C23.1824 361.985 22.8881 361.397 22.8881 360.743C22.8881 359.533 23.869 358.552 25.0788 358.552H65.9831C66.6371 358.552 67.1602 359.075 67.1602 359.729V361.756H66.8333V359.729C66.8333 359.239 66.4409 358.879 65.9831 358.879H25.0788C24.0325 358.879 23.2151 359.729 23.2151 360.743C23.2151 361.298 23.444 361.822 23.869 362.181L23.6729 362.41Z" fill="#3F2A49"/>
<path d="M25.2096 358.781L24.9481 358.65C24.9808 358.585 25.7982 356.885 28.9044 355.577C31.9453 354.269 45.3185 348.352 45.4493 348.286L45.58 348.548C45.4493 348.613 32.0761 354.531 29.0352 355.839C26.0271 357.114 25.2096 358.781 25.2096 358.781Z" fill="#3F2A49"/>
<path d="M66.1793 351.425H65.885V358.552H66.1793V351.425Z" fill="#3F2A49"/>
<path d="M52.283 351.523C51.6944 351.523 51.3675 351.457 51.3348 351.457L51.3675 351.163C51.4002 351.163 54.9642 351.654 58.3647 349.332L58.5282 349.594C56.1413 351.261 53.5909 351.523 52.283 351.523Z" fill="#3F2A49"/>
<path d="M64.1012 355.828L62.1752 357.124L62.3395 357.368L64.2654 356.072L64.1012 355.828Z" fill="#3F2A49"/>
<path d="M62.7031 355.446L60.7786 356.744L60.9432 356.988L62.8677 355.69L62.7031 355.446Z" fill="#3F2A49"/>
<path d="M195.366 132.442L195.628 131.985C196.674 131.69 198.767 130.971 201.252 130.252C201.971 132.312 202.592 133.848 202.854 133.815L202.952 134.273C202.985 134.404 203.05 134.502 203.148 134.567C203.639 136.725 204.227 139.471 204.849 141.76C205.306 143.362 206.189 144.604 205.175 145.847C204.783 146.304 201.448 147.972 198.767 149.149C196.936 149.966 194.941 150.457 192.947 150.62L181.83 151.47C181.143 148.626 187.159 135.548 187.519 134.992L195.366 132.442Z" fill="#F9B59D"/>
<path d="M204.979 166.117L174.244 170.956C172.805 171.184 171.432 170.204 171.203 168.732L163.977 122.928C163.748 121.49 164.729 120.117 166.2 119.888L196.936 115.049C198.374 114.82 199.748 115.801 199.977 117.272L207.203 163.076C207.432 164.515 206.451 165.888 204.979 166.117Z" fill="#4E3658"/>
<path d="M198.047 135.025L204.26 134.11C204.26 134.11 205.437 134.829 205.568 136.039C205.699 137.248 204.979 137.967 204.783 138L198.538 138.916C197.786 139.014 197.034 138.327 196.87 137.314C196.674 136.169 197.23 135.123 198.047 135.025Z" fill="#F9B59D"/>
<path d="M198.244 139.112L205.11 137.935C205.11 137.935 205.862 138.36 206.026 139.57C206.189 140.779 205.699 141.825 205.502 141.858L198.8 143.002C198.047 143.133 197.295 142.447 197.099 141.433C196.903 140.289 197.426 139.243 198.244 139.112Z" fill="#F9B59D"/>
<path d="M198.015 134.665L204.162 133.783C204.325 133.75 204.456 133.914 204.456 134.11C204.489 134.306 204.391 134.502 204.227 134.502L198.08 135.385C197.753 135.417 197.492 135.646 197.295 136.006C197.099 136.366 197.067 136.791 197.132 137.248C197.263 138.066 197.884 138.654 198.505 138.556L205.241 137.543C205.404 137.51 205.535 137.673 205.535 137.869C205.568 138.033 205.47 138.196 205.372 138.262C205.339 138.262 205.339 138.262 205.306 138.294L198.571 139.308C197.655 139.439 196.772 138.589 196.576 137.379C196.478 136.725 196.576 136.104 196.838 135.581C197.132 135.058 197.557 134.731 198.015 134.665Z" fill="#F07162"/>
<path d="M196.87 131.363L203.116 130.35C203.802 130.252 204.554 131.167 204.652 131.887C204.816 133.096 204.325 134.142 204.129 134.175L197.426 135.254C196.674 135.385 195.922 134.731 195.726 133.717C195.497 132.573 196.053 131.494 196.87 131.363Z" fill="#F9B59D"/>
<path d="M196.838 131.004L202.985 130.023C203.148 129.99 203.279 130.154 203.312 130.35C203.344 130.546 203.246 130.742 203.083 130.775L196.936 131.756C196.609 131.821 196.347 132.05 196.151 132.377C195.988 132.737 195.922 133.162 195.988 133.619C196.118 134.437 196.74 134.992 197.361 134.894L204.064 133.783C204.227 133.75 204.358 133.914 204.391 134.11C204.424 134.273 204.358 134.437 204.227 134.502C204.195 134.502 204.195 134.502 204.162 134.535L197.459 135.646C196.543 135.81 195.661 134.96 195.464 133.75C195.366 133.096 195.432 132.475 195.693 131.952C195.955 131.396 196.38 131.069 196.838 131.004Z" fill="#F07162"/>
<path d="M198.178 138.719L205.045 137.543C205.208 137.51 205.339 137.673 205.372 137.869C205.404 138.066 205.306 138.262 205.143 138.294L198.276 139.471C197.949 139.537 197.688 139.766 197.492 140.125C197.328 140.485 197.263 140.91 197.328 141.368C197.459 142.185 198.015 142.675 198.669 142.577L205.175 141.335C205.306 141.302 205.47 141.433 205.502 141.662C205.535 141.825 205.47 142.022 205.339 142.054H205.306L198.767 143.297C197.851 143.46 197.034 142.708 196.805 141.498C196.674 140.845 196.772 140.223 197.034 139.7C197.328 139.144 197.72 138.818 198.178 138.719Z" fill="#F07162"/>
<path d="M198.636 143.198L205.045 141.989C205.045 141.989 205.731 142.348 205.895 143.493C206.058 144.637 205.601 145.585 205.437 145.65L199.192 146.827C198.505 146.958 197.786 146.337 197.59 145.389C197.394 144.343 197.884 143.329 198.636 143.198Z" fill="#F9B59D"/>
<path d="M198.473 142.577L204.881 141.368C205.012 141.335 205.175 141.466 205.208 141.695C205.241 141.891 205.143 142.087 204.979 142.12L198.571 143.329C198.276 143.395 198.015 143.591 197.851 143.918C197.688 144.245 197.655 144.67 197.721 145.062C197.851 145.814 198.407 146.304 198.996 146.206L205.241 145.029C205.372 144.997 205.535 145.127 205.568 145.356C205.601 145.52 205.535 145.716 205.404 145.749H205.372L199.126 146.926C198.276 147.089 197.426 146.337 197.23 145.193C197.132 144.604 197.197 143.983 197.426 143.493C197.655 143.002 198.047 142.675 198.473 142.577Z" fill="#F07162"/>
<path opacity="0.5" d="M187.813 131.821C187.813 133.717 186.276 135.254 184.38 135.254C182.484 135.254 180.947 133.717 180.947 131.821C180.947 129.925 182.484 128.388 184.38 128.388C186.276 128.388 187.813 129.925 187.813 131.821Z" fill="white"/>
<path d="M301.731 357.081L317 357.277L317.196 343.023L301.992 341.126L301.731 357.081Z" fill="#FE9F73"/>
<path d="M317.131 360.252H303.954L298.592 354.433L288.815 360.252H286.723C286.003 360.252 285.317 360.743 285.186 361.462C284.99 362.41 285.742 363.26 286.657 363.26H317.327C317.556 363.26 317.719 363.064 317.719 362.868V360.873C317.719 360.546 317.458 360.252 317.131 360.252Z" fill="#B7BEB8"/>
<path d="M311.409 353.419C311.409 353.419 306.308 357.048 301.796 352.667L290.581 357.637C290.581 357.637 287.507 358.65 286.69 360.318H317.033V354.89C317 354.858 314.777 351.883 311.409 353.419Z" fill="#3A1D32"/>
<path d="M317.131 354.858H316.902V360.252H317.131V354.858Z" fill="#3F2A49"/>
<path d="M306.177 354.662L306.145 354.89C306.145 354.89 306.406 354.923 306.831 354.923C307.812 354.923 309.676 354.727 311.474 353.485L311.344 353.288C308.826 355.054 306.177 354.662 306.177 354.662Z" fill="#3F2A49"/>
<path d="M314.156 359.075L314.286 359.271L315.725 358.323L315.594 358.127L314.156 359.075Z" fill="#3F2A49"/>
<path d="M314.584 357.871L313.147 358.84L313.275 359.029L314.712 358.061L314.584 357.871Z" fill="#3F2A49"/>
<path d="M316.967 360.154H286.624C285.742 360.154 285.022 360.873 285.022 361.756C285.022 362.246 285.218 362.671 285.578 362.998L285.709 362.835C285.382 362.573 285.218 362.181 285.218 361.789C285.218 361.037 285.84 360.416 286.592 360.416H316.935C317.294 360.416 317.589 360.71 317.589 361.069V362.573H317.818V361.069C317.85 360.546 317.458 360.154 316.967 360.154Z" fill="#3F2A49"/>
<path d="M289.469 357.931C287.18 358.912 286.559 360.154 286.526 360.219L286.723 360.318C286.723 360.318 287.344 359.075 289.534 358.127C291.791 357.179 301.698 352.765 301.796 352.733L301.698 352.536C301.632 352.569 291.725 356.983 289.469 357.931Z" fill="#3F2A49"/>
<path d="M374.515 189.754L374.678 176.383L393.806 171.74L392.727 194.724C392.727 194.724 393.185 204.99 392.727 206.984C392.269 208.978 391.288 212.052 385.959 211.986C384.291 211.954 382.82 211.659 381.577 211.267C379.06 210.417 377.131 211.202 377.49 208.586L378.765 197.307C378.667 197.209 374.22 196.424 374.515 189.754Z" fill="#FE9F73"/>
<path d="M387.267 184.36C387.169 184.229 384.52 181.483 382.002 183.412C381.904 183.477 381.774 183.477 381.675 183.379C381.61 183.281 381.61 183.15 381.708 183.052C384.52 180.829 387.528 184 387.561 184.033C387.659 184.131 387.626 184.262 387.561 184.36C387.528 184.393 387.463 184.425 387.397 184.425C387.365 184.425 387.299 184.393 387.267 184.36Z" fill="#4E3658"/>
<path d="M378.177 182.921C378.144 182.889 376.28 181.254 375.234 182.137C375.136 182.202 375.005 182.202 374.907 182.104C374.842 182.006 374.842 181.875 374.94 181.777C376.28 180.633 378.373 182.496 378.471 182.562C378.569 182.627 378.569 182.791 378.504 182.889C378.471 182.954 378.406 182.954 378.34 182.954C378.275 182.954 378.209 182.954 378.177 182.921Z" fill="#4E3658"/>
<path d="M383.31 186.616C382.918 186.616 382.591 186.289 382.591 185.897C382.591 185.504 382.918 185.177 383.31 185.177C383.703 185.177 384.03 185.504 384.03 185.897C384.03 186.289 383.703 186.616 383.31 186.616Z" fill="#3F2A49"/>
<path d="M376.444 186.191C376.052 186.191 375.725 185.864 375.725 185.472C375.725 185.079 376.052 184.752 376.444 184.752C376.836 184.752 377.163 185.079 377.163 185.472C377.196 185.864 376.869 186.191 376.444 186.191Z" fill="#3F2A49"/>
<path d="M378.373 200.87L378.798 197.274C378.798 197.274 382.558 198.68 388.248 193.841C388.248 193.874 386.057 200.282 378.373 200.87Z" fill="#F07162"/>
<path d="M380.793 190.278C380.793 190.31 380.727 190.343 380.695 190.343H380.662L378.275 189.526L379.06 184.131C379.06 184.066 379.125 184.033 379.19 184.033C379.256 184.033 379.289 184.098 379.289 184.164L378.504 189.395L380.727 190.147C380.793 190.179 380.825 190.245 380.793 190.278Z" fill="#F07162"/>
<path d="M380.335 193.449C378.831 193.743 377.948 192.206 377.948 192.206C377.948 192.206 381.97 191.389 382.035 191.389C382.068 191.389 381.839 193.155 380.335 193.449Z" fill="#FBFDFC"/>
<path d="M323.703 357.081L338.973 357.277L339.202 343.023L323.997 341.126L323.703 357.081Z" fill="#FE9F73"/>
<path d="M339.136 360.252H325.959L320.597 354.433L310.82 360.252H308.728C308.008 360.252 307.322 360.743 307.191 361.462C306.995 362.41 307.747 363.26 308.662 363.26H339.332C339.561 363.26 339.725 363.064 339.725 362.868V360.873C339.725 360.546 339.463 360.252 339.136 360.252Z" fill="#B7BEB8"/>
<path d="M333.414 353.419C333.414 353.419 328.313 357.048 323.801 352.667L312.586 357.637C312.586 357.637 309.513 358.65 308.695 360.318H339.038V354.89C339.005 354.858 336.782 351.883 333.414 353.419Z" fill="#4E3658"/>
<path d="M339.136 354.858H338.907V360.252H339.136V354.858Z" fill="#3F2A49"/>
<path d="M328.15 354.662L328.117 354.89C328.117 354.89 328.379 354.923 328.804 354.923C329.785 354.923 331.649 354.727 333.447 353.485L333.316 353.288C330.831 355.054 328.183 354.662 328.15 354.662Z" fill="#3F2A49"/>
<path d="M336.161 359.075L336.292 359.271L337.698 358.323L337.599 358.127L336.161 359.075Z" fill="#3F2A49"/>
<path d="M336.588 357.864L335.151 358.833L335.279 359.022L336.716 358.054L336.588 357.864Z" fill="#3F2A49"/>
<path d="M338.973 360.154H308.63C307.747 360.154 307.028 360.873 307.028 361.756C307.028 362.246 307.224 362.671 307.583 362.998L307.714 362.835C307.387 362.573 307.224 362.181 307.224 361.789C307.224 361.037 307.845 360.416 308.597 360.416H338.94C339.3 360.416 339.594 360.71 339.594 361.069V362.573H339.823V361.069C339.823 360.546 339.43 360.154 338.973 360.154Z" fill="#3F2A49"/>
<path d="M311.474 357.931C309.186 358.912 308.564 360.154 308.532 360.219L308.728 360.318C308.728 360.318 309.349 359.075 311.54 358.127C313.796 357.179 323.703 352.765 323.801 352.733L323.703 352.536C323.638 352.569 313.73 356.983 311.474 357.931Z" fill="#3F2A49"/>
<path d="M314.384 237.716C313.959 237.128 313.175 236.997 312.586 237.422C311.997 237.847 311.867 238.632 312.292 239.22L313.861 242.588C312.292 242.326 302.417 239.972 302.417 239.972C301.698 239.776 300.979 240.201 300.782 240.92C300.619 241.574 301.044 242.261 301.698 242.457L308.074 244.353C308.237 244.386 308.303 244.549 308.303 244.713L308.237 245.04C308.205 245.203 308.041 245.334 307.878 245.301L300.815 244.157C300.096 244.026 299.409 244.549 299.344 245.301C299.278 245.988 299.801 246.576 300.455 246.707L307.485 247.851C307.649 247.884 307.78 248.047 307.747 248.211L307.714 248.309C307.681 248.44 307.551 248.57 307.42 248.57L301.011 248.799C300.292 248.832 299.605 249.42 299.507 250.14C299.409 250.859 299.9 251.415 300.619 251.382L306.897 251.153C307.093 251.153 307.256 251.317 307.224 251.513C307.191 251.644 307.093 251.742 306.962 251.774L302.777 252.494C302.09 252.624 301.6 253.213 301.665 253.899C301.731 254.651 302.45 255.175 303.169 255.044L303.758 254.946C306.079 254.553 308.433 254.586 310.722 255.011L318.7 256.58C319.06 254.553 319.224 253.409 319.845 245.824C320.139 245.105 320.27 244.189 320.008 243.83L314.384 237.716Z" fill="#FE9F73"/>
<path d="M358.591 216.204C357.774 216.857 347.016 243.895 347.016 243.895L318.602 239.776C318.602 239.776 314.613 252.167 315.431 259.065C315.431 259.065 346.951 266.258 352.509 265.538C358.035 264.819 358.591 256.842 358.591 256.842C358.591 256.842 359.409 215.582 358.591 216.204Z" fill="#49809E"/>
<path d="M310.265 275.837C307.289 279.662 295.845 324.354 298.363 345.605C298.363 345.605 312.39 348.711 319.747 346.946L321.97 300.161L355.092 290.157L372.095 264.035L359.31 267.533C359.31 267.565 316.314 268.121 310.265 275.837Z" fill="#EA781F"/>
<path d="M319.616 296.63L320.956 295.551L319.191 346.325C318.243 346.521 314.057 347.371 308.368 347.306V347.861C308.564 347.861 308.728 347.861 308.924 347.861C315.169 347.861 319.485 346.848 319.551 346.815L319.747 346.75L321.545 294.309L319.224 296.173L319.616 296.63Z" fill="#3F2A49"/>
<path d="M396.618 359.794H381.054V306.013H377.49V359.794H361.501C359.343 359.794 357.578 361.56 357.578 363.718H377.49H381.054H400.542C400.574 361.56 398.809 359.794 396.618 359.794Z" fill="#E0E7E1"/>
<path d="M371.539 308.596L413.621 304.182L427.713 223.985H390.961L371.539 308.596Z" fill="#E0E7E1"/>
<path d="M427.811 224.017C425.948 223.592 424.116 224.835 423.79 226.698L410.972 296.042C410.547 298.33 408.553 299.998 406.231 299.998C391.812 299.998 343.55 299.998 343.55 299.998C340.51 299.998 338.025 302.482 338.025 305.523C338.025 308.563 340.51 311.048 343.55 311.048H410.22C412.313 311.048 414.177 309.871 415.092 308.138C415.484 307.713 415.746 307.158 415.844 306.569L430.362 228.006C430.721 226.175 429.61 224.41 427.811 224.017Z" fill="#B7BEB8"/>
<path d="M427.877 223.756C426.896 223.527 425.915 223.723 425.097 224.279C424.28 224.835 423.724 225.652 423.528 226.633L410.711 295.976C410.318 298.134 408.422 299.703 406.231 299.703C406.068 299.703 405.97 299.834 405.97 299.965C405.97 300.128 406.1 300.226 406.231 300.226C408.683 300.226 410.776 298.461 411.234 296.074L424.051 226.731C424.215 225.914 424.672 225.194 425.392 224.704C426.111 224.246 426.928 224.083 427.778 224.279C427.909 224.312 428.073 224.214 428.105 224.083C428.138 223.919 428.04 223.789 427.877 223.756Z" fill="#3F2A49"/>
<path d="M349.305 292.478L353.523 300.423C353.523 300.423 370.068 300.684 381.643 300.292C385.37 300.161 388.673 300.423 390.634 299.998C398.711 298.2 399.659 275.968 390.504 260.536C381.348 245.138 349.305 292.478 349.305 292.478Z" fill="#FAA853"/>
<path d="M320.891 278.779C319.714 283.455 316.183 326.545 318.7 347.829C318.7 347.829 336.422 348.188 343.779 346.423L345.61 303.169L345.807 300.292L354.635 300.521L370.068 272.927L366.308 268.873C366.373 268.841 322.068 274.104 320.891 278.779Z" fill="#FAA853"/>
<path d="M343.125 302.221L345.316 301.207L343.42 346.259C342.635 346.521 338.842 347.633 329.85 347.207L329.817 347.763C331.256 347.829 332.564 347.861 333.741 347.861C341.065 347.861 343.681 346.75 343.812 346.717L343.975 346.652L345.937 300.292L342.896 301.731L343.125 302.221Z" fill="#3F2A49"/>
<path d="M340.019 342.728L340.575 342.859C341.36 339.851 341.589 310.46 341.589 309.185H341.033C341.033 309.512 340.804 339.786 340.019 342.728Z" fill="#3F2A49"/>
<path d="M341.883 299.507L341.817 300.063C341.948 300.063 350.613 301.044 364.934 301.044C372.16 301.044 380.793 300.815 390.536 300.063L390.504 299.507C361.501 301.665 342.079 299.507 341.883 299.507Z" fill="#3F2A49"/>
<path d="M399.005 204.728C393.904 201.786 377.817 203.355 377.817 203.355C377.817 203.355 375.79 203.878 376.444 203.584C359.474 206.592 357.61 219.146 357.61 219.146L351.627 245.301L349.174 250.009C347.768 252.69 346.33 255.894 346.33 255.894C346.33 255.894 352.608 260.863 363.038 268.71C373.468 276.556 384.651 281.918 384.651 281.918C384.651 281.918 384.651 281.951 384.651 281.983C387.005 282.114 394.918 281.853 401.752 273.058C407.147 266.127 408.978 244.876 408.978 229.379C408.978 229.379 410.024 211.071 399.005 204.728Z" fill="#49809E"/>
<path d="M390.013 222.252C389.85 222.219 389.719 222.317 389.686 222.481C387.692 234.97 383.049 254.782 382.983 254.978C382.951 255.142 383.049 255.273 383.18 255.305C383.245 255.305 383.278 255.305 383.343 255.305C383.441 255.273 383.507 255.207 383.507 255.109C383.539 254.913 388.215 235.068 390.209 222.579C390.275 222.448 390.144 222.285 390.013 222.252Z" fill="#3F2A49"/>
<path d="M417.675 296.859C417.512 296.826 417.381 296.924 417.348 297.088L415.779 305.523C415.746 305.752 415.092 311.375 408.422 310.787H408.389L382.231 310.819C382.068 310.819 381.97 310.95 381.97 311.081C381.97 311.244 382.1 311.342 382.231 311.342L408.389 311.31C415.419 311.931 416.269 305.915 416.302 305.588L417.871 297.186C417.904 297.023 417.806 296.859 417.675 296.859Z" fill="#3F2A49"/>
<path d="M363.561 224.998C363.398 224.966 363.267 225.064 363.234 225.227C362.515 228.987 360.455 236.245 358.558 242.653C358.722 242.751 358.918 242.816 359.082 242.914C361.011 236.474 363.071 229.118 363.79 225.325C363.823 225.162 363.692 225.031 363.561 224.998Z" fill="#3F2A49"/>
<path d="M377.817 203.094C377.719 203.094 366.962 204.074 360.52 212.28C360.488 212.346 356.499 217.936 351.725 231.439L346.82 243.536L318.341 239.547L318.275 239.776C318.243 239.841 316.085 246.936 315.529 253.213C315.529 253.376 315.627 253.507 315.79 253.507H315.823C315.954 253.507 316.085 253.409 316.085 253.246C316.575 247.655 318.373 241.378 318.766 240.135L347.212 244.091L352.281 231.57C357.022 218.133 360.978 212.607 361.011 212.542C367.289 204.532 377.817 203.584 377.915 203.584C378.079 203.584 378.177 203.453 378.177 203.29C378.111 203.224 377.981 203.094 377.817 203.094Z" fill="#3F2A49"/>
<path d="M391.55 175.369C390.602 176.938 389.981 185.047 389.981 185.047L390.896 184.164L395.768 183.281C395.735 183.281 392.498 173.8 391.55 175.369Z" fill="#3F2A49"/>
<path d="M377.196 165.398C375.496 166.836 377.098 168.634 377.098 168.634C377.098 168.634 371.605 166.705 370.199 171.609C368.825 176.513 380.695 178.9 387.888 176.775C387.888 176.775 392.564 178.279 395.703 183.281C395.703 183.281 397.272 175.435 394.951 172.459C392.629 169.452 378.929 163.959 377.196 165.398Z" fill="#3F2A49"/>
<path d="M347.212 236.964C346.722 236.441 345.937 236.408 345.381 236.866C344.858 237.356 344.826 238.141 345.283 238.697L347.212 241.868C345.61 241.803 335.54 240.462 335.54 240.462C334.82 240.332 334.101 240.822 334.035 241.574C333.97 242.261 334.461 242.882 335.114 243.012L341.654 244.222C341.817 244.255 341.916 244.386 341.916 244.549L341.883 244.876C341.883 245.04 341.719 245.17 341.556 245.17L334.395 244.778C333.643 244.745 333.022 245.334 333.055 246.086C333.055 246.772 333.643 247.328 334.33 247.361L341.425 247.753C341.589 247.753 341.719 247.917 341.719 248.08V248.178C341.719 248.342 341.589 248.44 341.458 248.472L335.114 249.388C334.395 249.486 333.774 250.172 333.741 250.892C333.709 251.611 334.264 252.101 334.984 252.003L341.229 251.121C341.425 251.088 341.589 251.251 341.589 251.447C341.589 251.578 341.49 251.709 341.36 251.742L337.273 252.886C336.619 253.082 336.193 253.736 336.324 254.39C336.488 255.109 337.207 255.567 337.926 255.371L338.482 255.207C340.738 254.586 343.093 254.357 345.414 254.553L346.559 254.651C348.292 250.205 351.692 245.236 353.588 242.686C353.556 242.587 353.523 242.522 353.458 242.457L347.212 236.964Z" fill="#FE9F73"/>
<path d="M354.079 254.161L352.215 266.585C352.215 266.585 353.49 273.45 363.79 277.766C374.417 282.212 399.234 285.188 399.234 285.188C399.365 278.093 398.678 266.879 398.678 266.879L354.079 254.161Z" fill="#49809E"/>
<path d="M408.978 229.706C408.814 229.706 408.683 229.837 408.683 230C408.651 245.595 406.722 266.192 401.523 272.895C397.37 278.224 392.825 280.316 389.752 281.133C386.417 282.016 384.03 281.656 383.997 281.656C383.833 281.624 383.703 281.722 383.67 281.885C383.637 282.049 383.735 282.18 383.899 282.212C383.997 282.245 386.417 282.605 389.85 281.689C390.438 281.526 391.06 281.33 391.714 281.101C394.722 279.956 398.482 277.733 401.98 273.254C407.277 266.454 409.207 245.693 409.272 230C409.272 229.837 409.141 229.706 408.978 229.706Z" fill="#3F2A49"/>
<path d="M382.853 254.717L355.027 240.724L354.896 240.887C354.831 240.985 348.226 249.29 346.068 255.861L346.003 256.025L346.134 256.123C346.264 256.221 360.259 267.239 363.692 269.527C363.725 269.56 363.79 269.56 363.823 269.56C363.888 269.56 363.986 269.527 364.019 269.462C364.084 269.364 364.052 269.2 363.954 269.102C360.716 266.944 348.03 256.973 346.559 255.828C348.553 249.845 354.21 242.489 355.125 241.345L382.558 255.142L386.188 257.79C386.286 257.855 386.449 257.855 386.547 257.725C386.613 257.627 386.613 257.463 386.482 257.365L382.853 254.717Z" fill="#3F2A49"/>
<path d="M352.836 266.912L354.373 259.883L353.458 259.784L352.215 266.683L352.248 266.977C352.281 267.206 353.392 272.731 361.174 277.014L361.468 276.458C354.308 272.535 352.967 267.435 352.836 266.912Z" fill="#3F2A49"/>
<path d="M248.957 224.148L263.148 260.275H303.79L289.633 224.148H248.957Z" fill="#4E3658"/>
<path d="M287.507 224.148L301.665 260.275H303.79L289.633 224.148H287.507Z" fill="#4E3658"/>
<path d="M272.565 238.73C271.486 239.089 271.093 240.724 271.649 242.391C272.205 244.059 273.545 245.105 274.624 244.745C275.703 244.386 276.096 242.751 275.54 241.084C274.984 239.416 273.644 238.37 272.565 238.73Z" fill="#E2F2F1"/>
<path d="M317.229 257.365H302.025V260.275H317.229C318.047 260.275 318.701 259.621 318.701 258.804C318.701 257.986 318.047 257.365 317.229 257.365Z" fill="#4E3658"/>
<path d="M313.371 258.346H303.79V258.804H313.371V258.346Z" fill="#49809E"/>
<path d="M377.065 260.275L386.417 363.75H389.784L383.735 260.275H377.065Z" fill="#3F2A49"/>
<path d="M382.002 274.954H274.134V277.145H382.002V274.954Z" fill="#3F2A49"/>
<path d="M383.506 318.437H270.995V320.627H383.506V318.437Z" fill="#3F2A49"/>
<path d="M267.954 363.75H271.322L280.674 260.275H274.003L267.954 363.75Z" fill="#3F2A49"/>
<path d="M397.403 259.294H257.295C257.033 259.294 256.805 259.523 256.805 259.784V262.4C256.805 262.661 257.033 262.89 257.295 262.89H397.403C397.664 262.89 397.893 262.661 397.893 262.4V259.784C397.893 259.523 397.697 259.294 397.403 259.294Z" fill="#3F2A49"/>
<path d="M544.769 211.398C545.914 211.561 546.895 211.757 547.745 211.986L549.282 179.162C549.282 179.162 541.5 179.162 537.772 185.798C536.399 188.25 535.647 191.258 535.189 196.195C534.993 199.726 536.137 210.057 544.769 211.398Z" fill="#3F2A49"/>
<path d="M568.148 194.43C567.985 192.403 567.788 190.572 567.494 189.199C565.761 180.764 556.475 179.064 556.475 179.064L556.606 195.541L556.737 209.73C556.704 209.73 567.592 207.246 568.148 194.43Z" fill="#3F2A49"/>
<path d="M540.617 189.82C540.617 189.82 535.255 207.474 544.769 210.221L544.606 222.677L557.946 219.898L558.633 179.783C558.633 179.783 554.677 180.208 554.677 180.535C554.677 180.862 540.617 189.82 540.617 189.82Z" fill="#FE9F73"/>
<path d="M544.639 202.93C544.704 202.93 544.77 202.897 544.77 202.832C544.802 202.767 544.737 202.701 544.671 202.668C543.789 202.472 543.265 201.361 543.102 201.001C544.377 200.347 545.129 199.497 545.424 198.451C545.881 196.751 544.802 195.182 544.77 195.116L544.573 195.083L544.541 195.28C544.541 195.28 545.554 196.816 545.162 198.386C544.9 199.366 544.148 200.184 542.873 200.805L542.775 200.87L542.808 201.001C542.808 201.034 543.429 202.636 544.639 202.93Z" fill="#ED7163"/>
<path d="M544.737 214.013L544.769 210.221C544.769 210.221 551.211 209.894 555.167 207.442C555.167 207.409 549.772 212.542 544.737 214.013Z" fill="#ED7163"/>
<path d="M547.81 197.209C547.81 197.568 548.105 197.895 548.464 197.895C548.824 197.895 549.151 197.601 549.151 197.241C549.151 196.882 548.857 196.555 548.497 196.555C548.137 196.555 547.81 196.849 547.81 197.209Z" fill="#3F2A49"/>
<path d="M541.303 197.176C541.303 197.535 541.598 197.862 541.957 197.862C542.317 197.862 542.644 197.568 542.644 197.209C542.644 196.849 542.35 196.522 541.99 196.522C541.598 196.489 541.303 196.784 541.303 197.176Z" fill="#3F2A49"/>
<path d="M548.007 203.322C547.941 203.322 544.377 204.009 544.377 204.009C544.377 204.009 545.129 205.382 546.47 205.12C547.81 204.892 548.007 203.322 548.007 203.322Z" fill="#FBFDFC"/>
<path d="M545.227 183.346C545.227 183.346 546.862 191.651 554.579 195.018C562.295 198.386 558.895 206.919 558.895 206.919L565.271 197.764C565.271 197.764 565.271 182.856 558.666 179.816C553.827 177.592 544.508 178.639 545.227 183.346Z" fill="#3F2A49"/>
<path d="M550.655 194.364C550.589 194.397 550.491 194.397 550.426 194.364C550.393 194.364 548.693 193.318 546.96 193.874C546.829 193.906 546.699 193.841 546.666 193.71C546.633 193.58 546.699 193.449 546.829 193.416C548.758 192.762 550.622 193.906 550.688 193.939C550.786 194.005 550.818 194.168 550.753 194.266L550.655 194.364Z" fill="#3F2A49"/>
<path d="M540.355 195.116C540.29 195.116 540.192 195.083 540.159 195.051C540.061 194.953 540.094 194.789 540.192 194.724C540.257 194.658 541.892 193.253 543.919 193.58C544.05 193.612 544.148 193.71 544.116 193.841C544.083 193.972 543.985 194.07 543.854 194.037C542.056 193.743 540.519 195.051 540.519 195.051L540.355 195.116Z" fill="#3F2A49"/>
<path d="M545.75 186.55L549.086 183.477L546.568 187.041L545.75 186.55Z" fill="#FE9F73"/>
<path d="M555.363 198.484C555.331 200.576 556.998 202.309 559.091 202.341C561.184 202.374 562.917 200.707 562.949 198.614C562.982 196.522 561.314 194.789 559.222 194.756C557.129 194.691 555.396 196.358 555.363 198.484Z" fill="#FE9F73"/>
<path d="M559.385 200.87C560.17 200.87 560.726 200.282 560.922 199.693C561.151 198.974 560.922 198.288 560.333 197.928C559.516 197.405 558.764 197.699 558.372 197.928C558.535 197.536 558.797 197.241 559.124 197.045C559.876 196.653 560.791 196.98 560.791 196.98C560.856 197.012 560.922 196.98 560.955 196.914C560.987 196.849 560.955 196.784 560.889 196.751C560.856 196.751 559.876 196.391 559.025 196.849C558.535 197.111 558.208 197.568 558.012 198.222L557.914 198.647L558.241 198.353C558.273 198.32 559.189 197.47 560.235 198.124C560.824 198.484 560.856 199.17 560.726 199.628C560.562 200.118 560.137 200.641 559.418 200.641C559.352 200.641 559.287 200.707 559.287 200.772C559.254 200.838 559.32 200.87 559.385 200.87Z" fill="#ED7163"/>
<path d="M566.971 195.574C570.113 195.574 572.66 192.72 572.66 189.199C572.66 185.678 570.113 182.823 566.971 182.823C563.829 182.823 561.281 185.678 561.281 189.199C561.281 192.72 563.829 195.574 566.971 195.574Z" fill="#3F2A49"/>
<path d="M563.309 192.01C561.282 185.472 568.867 180.044 574.328 184.131C574.426 184.197 574.524 184.295 574.655 184.36C581.325 189.689 576.061 196.457 577.957 200.445C577.925 200.478 566.546 202.374 563.309 192.01Z" fill="#3F2A49"/>
<path d="M494.481 357.996L509.424 358.192L509.653 344.232L494.743 342.369L494.481 357.996Z" fill="#FE9F73"/>
<path d="M509.554 361.102H496.639L491.407 355.413L481.827 361.102H479.767C479.048 361.102 478.394 361.593 478.263 362.279C478.067 363.227 478.786 364.045 479.702 364.045H509.718C509.947 364.045 510.11 363.881 510.11 363.652V361.691C510.143 361.364 509.881 361.102 509.554 361.102Z" fill="#4E3658"/>
<path d="M503.963 354.4C503.963 354.4 498.96 357.964 494.546 353.648L483.593 358.519C483.593 358.519 480.585 359.533 479.767 361.135H509.456V355.838C509.456 355.838 507.266 352.896 503.963 354.4Z" fill="#3F64A0"/>
<path d="M509.587 355.839H509.358V361.102H509.587V355.839Z" fill="#3F2A49"/>
<path d="M498.83 355.642L498.797 355.871C498.797 355.871 499.059 355.904 499.484 355.904C500.432 355.904 502.263 355.708 504.029 354.498L503.898 354.302C501.446 356.002 498.862 355.642 498.83 355.642Z" fill="#3F2A49"/>
<path d="M508.029 359.008L506.619 359.957L506.747 360.147L508.157 359.198L508.029 359.008Z" fill="#3F2A49"/>
<path d="M507.041 358.763L505.632 359.714L505.76 359.904L507.169 358.953L507.041 358.763Z" fill="#3F2A49"/>
<path d="M509.424 361.004H479.735C478.852 361.004 478.165 361.723 478.165 362.573C478.165 363.031 478.361 363.489 478.721 363.783L478.852 363.62C478.557 363.358 478.361 362.998 478.361 362.573C478.361 361.822 478.983 361.2 479.735 361.2H509.424C509.783 361.2 510.045 361.495 510.045 361.821V363.293H510.274V361.821C510.274 361.396 509.881 361.004 509.424 361.004Z" fill="#3F2A49"/>
<path d="M482.514 358.846C480.258 359.794 479.669 361.037 479.637 361.102L479.833 361.2C479.833 361.2 480.421 359.991 482.579 359.075C484.77 358.127 494.481 353.844 494.579 353.779L494.481 353.583C494.416 353.583 484.705 357.898 482.514 358.846Z" fill="#3F2A49"/>
<path d="M512.563 357.996L527.505 358.192L527.734 344.232L512.857 342.369L512.563 357.996Z" fill="#FE9F73"/>
<path d="M527.669 361.102H514.753L509.522 355.413L499.941 361.102H497.882C497.162 361.102 496.508 361.593 496.377 362.279C496.181 363.227 496.901 364.045 497.816 364.045H527.832C528.061 364.045 528.225 363.881 528.225 363.652V361.691C528.257 361.364 527.996 361.102 527.669 361.102Z" fill="#4E3658"/>
<path d="M522.045 354.4C522.045 354.4 517.042 357.964 512.628 353.648L501.674 358.519C501.674 358.519 498.666 359.533 497.849 361.135H527.538V355.838C527.538 355.838 525.38 352.896 522.045 354.4Z" fill="#49809E"/>
<path d="M527.669 355.839H527.44V361.102H527.669V355.839Z" fill="#3F2A49"/>
<path d="M516.911 355.642L516.879 355.871C516.879 355.871 517.14 355.904 517.565 355.904C518.513 355.904 520.345 355.708 522.11 354.498L521.979 354.302C519.527 356.002 516.944 355.642 516.911 355.642Z" fill="#3F2A49"/>
<path d="M526.149 359.037L524.738 359.986L524.866 360.176L526.277 359.227L526.149 359.037Z" fill="#3F2A49"/>
<path d="M525.17 358.763L523.76 359.713L523.888 359.903L525.298 358.952L525.17 358.763Z" fill="#3F2A49"/>
<path d="M527.505 361.004H497.816C496.933 361.004 496.247 361.723 496.247 362.573C496.247 363.031 496.443 363.489 496.803 363.783L496.933 363.62C496.639 363.358 496.443 362.998 496.443 362.573C496.443 361.822 497.064 361.2 497.816 361.2H527.505C527.865 361.2 528.126 361.495 528.126 361.821V363.293H528.355V361.821C528.355 361.396 527.963 361.004 527.505 361.004Z" fill="#3F2A49"/>
<path d="M500.595 358.846C498.339 359.794 497.751 361.037 497.718 361.102L497.914 361.2C497.914 361.2 498.503 359.991 500.661 359.075C502.852 358.127 512.563 353.844 512.661 353.779L512.563 353.583C512.497 353.583 502.786 357.898 500.595 358.846Z" fill="#3F2A49"/>
<path d="M504.127 227.679C503.898 227.058 503.211 226.764 502.59 226.993C501.969 227.221 501.674 227.908 501.903 228.529L502.525 231.929C501.151 231.341 492.846 226.829 492.846 226.829C492.258 226.469 491.473 226.666 491.146 227.287C490.852 227.843 491.081 228.562 491.604 228.889L496.901 232.126C497.031 232.191 497.064 232.354 496.999 232.485L496.868 232.779C496.803 232.91 496.639 233.008 496.476 232.943L490.394 230.229C489.773 229.935 489.021 230.262 488.792 230.916C488.563 231.504 488.89 232.191 489.478 232.452L495.527 235.133C495.658 235.199 495.756 235.362 495.691 235.526L495.658 235.624C495.593 235.755 495.462 235.82 495.331 235.787L489.511 234.479C488.857 234.316 488.105 234.708 487.811 235.329C487.549 235.951 487.844 236.572 488.497 236.703L494.219 237.978C494.383 238.01 494.481 238.207 494.416 238.37C494.35 238.468 494.252 238.566 494.121 238.533L490.165 238.174C489.544 238.108 488.923 238.533 488.824 239.187C488.726 239.874 489.217 240.495 489.903 240.56L490.459 240.593C492.617 240.789 494.743 241.378 496.704 242.326L503.505 245.628C504.323 243.895 504.715 242.882 507.102 236.245C507.527 235.689 507.887 234.872 507.723 234.479L504.127 227.679Z" fill="#FFA683"/>
<path d="M498.601 244.68L525.347 271.718L533.293 272.895L536.464 257.136L508.574 233.368C501.936 236.343 498.601 244.68 498.601 244.68Z" fill="#EA781F"/>
<path d="M508.574 233.041L508.41 233.106C503.211 235.526 500.105 241.116 500.072 241.149C500.007 241.28 500.04 241.41 500.17 241.509C500.301 241.574 500.432 241.541 500.53 241.411C500.563 241.345 503.505 236.049 508.475 233.629L531.56 253.311C531.592 253.344 531.658 253.376 531.723 253.376C531.789 253.376 531.854 253.344 531.919 253.278C532.018 253.18 531.985 253.017 531.887 252.919L508.574 233.041Z" fill="#3F2A49"/>
<path d="M575.799 359.271H559.614L559.941 310.035H556.246L555.919 359.271H539.309C537.053 359.271 535.222 361.102 535.222 363.358H555.919H559.614H579.886C579.886 361.102 578.055 359.271 575.799 359.271Z" fill="#E0E7E1"/>
<path d="M547.745 309.021L591.494 304.477L606.11 221.075H567.919L547.745 309.021Z" fill="#E0E7E1"/>
<path d="M606.24 221.108C604.311 220.683 602.415 221.958 602.055 223.887L588.747 295.976C588.322 298.363 586.23 300.063 583.81 300.063C568.835 300.063 518.644 300.063 518.644 300.063C515.473 300.063 512.89 302.646 512.89 305.817C512.89 308.989 515.473 311.571 518.644 311.571H587.963C590.153 311.571 592.05 310.362 593.031 308.531C593.423 308.073 593.717 307.517 593.815 306.896L608.889 225.227C609.249 223.364 608.104 221.533 606.24 221.108Z" fill="#B7BEB8"/>
<path d="M606.306 220.846C605.292 220.617 604.278 220.813 603.396 221.369C602.546 221.925 601.957 222.808 601.761 223.821L588.453 295.911C588.028 298.167 586.066 299.769 583.81 299.769C583.647 299.769 583.516 299.9 583.516 300.063C583.516 300.227 583.647 300.357 583.81 300.357C586.36 300.357 588.551 298.526 589.009 296.042L602.317 223.952C602.48 223.102 602.971 222.35 603.69 221.86C604.409 221.369 605.292 221.206 606.175 221.402C606.338 221.435 606.469 221.337 606.502 221.173C606.567 221.01 606.469 220.879 606.306 220.846Z" fill="#3F2A49"/>
<path d="M604.769 220.781L591.396 220.813C591.232 220.813 591.102 220.944 591.102 221.108C591.102 221.271 591.232 221.402 591.396 221.402L604.769 221.369C604.932 221.369 605.063 221.239 605.063 221.075C605.063 220.912 604.932 220.781 604.769 220.781Z" fill="#3F2A49"/>
<path d="M496.443 276.066C493.794 279.466 488.367 325.237 490.623 344.298C490.623 344.298 504.421 345.246 511.026 343.644L512.628 297.219L542.284 288.261L557.521 264.885L540.486 264.329C540.453 264.329 501.838 269.168 496.443 276.066Z" fill="#3F64A0"/>
<path d="M511.124 298.984L512.334 298.003L510.764 343.448C509.914 343.644 506.154 344.363 501.086 344.33V344.821C501.249 344.821 501.413 344.821 501.576 344.821C507.168 344.821 511.059 343.905 511.091 343.905L511.287 343.873L512.922 296.924L510.862 298.592L511.124 298.984Z" fill="#3F2A49"/>
<path d="M537.086 290.32L539.963 300.063C539.963 300.063 554.775 300.292 565.14 299.965C568.475 299.867 571.418 300.096 573.183 299.703C580.409 298.101 582.175 275.575 573.968 261.746C565.761 247.949 537.086 290.32 537.086 290.32Z" fill="#49809E"/>
<path d="M511.68 278.06C510.633 282.245 508.377 325.368 510.633 344.396C510.633 344.396 525.478 345.246 532.05 343.644L533.816 299.867L540.224 300.096L555.723 272.796L552.355 269.167C552.355 269.167 512.726 273.875 511.68 278.06Z" fill="#49809E"/>
<path d="M531.527 301.502L533.489 300.586L531.821 343.48C531.102 343.709 527.701 344.69 519.691 344.33L519.658 344.821C520.933 344.886 522.11 344.919 523.156 344.919C529.696 344.919 532.05 343.938 532.148 343.873L532.279 343.807L534.012 299.769L531.298 301.044L531.527 301.502Z" fill="#3F2A49"/>
<path d="M529.696 305.294C529.696 305.556 530.873 332.299 530.186 334.947L530.677 335.078C531.364 332.364 530.186 306.406 530.186 305.294H529.696Z" fill="#3F2A49"/>
<path d="M530.448 299.18L530.383 299.671C530.513 299.671 538.263 300.553 551.08 300.553C557.554 300.553 565.271 300.325 573.968 299.671L573.935 299.18C548.007 301.109 530.644 299.18 530.448 299.18Z" fill="#3F2A49"/>
<path d="M595.679 296.826C595.516 296.794 595.385 296.892 595.352 297.055L593.717 305.85C593.685 306.111 593.031 311.931 586.066 311.31H586.033L558.829 311.342C558.666 311.342 558.535 311.473 558.535 311.637C558.535 311.8 558.666 311.931 558.829 311.931L586.001 311.898C593.325 312.552 594.208 306.308 594.24 305.948L595.843 297.186C595.941 296.99 595.843 296.859 595.679 296.826Z" fill="#3F2A49"/>
<path d="M530.121 231.897C529.598 232.616 527.407 255.698 527.08 259.229L527.898 260.504L538.001 272.895C539.963 269.919 540.748 268.219 540.748 268.219C540.748 268.219 530.677 231.112 530.121 231.897Z" fill="#EA781F"/>
<path d="M563.701 213C558.404 211.725 543.952 215.386 543.952 215.386C543.952 215.386 542.284 216.4 542.775 215.942C528.421 223.069 530.056 234.774 530.056 234.774L531.56 259.686L530.611 264.525C530.056 267.271 529.631 270.508 529.631 270.508C529.631 270.508 536.562 273.287 547.908 277.57C559.287 281.853 570.666 283.684 570.666 283.684C570.666 283.684 570.666 283.684 570.666 283.716C572.791 283.226 579.788 280.905 583.581 271.26C586.589 263.675 582.633 244.222 578.546 230.36C578.578 230.393 573.51 215.386 563.701 213Z" fill="#EA781F"/>
<path d="M543.854 215.125C543.756 215.157 534.404 218.852 530.808 227.875C530.775 227.941 528.682 233.956 527.996 247.263L527.734 249.878C527.734 250.009 527.832 250.14 527.963 250.14H527.996C528.126 250.14 528.225 250.042 528.257 249.911L528.519 247.295C529.205 234.054 531.298 228.104 531.298 228.039C534.797 219.211 543.952 215.615 544.05 215.582C544.181 215.517 544.246 215.386 544.181 215.255C544.116 215.157 543.985 215.092 543.854 215.125Z" fill="#3F2A49"/>
<path d="M544.671 215.19C544.671 215.19 547.058 219.833 551.178 219.375C555.331 218.917 558.306 214.798 558.11 212.836C558.11 212.836 548.922 213.425 544.671 215.19Z" fill="#FE9F73"/>
<path d="M578.677 230.687C578.546 230.72 578.448 230.883 578.513 231.014C582.568 244.941 586.295 263.838 583.385 271.194C581.064 277.047 577.565 280.12 575.047 281.656C572.301 283.324 570.077 283.618 570.044 283.618C569.914 283.651 569.783 283.782 569.816 283.912C569.848 284.043 569.979 284.174 570.11 284.141C570.208 284.141 572.464 283.847 575.309 282.114C575.767 281.82 576.29 281.493 576.813 281.101C579.2 279.303 581.946 276.295 583.908 271.391C586.851 263.936 583.123 244.909 579.069 230.883C578.938 230.752 578.807 230.654 578.677 230.687Z" fill="#3F2A49"/>
<path d="M559.745 229.052C559.614 229.085 559.516 229.216 559.516 229.347C561.02 240.986 562.066 259.915 562.066 260.111C562.066 260.242 562.197 260.373 562.328 260.373C562.393 260.373 562.426 260.34 562.459 260.308C562.524 260.242 562.557 260.177 562.557 260.079C562.557 259.883 561.51 240.953 560.006 229.281C560.039 229.118 559.908 229.02 559.745 229.052Z" fill="#3F2A49"/>
<path d="M560.301 213.948C560.17 213.948 560.072 214.013 560.072 214.144C560.072 214.209 558.927 220.944 549.968 222.285C549.838 222.317 549.772 222.415 549.772 222.546C549.805 222.677 549.903 222.742 550.034 222.742C550.23 222.71 550.459 222.677 550.655 222.644C559.385 221.042 560.53 214.275 560.53 214.209C560.497 214.079 560.399 213.98 560.301 213.948Z" fill="#3F2A49"/>
<path d="M536.857 238.435C536.726 238.435 536.595 238.566 536.628 238.73C536.988 242.261 537.053 249.29 537.053 255.534C537.216 255.567 537.413 255.6 537.576 255.632C537.576 249.388 537.511 242.261 537.151 238.697C537.151 238.501 537.02 238.403 536.857 238.435Z" fill="#3F2A49"/>
<path d="M528.454 253.049C528.094 252.494 527.342 252.33 526.786 252.69C526.23 253.049 526.067 253.801 526.426 254.357L527.734 257.561C526.295 257.267 517.206 254.619 517.206 254.619C516.552 254.39 515.832 254.749 515.669 255.436C515.505 256.057 515.865 256.678 516.454 256.907L522.306 258.934C522.437 258.967 522.535 259.13 522.503 259.261L522.437 259.555C522.405 259.719 522.241 259.817 522.078 259.784L515.538 258.411C514.851 258.28 514.198 258.738 514.099 259.425C514.001 260.046 514.459 260.634 515.08 260.765L521.554 262.106C521.718 262.138 521.816 262.302 521.783 262.465L521.751 262.563C521.718 262.694 521.587 262.792 521.456 262.792L515.473 262.727C514.786 262.727 514.132 263.25 514.001 263.904C513.871 264.558 514.296 265.113 514.982 265.113L520.835 265.179C521.031 265.179 521.162 265.342 521.129 265.538C521.097 265.669 520.999 265.767 520.868 265.767L516.944 266.258C516.323 266.323 515.832 266.879 515.865 267.533C515.898 268.219 516.519 268.742 517.206 268.644L517.762 268.579C519.92 268.317 522.11 268.448 524.236 268.939L531.56 270.737C531.985 268.873 532.181 267.794 533.097 260.798C533.391 260.144 533.587 259.294 533.325 258.934L528.454 253.049Z" fill="#FFA683"/>
<path d="M538.001 255.763L533.685 255.24C533.685 255.24 531.102 260.732 530.448 265.244C529.794 269.756 529.402 270.312 529.402 270.312L543.952 270.802L542.219 261.354L538.001 255.763Z" fill="#EA781F"/>
<path d="M565.892 261.288L561.903 259.883L533.391 254.684L533.325 254.848C533.293 254.946 529.565 264.1 529.402 270.541V270.704L529.565 270.77C529.729 270.835 545.096 276.981 548.759 278.126C548.791 278.126 548.857 278.126 548.889 278.126C548.955 278.093 549.02 278.06 549.053 277.962C549.086 277.831 549.02 277.701 548.889 277.668C545.423 276.589 531.494 271.031 529.859 270.377C530.088 264.525 533.195 256.482 533.685 255.207L561.805 260.308L565.729 261.713C565.859 261.746 565.99 261.681 566.023 261.583C566.055 261.484 565.99 261.354 565.892 261.288Z" fill="#3F2A49"/>
<path d="M448.149 224.573L462.34 260.667H502.982L488.792 224.573H448.149Z" fill="#3F64A0"/>
<path d="M486.666 224.573L500.857 260.667H502.982L488.792 224.573H486.666Z" fill="#2387A5"/>
<path d="M471.756 239.122C470.677 239.482 470.285 241.116 470.841 242.784C471.397 244.451 472.737 245.497 473.816 245.138C474.895 244.778 475.288 243.143 474.732 241.476C474.176 239.809 472.835 238.762 471.756 239.122Z" fill="#E2F2F1"/>
<path d="M516.421 257.757H501.217V260.667H516.421C517.238 260.667 517.892 260.013 517.892 259.196C517.892 258.411 517.238 257.757 516.421 257.757Z" fill="#2387A5"/>
<path d="M512.563 258.771H502.982V259.229H512.563V258.771Z" fill="#49809E"/>
<path d="M567.102 260.275L576.486 363.75H579.821L573.805 260.275H567.102Z" fill="#3F2A49"/>
<path d="M572.072 274.954H464.203V277.145H572.072V274.954Z" fill="#3F2A49"/>
<path d="M573.543 318.437H461.032V320.627H573.543V318.437Z" fill="#3F2A49"/>
<path d="M458.024 364.045H461.359L470.743 260.275H464.073L458.024 364.045Z" fill="#3F2A49"/>
<path d="M587.472 259.294H447.331C447.07 259.294 446.841 259.523 446.841 259.784V262.4C446.841 262.661 447.07 262.89 447.331 262.89H587.472C587.734 262.89 587.963 262.661 587.963 262.4V259.784C587.963 259.523 587.734 259.294 587.472 259.294Z" fill="#3F2A49"/>
<path d="M392.367 189.133C390.177 189.101 388.411 187.302 388.444 185.079C388.477 182.889 390.275 181.123 392.498 181.156C394.689 181.189 396.455 182.987 396.422 185.21C396.389 187.4 394.558 189.166 392.367 189.133Z" fill="#FE9F73"/>
<path d="M391.419 184.948L391.125 185.21L391.223 184.818C391.419 184.131 391.746 183.641 392.269 183.379C393.152 182.921 394.166 183.248 394.231 183.281C394.297 183.314 394.329 183.379 394.297 183.412C394.264 183.477 394.198 183.51 394.166 183.477C394.166 183.477 393.185 183.15 392.4 183.575C392.04 183.771 391.746 184.098 391.583 184.556C392.008 184.295 392.793 183.935 393.675 184.523C394.264 184.916 394.493 185.635 394.297 186.354C394.1 186.975 393.545 187.597 392.727 187.564C392.727 187.564 392.727 187.564 392.694 187.564C392.629 187.564 392.596 187.499 392.596 187.466C392.596 187.4 392.662 187.368 392.694 187.368C392.694 187.368 392.694 187.368 392.727 187.368C393.479 187.368 393.937 186.812 394.1 186.289C394.264 185.798 394.199 185.112 393.577 184.72C392.433 184 391.452 184.916 391.419 184.948Z" fill="#F07162"/>
<path d="M606.764 363.325H0V366.104H606.764V363.325Z" fill="#3F2A49"/>
</svg>
