<svg width="120" height="120" viewBox="0 0 120 120" fill="none" xmlns="http://www.w3.org/2000/svg">
<path d="M107.143 0H12.8571C9.44722 0 6.17695 1.35459 3.76577 3.76577C1.35459 6.17695 0 9.44722 0 12.8571L0 107.143C0 110.553 1.35459 113.823 3.76577 116.234C6.17695 118.645 9.44722 120 12.8571 120H49.6205V79.2027H32.7455V60H49.6205V45.3643C49.6205 28.717 59.5313 19.5214 74.7107 19.5214C81.9804 19.5214 89.5821 20.8179 89.5821 20.8179V37.1571H81.2063C72.9536 37.1571 70.3795 42.2786 70.3795 47.5312V60H88.8027L85.8562 79.2027H70.3795V120H107.143C110.553 120 113.823 118.645 116.234 116.234C118.645 113.823 120 110.553 120 107.143V12.8571C120 9.44722 118.645 6.17695 116.234 3.76577C113.823 1.35459 110.553 0 107.143 0Z" fill="black"/>
</svg>
