<svg width="120" height="120" viewBox="0 0 120 120" fill="none" xmlns="http://www.w3.org/2000/svg">
<path d="M60 45.7125C57.1744 45.7136 54.4126 46.5524 52.0638 48.123C49.7149 49.6936 47.8845 51.9253 46.8039 54.5361C45.7233 57.1469 45.4411 60.0195 45.993 62.7906C46.5449 65.5618 47.9061 68.1071 49.9045 70.1047C51.9028 72.1023 54.4486 73.4625 57.22 74.0134C59.9913 74.5642 62.8638 74.281 65.4742 73.1994C68.0846 72.1179 70.3157 70.2866 71.8853 67.9372C73.455 65.5877 74.2929 62.8256 74.2929 60C74.29 56.2107 72.7831 52.5774 70.1031 49.8985C67.4231 47.2195 63.7893 45.7139 60 45.7125ZM93.4045 34.7304C92.6771 32.8871 91.5788 31.2129 90.1776 29.8117C88.7764 28.4105 87.1022 27.3122 85.2589 26.5848C79.6339 24.3643 66.2411 24.8625 60 24.8625C53.7589 24.8625 40.3795 24.3455 34.7384 26.5848C32.8951 27.3122 31.2209 28.4105 29.8197 29.8117C28.4185 31.2129 27.3202 32.8871 26.5929 34.7304C24.375 40.3554 24.8705 53.7616 24.8705 59.9973C24.8705 66.233 24.375 79.6232 26.6036 85.267C27.3309 87.1102 28.4293 88.7844 29.8305 90.1856C31.2317 91.5868 32.9058 92.6851 34.7491 93.4125C40.3741 95.633 53.767 95.1348 60.0107 95.1348C66.2545 95.1348 79.6286 95.6518 85.2696 93.4125C87.1129 92.6851 88.7871 91.5868 90.1883 90.1856C91.5895 88.7844 92.6878 87.1102 93.4152 85.267C95.6518 79.642 95.1375 66.2357 95.1375 60C95.1375 53.7643 95.6518 40.3768 93.4152 34.733L93.4045 34.7304ZM60 81.9643C55.6559 81.9643 51.4093 80.6761 47.7973 78.2626C44.1853 75.8492 41.3701 72.4188 39.7076 68.4054C38.0452 64.3919 37.6103 59.9756 38.4578 55.715C39.3052 51.4543 41.3971 47.5407 44.4689 44.4689C47.5407 41.3971 51.4543 39.3052 55.715 38.4578C59.9756 37.6103 64.3919 38.0452 68.4054 39.7076C72.4188 41.3701 75.8492 44.1853 78.2626 47.7973C80.6761 51.4093 81.9643 55.6559 81.9643 60C81.9678 62.8854 81.4021 65.7431 80.2995 68.4095C79.197 71.076 77.5792 73.4987 75.539 75.539C73.4987 77.5792 71.076 79.197 68.4095 80.2995C65.7431 81.4021 62.8854 81.9678 60 81.9643ZM82.8696 42.2411C81.8555 42.2416 80.8641 41.9414 80.0206 41.3784C79.1772 40.8153 78.5196 40.0148 78.1312 39.0781C77.7428 38.1413 77.6408 37.1104 77.8384 36.1157C78.0359 35.1211 78.5239 34.2073 79.2408 33.49C79.9577 32.7728 80.8712 32.2842 81.8658 32.0862C82.8604 31.8882 83.8913 31.9895 84.8283 32.3775C85.7652 32.7655 86.5661 33.4226 87.1295 34.2657C87.693 35.1089 87.9938 36.1002 87.9938 37.1143C87.9966 37.7877 87.8664 38.4551 87.6107 39.0781C87.3551 39.7011 86.9789 40.2675 86.5038 40.7448C86.0288 41.2221 85.4641 41.6009 84.8423 41.8595C84.2205 42.1181 83.5538 42.2514 82.8804 42.2518L82.8696 42.2411ZM107.143 0H12.8571C9.44722 0 6.17695 1.35459 3.76577 3.76577C1.35459 6.17695 0 9.44722 0 12.8571L0 107.143C0 110.553 1.35459 113.823 3.76577 116.234C6.17695 118.645 9.44722 120 12.8571 120H107.143C110.553 120 113.823 118.645 116.234 116.234C118.645 113.823 120 110.553 120 107.143V12.8571C120 9.44722 118.645 6.17695 116.234 3.76577C113.823 1.35459 110.553 0 107.143 0ZM102.557 77.6786C102.212 84.5437 100.645 90.6268 95.633 95.625C90.6214 100.623 84.5437 102.222 77.6866 102.549C70.6125 102.948 49.4036 102.948 42.3295 102.549C35.4643 102.204 29.4027 100.634 24.383 95.625C19.3634 90.6161 17.7857 84.5304 17.4589 77.6786C17.0598 70.6018 17.0598 49.3902 17.4589 42.3214C17.8045 35.4562 19.3527 29.3732 24.383 24.375C29.4134 19.3768 35.4911 17.7964 42.3295 17.4696C49.4036 17.0705 70.6125 17.0705 77.6866 17.4696C84.5518 17.8152 90.6321 19.3848 95.633 24.3937C100.634 29.4027 102.23 35.4884 102.557 42.3536C102.956 49.4036 102.956 70.5964 102.557 77.6786Z" fill="black"/>
</svg>
