<svg width="120" height="120" viewBox="0 0 120 120" fill="none" xmlns="http://www.w3.org/2000/svg">
<path d="M111.429 0H8.54464C3.83036 0 0 3.88393 0 8.65179V111.348C0 116.116 3.83036 120 8.54464 120H111.429C116.143 120 120 116.116 120 111.348V8.65179C120 3.88393 116.143 0 111.429 0ZM36.2679 102.857H18.4821V45.5893H36.2946V102.857H36.2679ZM27.375 37.7679C21.6696 37.7679 17.0625 33.1339 17.0625 27.4554C17.0625 21.7768 21.6696 17.1429 27.375 17.1429C33.0536 17.1429 37.6875 21.7768 37.6875 27.4554C37.6875 33.1607 33.0804 37.7679 27.375 37.7679ZM102.937 102.857H85.1518V75C85.1518 68.3571 85.0179 59.8125 75.9107 59.8125C66.6429 59.8125 65.2232 67.0446 65.2232 74.5179V102.857H47.4375V45.5893H64.5V53.4107H64.7411C67.125 48.9107 72.9375 44.1696 81.5893 44.1696C99.5893 44.1696 102.937 56.0357 102.937 71.4643V102.857Z" fill="black"/>
</svg>
