<svg width="421" height="200" viewBox="0 0 421 200" fill="none" xmlns="http://www.w3.org/2000/svg">
<path d="M25.0407 199.418C25.0407 199.418 -31.6973 108.826 27.5013 92.1769C86.6999 75.5278 30.5615 66.8647 29.9458 31.1061C29.3301 -4.65254 75.5534 -12.6088 115.186 23.2684C161.106 64.8465 192.263 -32.2314 241.599 17.1114C290.935 66.4542 252.579 111.302 342.62 91.568C432.661 71.8336 434.501 168.645 400.585 199.482L25.0407 199.418Z" fill="#C2DEFF"/>
<path d="M312.22 117.58H239.96C237.445 117.58 235.406 119.619 235.406 122.134V171.577C235.406 174.092 237.445 176.131 239.96 176.131H312.22C314.735 176.131 316.774 174.092 316.774 171.577V122.134C316.774 119.619 314.735 117.58 312.22 117.58Z" fill="#D6ABC8"/>
<path d="M316.774 168.038V171.577C316.774 172.787 316.294 173.947 315.438 174.802C314.583 175.658 313.423 176.138 312.213 176.138H239.96C238.75 176.138 237.59 175.658 236.735 174.802C235.879 173.947 235.399 172.787 235.399 171.577V168.038H316.774Z" fill="#9B5189"/>
<path d="M269.37 170.246H266.873C266.568 170.246 266.321 170.493 266.321 170.797V173.479C266.321 173.784 266.568 174.031 266.873 174.031H269.37C269.674 174.031 269.922 173.784 269.922 173.479V170.797C269.922 170.493 269.674 170.246 269.37 170.246Z" fill="#191E23"/>
<path d="M272.27 125.521H269.773C269.468 125.521 269.221 125.768 269.221 126.072V128.754C269.221 129.059 269.468 129.306 269.773 129.306H272.27C272.575 129.306 272.822 129.059 272.822 128.754V126.072C272.822 125.768 272.575 125.521 272.27 125.521Z" fill="#191E23"/>
<path d="M281.51 125.521H279.013C278.708 125.521 278.461 125.768 278.461 126.072V128.754C278.461 129.059 278.708 129.306 279.013 129.306H281.51C281.815 129.306 282.062 129.059 282.062 128.754V126.072C282.062 125.768 281.815 125.521 281.51 125.521Z" fill="#191E23"/>
<path d="M290.753 125.521H288.256C287.951 125.521 287.704 125.768 287.704 126.072V128.754C287.704 129.059 287.951 129.306 288.256 129.306H290.753C291.057 129.306 291.305 129.059 291.305 128.754V126.072C291.305 125.768 291.057 125.521 290.753 125.521Z" fill="#191E23"/>
<path d="M299.995 125.521H297.498C297.193 125.521 296.946 125.768 296.946 126.072V128.754C296.946 129.059 297.193 129.306 297.498 129.306H299.995C300.3 129.306 300.547 129.059 300.547 128.754V126.072C300.547 125.768 300.3 125.521 299.995 125.521Z" fill="#191E23"/>
<path d="M309.237 125.521H306.74C306.436 125.521 306.188 125.768 306.188 126.072V128.754C306.188 129.059 306.436 129.306 306.74 129.306H309.237C309.542 129.306 309.789 129.059 309.789 128.754V126.072C309.789 125.768 309.542 125.521 309.237 125.521Z" fill="#191E23"/>
<path d="M272.27 133.714H269.773C269.468 133.714 269.221 133.961 269.221 134.266V136.948C269.221 137.252 269.468 137.499 269.773 137.499H272.27C272.575 137.499 272.822 137.252 272.822 136.948V134.266C272.822 133.961 272.575 133.714 272.27 133.714Z" fill="#191E23"/>
<path d="M281.51 133.714H279.013C278.708 133.714 278.461 133.961 278.461 134.266V136.948C278.461 137.252 278.708 137.499 279.013 137.499H281.51C281.815 137.499 282.062 137.252 282.062 136.948V134.266C282.062 133.961 281.815 133.714 281.51 133.714Z" fill="#191E23"/>
<path d="M290.753 133.714H288.256C287.951 133.714 287.704 133.961 287.704 134.266V136.948C287.704 137.252 287.951 137.499 288.256 137.499H290.753C291.057 137.499 291.305 137.252 291.305 136.948V134.266C291.305 133.961 291.057 133.714 290.753 133.714Z" fill="#191E23"/>
<path d="M299.995 133.714H297.498C297.193 133.714 296.946 133.961 296.946 134.266V136.948C296.946 137.252 297.193 137.499 297.498 137.499H299.995C300.3 137.499 300.547 137.252 300.547 136.948V134.266C300.547 133.961 300.3 133.714 299.995 133.714Z" fill="#191E23"/>
<path d="M309.237 133.714H306.74C306.436 133.714 306.188 133.961 306.188 134.266V136.948C306.188 137.252 306.436 137.499 306.74 137.499H309.237C309.542 137.499 309.789 137.252 309.789 136.948V134.266C309.789 133.961 309.542 133.714 309.237 133.714Z" fill="#191E23"/>
<path d="M272.27 141.907H269.773C269.468 141.907 269.221 142.154 269.221 142.459V145.141C269.221 145.446 269.468 145.693 269.773 145.693H272.27C272.575 145.693 272.822 145.446 272.822 145.141V142.459C272.822 142.154 272.575 141.907 272.27 141.907Z" fill="#191E23"/>
<path d="M281.51 141.907H279.013C278.708 141.907 278.461 142.154 278.461 142.459V145.141C278.461 145.446 278.708 145.693 279.013 145.693H281.51C281.815 145.693 282.062 145.446 282.062 145.141V142.459C282.062 142.154 281.815 141.907 281.51 141.907Z" fill="#191E23"/>
<path d="M290.753 141.907H288.256C287.951 141.907 287.704 142.154 287.704 142.459V145.141C287.704 145.446 287.951 145.693 288.256 145.693H290.753C291.057 145.693 291.305 145.446 291.305 145.141V142.459C291.305 142.154 291.057 141.907 290.753 141.907Z" fill="#191E23"/>
<path d="M299.995 141.907H297.498C297.193 141.907 296.946 142.154 296.946 142.459V145.141C296.946 145.446 297.193 145.693 297.498 145.693H299.995C300.3 145.693 300.547 145.446 300.547 145.141V142.459C300.547 142.154 300.3 141.907 299.995 141.907Z" fill="#191E23"/>
<path d="M272.27 150.101H269.773C269.468 150.101 269.221 150.348 269.221 150.653V153.334C269.221 153.639 269.468 153.886 269.773 153.886H272.27C272.575 153.886 272.822 153.639 272.822 153.334V150.653C272.822 150.348 272.575 150.101 272.27 150.101Z" fill="#191E23"/>
<path d="M281.51 150.101H279.013C278.708 150.101 278.461 150.348 278.461 150.653V153.334C278.461 153.639 278.708 153.886 279.013 153.886H281.51C281.815 153.886 282.062 153.639 282.062 153.334V150.653C282.062 150.348 281.815 150.101 281.51 150.101Z" fill="#191E23"/>
<path d="M275.23 170.246H272.733C272.428 170.246 272.181 170.493 272.181 170.797V173.479C272.181 173.784 272.428 174.031 272.733 174.031H275.23C275.535 174.031 275.782 173.784 275.782 173.479V170.797C275.782 170.493 275.535 170.246 275.23 170.246Z" fill="#191E23"/>
<path d="M281.088 170.246H278.591C278.287 170.246 278.04 170.493 278.04 170.797V173.479C278.04 173.784 278.287 174.031 278.591 174.031H281.088C281.393 174.031 281.64 173.784 281.64 173.479V170.797C281.64 170.493 281.393 170.246 281.088 170.246Z" fill="#191E23"/>
<path d="M286.949 170.246H284.452C284.147 170.246 283.9 170.493 283.9 170.797V173.479C283.9 173.784 284.147 174.031 284.452 174.031H286.949C287.254 174.031 287.501 173.784 287.501 173.479V170.797C287.501 170.493 287.254 170.246 286.949 170.246Z" fill="#191E23"/>
<path d="M253.69 124.818H241.214C240.67 124.818 240.229 125.259 240.229 125.803V130.606C240.229 131.15 240.67 131.591 241.214 131.591H253.69C254.234 131.591 254.675 131.15 254.675 130.606V125.803C254.675 125.259 254.234 124.818 253.69 124.818Z" fill="#9B5189"/>
<path d="M265.083 134.031H241.214C240.67 134.031 240.229 134.472 240.229 135.016V145.157C240.229 145.701 240.67 146.142 241.214 146.142H265.083C265.627 146.142 266.068 145.701 266.068 145.157V135.016C266.068 134.472 265.627 134.031 265.083 134.031Z" fill="#C482B2"/>
<path d="M265.083 149.382H241.214C240.67 149.382 240.229 149.824 240.229 150.368V160.508C240.229 161.052 240.67 161.494 241.214 161.494H265.083C265.627 161.494 266.068 161.052 266.068 160.508V150.368C266.068 149.824 265.627 149.382 265.083 149.382Z" fill="#C482B2"/>
<path d="M311.645 118.942H305.19C304.913 118.942 304.688 119.166 304.688 119.443V121.024C304.688 121.301 304.913 121.525 305.19 121.525H311.645C311.922 121.525 312.147 121.301 312.147 121.024V119.443C312.147 119.166 311.922 118.942 311.645 118.942Z" fill="#191E23"/>
<path d="M314.906 165.283H299.949C299.813 165.283 299.703 165.394 299.703 165.53V166.307C299.703 166.443 299.813 166.554 299.949 166.554H314.906C315.042 166.554 315.153 166.443 315.153 166.307V165.53C315.153 165.394 315.042 165.283 314.906 165.283Z" fill="#9B5189"/>
<path d="M211.893 122.65V173.151C211.893 173.96 211.733 174.762 211.423 175.51C211.113 176.258 210.658 176.937 210.085 177.509C209.511 178.081 208.831 178.534 208.082 178.843C207.334 179.152 206.532 179.31 205.722 179.308H104.854C103.22 179.308 101.651 178.66 100.494 177.506C99.3368 176.352 98.6848 174.785 98.6812 173.151V122.65C98.6812 121.012 99.3315 119.442 100.489 118.285C101.647 117.127 103.217 116.477 104.854 116.477H205.722C206.533 116.477 207.335 116.636 208.084 116.947C208.833 117.257 209.513 117.711 210.086 118.285C210.659 118.858 211.114 119.538 211.424 120.287C211.734 121.036 211.893 121.839 211.893 122.65Z" fill="#D6ABC8"/>
<path d="M153.082 129.591H152.728V172.576H153.082V129.591Z" fill="#C482B2"/>
<path d="M211.893 171.735V173.151C211.893 173.961 211.733 174.762 211.423 175.51C211.113 176.258 210.658 176.937 210.085 177.509C209.511 178.081 208.831 178.535 208.082 178.843C207.334 179.152 206.532 179.31 205.722 179.308H104.854C103.22 179.309 101.651 178.661 100.494 177.506C99.3368 176.352 98.6848 174.785 98.6812 173.151V171.735H211.893Z" fill="#9B5189"/>
<path d="M136.745 136.231C136.745 136.457 136.678 136.677 136.553 136.865C136.428 137.052 136.25 137.199 136.041 137.285C135.833 137.371 135.604 137.394 135.383 137.35C135.161 137.306 134.958 137.197 134.799 137.038C134.639 136.878 134.531 136.675 134.487 136.454C134.443 136.233 134.465 136.004 134.552 135.795C134.638 135.587 134.784 135.409 134.972 135.283C135.159 135.158 135.38 135.091 135.605 135.091C135.907 135.091 136.197 135.211 136.411 135.425C136.625 135.639 136.745 135.929 136.745 136.231Z" fill="#191E23"/>
<path d="M142.48 135.299H137.598C137.58 135.299 137.566 135.313 137.566 135.331V135.94C137.566 135.957 137.58 135.972 137.598 135.972H142.48C142.498 135.972 142.512 135.957 142.512 135.94V135.331C142.512 135.313 142.498 135.299 142.48 135.299Z" fill="#191E23"/>
<path d="M139.317 136.548H137.573C137.555 136.548 137.541 136.563 137.541 136.58V137.189C137.541 137.207 137.555 137.221 137.573 137.221H139.317C139.335 137.221 139.349 137.207 139.349 137.189V136.58C139.349 136.563 139.335 136.548 139.317 136.548Z" fill="#191E23"/>
<path d="M150.922 135.864H149.178C149.16 135.864 149.146 135.879 149.146 135.896V136.505C149.146 136.523 149.16 136.537 149.178 136.537H150.922C150.94 136.537 150.954 136.523 150.954 136.505V135.896C150.954 135.879 150.94 135.864 150.922 135.864Z" fill="#191E23"/>
<path d="M136.745 141.1C136.745 141.326 136.678 141.546 136.553 141.734C136.428 141.921 136.25 142.067 136.041 142.154C135.833 142.24 135.604 142.262 135.383 142.218C135.161 142.174 134.958 142.066 134.799 141.906C134.639 141.747 134.531 141.544 134.487 141.323C134.443 141.101 134.465 140.872 134.552 140.664C134.638 140.455 134.784 140.277 134.972 140.152C135.159 140.027 135.38 139.96 135.605 139.96C135.907 139.96 136.197 140.08 136.411 140.294C136.625 140.508 136.745 140.798 136.745 141.1Z" fill="#191E23"/>
<path d="M142.48 140.167H137.598C137.58 140.167 137.566 140.182 137.566 140.199V140.808C137.566 140.826 137.58 140.84 137.598 140.84H142.48C142.498 140.84 142.512 140.826 142.512 140.808V140.199C142.512 140.182 142.498 140.167 142.48 140.167Z" fill="#191E23"/>
<path d="M139.317 141.419H137.573C137.555 141.419 137.541 141.434 137.541 141.451V142.06C137.541 142.078 137.555 142.092 137.573 142.092H139.317C139.335 142.092 139.349 142.078 139.349 142.06V141.451C139.349 141.434 139.335 141.419 139.317 141.419Z" fill="#191E23"/>
<path d="M150.922 140.735H149.178C149.16 140.735 149.146 140.75 149.146 140.767V141.376C149.146 141.394 149.16 141.408 149.178 141.408H150.922C150.94 141.408 150.954 141.394 150.954 141.376V140.767C150.954 140.75 150.94 140.735 150.922 140.735Z" fill="#191E23"/>
<path d="M136.745 145.971C136.745 146.197 136.678 146.417 136.553 146.604C136.428 146.792 136.25 146.938 136.041 147.024C135.833 147.111 135.604 147.133 135.383 147.089C135.161 147.045 134.958 146.937 134.799 146.777C134.639 146.618 134.531 146.415 134.487 146.193C134.443 145.972 134.465 145.743 134.552 145.535C134.638 145.326 134.784 145.148 134.972 145.023C135.159 144.898 135.38 144.831 135.605 144.831C135.907 144.831 136.197 144.951 136.411 145.165C136.625 145.379 136.745 145.669 136.745 145.971Z" fill="#191E23"/>
<path d="M142.48 145.038H137.598C137.58 145.038 137.566 145.053 137.566 145.07V145.679C137.566 145.697 137.58 145.711 137.598 145.711H142.48C142.498 145.711 142.512 145.697 142.512 145.679V145.07C142.512 145.053 142.498 145.038 142.48 145.038Z" fill="#191E23"/>
<path d="M139.317 146.288H137.573C137.555 146.288 137.541 146.302 137.541 146.32V146.929C137.541 146.946 137.555 146.961 137.573 146.961H139.317C139.335 146.961 139.349 146.946 139.349 146.929V146.32C139.349 146.302 139.335 146.288 139.317 146.288Z" fill="#191E23"/>
<path d="M156.847 144.954C156.847 145.179 156.78 145.4 156.655 145.587C156.529 145.775 156.351 145.921 156.143 146.007C155.935 146.094 155.705 146.116 155.484 146.072C155.263 146.028 155.06 145.92 154.9 145.76C154.741 145.601 154.632 145.398 154.588 145.176C154.544 144.955 154.567 144.726 154.653 144.518C154.739 144.309 154.886 144.131 155.073 144.006C155.261 143.881 155.481 143.814 155.707 143.814C156.009 143.814 156.299 143.934 156.513 144.148C156.727 144.362 156.847 144.652 156.847 144.954Z" fill="#191E23"/>
<path d="M162.589 144.021H157.706C157.689 144.021 157.674 144.036 157.674 144.053V144.662C157.674 144.68 157.689 144.694 157.706 144.694H162.589C162.606 144.694 162.62 144.68 162.62 144.662V144.053C162.62 144.036 162.606 144.021 162.589 144.021Z" fill="#191E23"/>
<path d="M159.426 145.273H157.681C157.664 145.273 157.649 145.287 157.649 145.305V145.914C157.649 145.932 157.664 145.946 157.681 145.946H159.426C159.443 145.946 159.458 145.932 159.458 145.914V145.305C159.458 145.287 159.443 145.273 159.426 145.273Z" fill="#191E23"/>
<path d="M156.847 153.337C156.847 153.562 156.78 153.783 156.655 153.97C156.529 154.158 156.351 154.304 156.143 154.39C155.935 154.476 155.705 154.499 155.484 154.455C155.263 154.411 155.06 154.302 154.9 154.143C154.741 153.983 154.632 153.78 154.588 153.559C154.544 153.338 154.567 153.109 154.653 152.9C154.739 152.692 154.886 152.514 155.073 152.389C155.261 152.263 155.481 152.196 155.707 152.196C156.009 152.196 156.299 152.317 156.513 152.53C156.727 152.744 156.847 153.034 156.847 153.337Z" fill="#191E23"/>
<path d="M162.589 152.404H157.706C157.689 152.404 157.674 152.418 157.674 152.436V153.045C157.674 153.062 157.689 153.077 157.706 153.077H162.589C162.606 153.077 162.62 153.062 162.62 153.045V152.436C162.62 152.418 162.606 152.404 162.589 152.404Z" fill="#191E23"/>
<path d="M159.426 153.654H157.681C157.664 153.654 157.649 153.668 157.649 153.685V154.294C157.649 154.312 157.664 154.326 157.681 154.326H159.426C159.443 154.326 159.458 154.312 159.458 154.294V153.685C159.458 153.668 159.443 153.654 159.426 153.654Z" fill="#191E23"/>
<path d="M150.922 145.604H149.178C149.16 145.604 149.146 145.618 149.146 145.636V146.245C149.146 146.262 149.16 146.277 149.178 146.277H150.922C150.94 146.277 150.954 146.262 150.954 146.245V145.636C150.954 145.618 150.94 145.604 150.922 145.604Z" fill="#191E23"/>
<path d="M136.745 150.846C136.745 151.072 136.678 151.292 136.553 151.48C136.428 151.667 136.25 151.814 136.041 151.9C135.833 151.986 135.604 152.009 135.383 151.965C135.161 151.921 134.958 151.812 134.799 151.653C134.639 151.493 134.531 151.29 134.487 151.069C134.443 150.848 134.465 150.618 134.552 150.41C134.638 150.202 134.784 150.024 134.972 149.898C135.159 149.773 135.38 149.706 135.605 149.706C135.907 149.706 136.197 149.826 136.411 150.04C136.625 150.254 136.745 150.544 136.745 150.846Z" fill="#191E23"/>
<path d="M142.48 149.907H137.598C137.58 149.907 137.566 149.921 137.566 149.939V150.548C137.566 150.565 137.58 150.58 137.598 150.58H142.48C142.498 150.58 142.512 150.565 142.512 150.548V149.939C142.512 149.921 142.498 149.907 142.48 149.907Z" fill="#191E23"/>
<path d="M139.317 151.159H137.573C137.555 151.159 137.541 151.173 137.541 151.191V151.8C137.541 151.817 137.555 151.832 137.573 151.832H139.317C139.335 151.832 139.349 151.817 139.349 151.8V151.191C139.349 151.173 139.335 151.159 139.317 151.159Z" fill="#191E23"/>
<path d="M150.922 150.475H149.178C149.16 150.475 149.146 150.489 149.146 150.507V151.116C149.146 151.133 149.16 151.147 149.178 151.147H150.922C150.94 151.147 150.954 151.133 150.954 151.116V150.507C150.954 150.489 150.94 150.475 150.922 150.475Z" fill="#191E23"/>
<path d="M136.745 155.711C136.745 155.936 136.678 156.156 136.553 156.344C136.428 156.531 136.25 156.678 136.041 156.764C135.833 156.85 135.604 156.873 135.383 156.829C135.161 156.785 134.958 156.676 134.799 156.517C134.639 156.357 134.531 156.154 134.487 155.933C134.443 155.712 134.465 155.483 134.552 155.274C134.638 155.066 134.784 154.888 134.972 154.762C135.159 154.637 135.38 154.57 135.605 154.57C135.907 154.57 136.197 154.69 136.411 154.904C136.625 155.118 136.745 155.408 136.745 155.711Z" fill="#191E23"/>
<path d="M142.48 154.778H137.598C137.58 154.778 137.566 154.792 137.566 154.81V155.419C137.566 155.436 137.58 155.451 137.598 155.451H142.48C142.498 155.451 142.512 155.436 142.512 155.419V154.81C142.512 154.792 142.498 154.778 142.48 154.778Z" fill="#191E23"/>
<path d="M139.317 156.027H137.573C137.555 156.027 137.541 156.042 137.541 156.059V156.668C137.541 156.686 137.555 156.7 137.573 156.7H139.317C139.335 156.7 139.349 156.686 139.349 156.668V156.059C139.349 156.042 139.335 156.027 139.317 156.027Z" fill="#191E23"/>
<path d="M150.922 155.343H149.178C149.16 155.343 149.146 155.358 149.146 155.375V155.984C149.146 156.002 149.16 156.016 149.178 156.016H150.922C150.94 156.016 150.954 156.002 150.954 155.984V155.375C150.954 155.358 150.94 155.343 150.922 155.343Z" fill="#191E23"/>
<path d="M143.839 136.035C144.077 136.035 144.27 135.842 144.27 135.604C144.27 135.366 144.077 135.173 143.839 135.173C143.601 135.173 143.408 135.366 143.408 135.604C143.408 135.842 143.601 136.035 143.839 136.035Z" fill="#191E23"/>
<path d="M108.012 175.725C108.015 175.997 107.937 176.262 107.788 176.489C107.64 176.716 107.427 176.893 107.177 176.999C106.927 177.105 106.652 177.134 106.386 177.083C106.119 177.031 105.874 176.902 105.681 176.711C105.489 176.521 105.357 176.277 105.303 176.011C105.249 175.745 105.276 175.469 105.379 175.219C105.482 174.968 105.657 174.753 105.882 174.602C106.108 174.451 106.373 174.371 106.644 174.371C106.823 174.369 107 174.403 107.166 174.471C107.332 174.538 107.483 174.637 107.61 174.763C107.737 174.889 107.838 175.039 107.907 175.204C107.976 175.369 108.012 175.546 108.012 175.725Z" fill="#191E23"/>
<path d="M112.325 174.455H109.93V176.85H112.325V174.455Z" fill="#191E23"/>
<path d="M116.548 174.455H114.153V176.85H116.548V174.455Z" fill="#191E23"/>
<path d="M120.771 174.455H118.377V176.85H120.771V174.455Z" fill="#191E23"/>
<path d="M124.994 174.455H122.6V176.85H124.994V174.455Z" fill="#191E23"/>
<path d="M129.218 174.455H126.823V176.85H129.218V174.455Z" fill="#191E23"/>
<path d="M133.441 174.455H131.046V176.85H133.441V174.455Z" fill="#191E23"/>
<path d="M137.664 174.455H135.27V176.85H137.664V174.455Z" fill="#191E23"/>
<path d="M141.887 174.455H139.493V176.85H141.887V174.455Z" fill="#191E23"/>
<path d="M146.111 174.455H143.716V176.85H146.111V174.455Z" fill="#191E23"/>
<path d="M150.334 174.455H147.939V176.85H150.334V174.455Z" fill="#191E23"/>
<path d="M205.033 174.46H201.622C201.604 174.46 201.59 174.474 201.59 174.492V175.094C201.59 175.111 201.604 175.126 201.622 175.126H205.033C205.051 175.126 205.065 175.111 205.065 175.094V174.492C205.065 174.474 205.051 174.46 205.033 174.46Z" fill="#191E23"/>
<path d="M205.686 176.277H200.981C200.964 176.277 200.949 176.292 200.949 176.309V176.911C200.949 176.929 200.964 176.943 200.981 176.943H205.686C205.703 176.943 205.717 176.929 205.717 176.911V176.309C205.717 176.292 205.703 176.277 205.686 176.277Z" fill="#191E23"/>
<path d="M199.223 175.627C199.22 175.814 199.161 175.995 199.055 176.149C198.949 176.302 198.8 176.421 198.626 176.489C198.452 176.558 198.262 176.573 198.08 176.534C197.898 176.495 197.731 176.402 197.601 176.268C197.471 176.134 197.384 175.965 197.35 175.781C197.317 175.598 197.338 175.408 197.412 175.237C197.486 175.066 197.609 174.92 197.766 174.819C197.923 174.717 198.106 174.665 198.293 174.667C198.417 174.669 198.539 174.695 198.653 174.745C198.767 174.794 198.871 174.865 198.957 174.954C199.043 175.043 199.111 175.149 199.157 175.264C199.203 175.38 199.225 175.503 199.223 175.627Z" fill="#191E23"/>
<path d="M195.096 175.627C195.092 175.814 195.034 175.996 194.928 176.149C194.821 176.302 194.672 176.421 194.498 176.489C194.324 176.558 194.134 176.573 193.952 176.534C193.769 176.494 193.603 176.402 193.473 176.267C193.343 176.133 193.256 175.963 193.223 175.78C193.189 175.596 193.211 175.407 193.286 175.235C193.36 175.064 193.483 174.919 193.64 174.818C193.797 174.716 193.981 174.664 194.167 174.667C194.291 174.669 194.414 174.695 194.528 174.745C194.642 174.794 194.745 174.865 194.831 174.954C194.917 175.044 194.985 175.149 195.03 175.264C195.076 175.38 195.098 175.503 195.096 175.627Z" fill="#191E23"/>
<path d="M190.97 175.627C190.967 175.814 190.909 175.996 190.802 176.149C190.696 176.302 190.546 176.421 190.373 176.489C190.199 176.558 190.009 176.573 189.827 176.534C189.644 176.494 189.477 176.402 189.348 176.267C189.218 176.133 189.131 175.963 189.097 175.78C189.064 175.596 189.086 175.407 189.16 175.235C189.235 175.064 189.358 174.919 189.515 174.818C189.672 174.716 189.856 174.664 190.042 174.667C190.166 174.669 190.289 174.696 190.402 174.745C190.516 174.795 190.619 174.866 190.705 174.955C190.791 175.044 190.859 175.149 190.905 175.265C190.95 175.38 190.972 175.503 190.97 175.627Z" fill="#191E23"/>
<path d="M186.845 175.627C186.842 175.814 186.783 175.995 186.677 176.149C186.571 176.302 186.422 176.421 186.248 176.489C186.075 176.558 185.885 176.573 185.702 176.534C185.52 176.495 185.353 176.402 185.223 176.268C185.093 176.134 185.006 175.965 184.972 175.781C184.939 175.598 184.96 175.408 185.034 175.237C185.108 175.066 185.232 174.92 185.388 174.819C185.545 174.717 185.728 174.665 185.915 174.667C186.039 174.669 186.161 174.695 186.275 174.745C186.389 174.794 186.493 174.865 186.579 174.954C186.665 175.043 186.733 175.149 186.779 175.264C186.825 175.38 186.847 175.503 186.845 175.627Z" fill="#191E23"/>
<path d="M191.581 124.408H121.191V126.706H191.581V124.408Z" fill="#C482B2"/>
<path d="M190.651 125.564C190.651 125.685 190.616 125.803 190.549 125.904C190.482 126.005 190.387 126.083 190.275 126.13C190.164 126.177 190.041 126.189 189.922 126.166C189.803 126.142 189.694 126.084 189.609 125.999C189.523 125.914 189.464 125.805 189.441 125.686C189.417 125.568 189.429 125.445 189.475 125.333C189.521 125.221 189.6 125.125 189.7 125.058C189.801 124.991 189.919 124.955 190.04 124.955C190.12 124.955 190.199 124.97 190.274 125.001C190.348 125.031 190.415 125.076 190.472 125.133C190.529 125.189 190.574 125.256 190.604 125.33C190.635 125.404 190.651 125.484 190.651 125.564Z" fill="#191E23"/>
<path d="M188.562 125.564C188.563 125.685 188.527 125.803 188.46 125.904C188.393 126.005 188.298 126.083 188.186 126.13C188.075 126.177 187.952 126.189 187.833 126.166C187.714 126.142 187.605 126.084 187.52 125.999C187.434 125.914 187.376 125.805 187.352 125.686C187.328 125.568 187.34 125.445 187.386 125.333C187.432 125.221 187.511 125.125 187.611 125.058C187.712 124.991 187.83 124.955 187.951 124.955C188.031 124.955 188.111 124.97 188.185 125.001C188.259 125.031 188.326 125.076 188.383 125.133C188.44 125.189 188.485 125.256 188.516 125.33C188.546 125.404 188.562 125.484 188.562 125.564Z" fill="#191E23"/>
<path d="M132.415 125.247H122.133C122.115 125.247 122.101 125.261 122.101 125.279V125.899C122.101 125.917 122.115 125.931 122.133 125.931H132.415C132.432 125.931 132.447 125.917 132.447 125.899V125.279C132.447 125.261 132.432 125.247 132.415 125.247Z" fill="#191E23"/>
<path d="M116.974 120.39H104.53C104.494 120.39 104.464 120.419 104.464 120.456V121.678C104.464 121.715 104.494 121.744 104.53 121.744H116.974C117.011 121.744 117.04 121.715 117.04 121.678V120.456C117.04 120.419 117.011 120.39 116.974 120.39Z" fill="#191E23"/>
<path d="M133.199 129.491H105.367V169.993H133.199V129.491Z" fill="#C482B2"/>
<path d="M159.465 131.976H154.496V136.945H159.465V131.976Z" fill="#191E23"/>
<path d="M164.702 133.417H160.639C160.607 133.417 160.582 133.443 160.582 133.474V134.537C160.582 134.569 160.607 134.594 160.639 134.594H164.702C164.734 134.594 164.759 134.569 164.759 134.537V133.474C164.759 133.443 164.734 133.417 164.702 133.417Z" fill="#191E23"/>
<path d="M167.909 133.417H165.197C165.166 133.417 165.14 133.443 165.14 133.474V134.537C165.14 134.569 165.166 134.594 165.197 134.594H167.909C167.94 134.594 167.966 134.569 167.966 134.537V133.474C167.966 133.443 167.94 133.417 167.909 133.417Z" fill="#191E23"/>
<path d="M163.802 135.271H160.707C160.692 135.271 160.68 135.284 160.68 135.299V135.821C160.68 135.836 160.692 135.848 160.707 135.848H163.802C163.817 135.848 163.829 135.836 163.829 135.821V135.299C163.829 135.284 163.817 135.271 163.802 135.271Z" fill="#191E23"/>
<path d="M188.425 139.638H181.413V141.547H188.425V139.638Z" fill="#191E23"/>
<path d="M161.359 140.076H154.461C154.43 140.076 154.404 140.102 154.404 140.133V141.223C154.404 141.255 154.43 141.28 154.461 141.28H161.359C161.391 141.28 161.416 141.255 161.416 141.223V140.133C161.416 140.102 161.391 140.076 161.359 140.076Z" fill="#191E23"/>
<path d="M167.487 148.947H154.783C154.76 148.947 154.742 148.965 154.742 148.988V149.745C154.742 149.768 154.76 149.786 154.783 149.786H167.487C167.51 149.786 167.528 149.768 167.528 149.745V148.988C167.528 148.965 167.51 148.947 167.487 148.947Z" fill="#191E23"/>
<path d="M162.958 157.206H154.651C154.614 157.206 154.584 157.236 154.584 157.273V158.518C154.584 158.554 154.614 158.584 154.651 158.584H162.958C162.995 158.584 163.024 158.554 163.024 158.518V157.273C163.024 157.236 162.995 157.206 162.958 157.206Z" fill="#191E23"/>
<path d="M181.479 157.206H173.172C173.135 157.206 173.106 157.236 173.106 157.273V158.518C173.106 158.554 173.135 158.584 173.172 158.584H181.479C181.516 158.584 181.545 158.554 181.545 158.518V157.273C181.545 157.236 181.516 157.206 181.479 157.206Z" fill="#191E23"/>
<path d="M161.553 160.543H154.648C154.63 160.543 154.614 160.558 154.614 160.577V161.218C154.614 161.236 154.63 161.252 154.648 161.252H161.553C161.572 161.252 161.588 161.236 161.588 161.218V160.577C161.588 160.558 161.572 160.543 161.553 160.543Z" fill="#191E23"/>
<path d="M161.553 161.74H154.648C154.63 161.74 154.614 161.755 154.614 161.774V162.415C154.614 162.434 154.63 162.449 154.648 162.449H161.553C161.572 162.449 161.588 162.434 161.588 162.415V161.774C161.588 161.755 161.572 161.74 161.553 161.74Z" fill="#191E23"/>
<path d="M161.553 163.931H154.648C154.63 163.931 154.614 163.946 154.614 163.965V164.606C154.614 164.625 154.63 164.64 154.648 164.64H161.553C161.572 164.64 161.588 164.625 161.588 164.606V163.965C161.588 163.946 161.572 163.931 161.553 163.931Z" fill="#191E23"/>
<path d="M161.553 165.126H154.648C154.63 165.126 154.614 165.142 154.614 165.16V165.801C154.614 165.82 154.63 165.835 154.648 165.835H161.553C161.572 165.835 161.588 165.82 161.588 165.801V165.16C161.588 165.142 161.572 165.126 161.553 165.126Z" fill="#191E23"/>
<path d="M161.553 167.318H154.648C154.63 167.318 154.614 167.333 154.614 167.352V167.993C154.614 168.012 154.63 168.027 154.648 168.027H161.553C161.572 168.027 161.588 168.012 161.588 167.993V167.352C161.588 167.333 161.572 167.318 161.553 167.318Z" fill="#191E23"/>
<path d="M161.553 168.515H154.648C154.63 168.515 154.614 168.53 154.614 168.549V169.19C154.614 169.209 154.63 169.224 154.648 169.224H161.553C161.572 169.224 161.588 169.209 161.588 169.19V168.549C161.588 168.53 161.572 168.515 161.553 168.515Z" fill="#191E23"/>
<path d="M161.553 170.706H154.648C154.63 170.706 154.614 170.721 154.614 170.74V171.381C154.614 171.4 154.63 171.415 154.648 171.415H161.553C161.572 171.415 161.588 171.4 161.588 171.381V170.74C161.588 170.721 161.572 170.706 161.553 170.706Z" fill="#191E23"/>
<path d="M188.213 160.543H174.289C174.27 160.543 174.255 160.558 174.255 160.577V161.218C174.255 161.236 174.27 161.252 174.289 161.252H188.213C188.232 161.252 188.248 161.236 188.248 161.218V160.577C188.248 160.558 188.232 160.543 188.213 160.543Z" fill="#191E23"/>
<path d="M188.213 161.74H174.289C174.27 161.74 174.255 161.755 174.255 161.774V162.415C174.255 162.434 174.27 162.449 174.289 162.449H188.213C188.232 162.449 188.248 162.434 188.248 162.415V161.774C188.248 161.755 188.232 161.74 188.213 161.74Z" fill="#191E23"/>
<path d="M188.213 163.931H174.289C174.27 163.931 174.255 163.946 174.255 163.965V164.606C174.255 164.625 174.27 164.64 174.289 164.64H188.213C188.232 164.64 188.248 164.625 188.248 164.606V163.965C188.248 163.946 188.232 163.931 188.213 163.931Z" fill="#191E23"/>
<path d="M188.213 165.126H174.289C174.27 165.126 174.255 165.142 174.255 165.16V165.801C174.255 165.82 174.27 165.835 174.289 165.835H188.213C188.232 165.835 188.248 165.82 188.248 165.801V165.16C188.248 165.142 188.232 165.126 188.213 165.126Z" fill="#191E23"/>
<path d="M188.213 167.318H174.289C174.27 167.318 174.255 167.333 174.255 167.352V167.993C174.255 168.012 174.27 168.027 174.289 168.027H188.213C188.232 168.027 188.248 168.012 188.248 167.993V167.352C188.248 167.333 188.232 167.318 188.213 167.318Z" fill="#191E23"/>
<path d="M188.213 168.515H174.289C174.27 168.515 174.255 168.53 174.255 168.549V169.19C174.255 169.209 174.27 169.224 174.289 169.224H188.213C188.232 169.224 188.248 169.209 188.248 169.19V168.549C188.248 168.53 188.232 168.515 188.213 168.515Z" fill="#191E23"/>
<path d="M188.213 170.706H174.289C174.27 170.706 174.255 170.721 174.255 170.74V171.381C174.255 171.4 174.27 171.415 174.289 171.415H188.213C188.232 171.415 188.248 171.4 188.248 171.381V170.74C188.248 170.721 188.232 170.706 188.213 170.706Z" fill="#191E23"/>
<path d="M173.806 160.944C173.806 161.025 173.782 161.104 173.737 161.172C173.692 161.239 173.627 161.292 173.552 161.323C173.477 161.354 173.395 161.362 173.315 161.347C173.236 161.331 173.162 161.292 173.105 161.234C173.048 161.177 173.009 161.104 172.993 161.024C172.977 160.944 172.985 160.862 173.016 160.787C173.047 160.712 173.1 160.648 173.167 160.603C173.235 160.558 173.314 160.533 173.395 160.533C173.449 160.533 173.503 160.544 173.553 160.564C173.603 160.585 173.648 160.615 173.686 160.653C173.724 160.691 173.755 160.737 173.775 160.786C173.796 160.836 173.806 160.89 173.806 160.944Z" fill="#191E23"/>
<path d="M173.806 164.301C173.806 164.382 173.782 164.461 173.737 164.529C173.692 164.596 173.627 164.649 173.552 164.68C173.477 164.711 173.395 164.719 173.315 164.703C173.236 164.687 173.162 164.648 173.105 164.591C173.048 164.533 173.009 164.46 172.993 164.381C172.977 164.301 172.985 164.219 173.016 164.144C173.047 164.069 173.1 164.004 173.167 163.959C173.235 163.914 173.314 163.89 173.395 163.89C173.449 163.89 173.503 163.9 173.553 163.921C173.603 163.941 173.648 163.972 173.686 164.01C173.724 164.048 173.755 164.093 173.775 164.143C173.796 164.193 173.806 164.247 173.806 164.301Z" fill="#191E23"/>
<path d="M173.806 167.673C173.806 167.754 173.782 167.834 173.737 167.901C173.692 167.969 173.627 168.021 173.552 168.053C173.477 168.084 173.395 168.092 173.315 168.076C173.236 168.06 173.162 168.021 173.105 167.964C173.048 167.906 173.009 167.833 172.993 167.753C172.977 167.674 172.985 167.591 173.016 167.516C173.047 167.441 173.1 167.377 173.167 167.332C173.235 167.287 173.314 167.263 173.395 167.263C173.504 167.263 173.609 167.306 173.686 167.383C173.763 167.46 173.806 167.564 173.806 167.673Z" fill="#191E23"/>
<path d="M173.806 171.037C173.806 171.118 173.782 171.197 173.737 171.265C173.692 171.332 173.627 171.385 173.552 171.416C173.477 171.447 173.395 171.455 173.315 171.439C173.236 171.424 173.162 171.385 173.105 171.327C173.048 171.27 173.009 171.197 172.993 171.117C172.977 171.037 172.985 170.955 173.016 170.88C173.047 170.805 173.1 170.741 173.167 170.696C173.235 170.651 173.314 170.626 173.395 170.626C173.504 170.626 173.609 170.67 173.686 170.747C173.763 170.824 173.806 170.928 173.806 171.037Z" fill="#191E23"/>
<path d="M114.154 131.386H106.986C106.776 131.386 106.605 131.556 106.605 131.767V138.934C106.605 139.144 106.776 139.315 106.986 139.315H114.154C114.364 139.315 114.534 139.144 114.534 138.934V131.767C114.534 131.556 114.364 131.386 114.154 131.386Z" fill="#191E23"/>
<path d="M131.129 131.354H116.347V167.967H131.129V131.354Z" fill="#9B5189"/>
<path d="M364.388 98.806C364.388 101.204 363.538 103.524 361.988 105.353C360.438 107.183 358.289 108.403 355.924 108.796C355.376 108.889 354.821 108.936 354.266 108.935C352.262 108.935 350.304 108.341 348.638 107.228C346.972 106.115 345.674 104.533 344.907 102.682C344.141 100.831 343.94 98.7947 344.331 96.8298C344.722 94.8649 345.686 93.06 347.103 91.6434C348.52 90.2267 350.325 89.262 352.29 88.8712C354.254 88.4803 356.291 88.6809 358.142 89.4476C359.993 90.2143 361.575 91.5126 362.688 93.1783C363.801 94.8441 364.395 96.8025 364.395 98.806H364.388Z" fill="#191E23"/>
<path d="M355.924 108.796C355.376 108.889 354.821 108.936 354.266 108.935C352.516 108.935 350.797 108.481 349.275 107.619C347.753 106.757 346.48 105.515 345.58 104.015C344.68 102.515 344.184 100.807 344.139 99.0585C344.095 97.3097 344.504 95.5792 345.327 94.0354C347.963 95.4561 353.769 99.5562 355.924 108.796Z" fill="#BF2211"/>
<path d="M176.422 167.404L173.726 197.587H157.187L154.493 167.404H176.422Z" fill="#D63A21"/>
<path d="M157.882 170.647L173.726 197.587H157.187L154.493 167.404H175.671L157.882 170.647Z" fill="#BF2211"/>
<path d="M176.467 162.862V159.635H153.939V162.862H152.876V168.104H177.863V162.862H176.467Z" fill="#191E23"/>
<path d="M172.125 171.559H158.972C158.774 171.559 158.614 171.719 158.614 171.917V172.889C158.614 173.086 158.774 173.247 158.972 173.247H172.125C172.323 173.247 172.483 173.086 172.483 172.889V171.917C172.483 171.719 172.323 171.559 172.125 171.559Z" fill="#191E23"/>
<path d="M168.938 183.123C170.783 181.278 170.783 178.287 168.938 176.441C167.093 174.596 164.101 174.596 162.256 176.441C160.411 178.287 160.411 181.278 162.256 183.123C164.101 184.969 167.093 184.969 168.938 183.123Z" fill="#191E23"/>
<path d="M266.214 169.368L263.521 199.553H246.981L244.288 169.368H266.214Z" fill="#D63A21"/>
<path d="M247.677 172.61L263.521 199.553H246.981L244.288 169.368H265.466L247.677 172.61Z" fill="#BF2211"/>
<path d="M266.259 164.827V161.598H243.731V164.827H242.671V170.07H267.655V164.827H266.259Z" fill="#191E23"/>
<path d="M261.917 173.522H248.764C248.566 173.522 248.406 173.683 248.406 173.88V174.852C248.406 175.05 248.566 175.21 248.764 175.21H261.917C262.115 175.21 262.275 175.05 262.275 174.852V173.88C262.275 173.683 262.115 173.522 261.917 173.522Z" fill="#191E23"/>
<path d="M259.982 182.819C260.581 180.279 259.009 177.734 256.469 177.135C253.929 176.535 251.384 178.108 250.785 180.648C250.185 183.188 251.758 185.732 254.298 186.332C256.838 186.931 259.383 185.358 259.982 182.819Z" fill="#191E23"/>
<path d="M166.88 179.52C166.881 179.623 166.846 179.724 166.782 179.805C165.904 180.945 159.394 179.741 159.394 179.741L159.442 179.769C159.916 180.042 163.745 182.32 165.555 184.557C165.696 184.735 165.786 184.948 165.816 185.172C165.846 185.397 165.815 185.626 165.726 185.834C165.67 185.979 165.586 186.112 165.48 186.227C165.359 186.357 165.212 186.461 165.049 186.532C164.886 186.603 164.71 186.641 164.532 186.642C164.335 186.643 164.142 186.598 163.966 186.512C162.534 185.802 160.089 184.756 158.073 184.66L156.092 185.613C156.092 185.613 159.98 187.084 160.933 187.741C161.489 188.128 162.221 189.109 162.732 189.868C162.875 190.075 162.941 190.325 162.918 190.575C162.896 190.825 162.786 191.059 162.609 191.237C162.468 191.377 162.287 191.472 162.092 191.508C161.407 191.636 160.477 191.508 159.319 190.596C159.319 190.596 158.219 190.596 156.092 189.864C156.092 189.864 151.1 194.338 144.348 195.658H133.336L135.828 185.093C135.828 185.093 152.049 174.672 153.955 174.375C155.862 174.079 161.517 175.992 161.517 175.992C161.517 175.992 166.88 177.905 166.88 179.52Z" fill="#FFAD95"/>
<path d="M166.778 179.807C165.9 180.947 159.389 179.743 159.389 179.743C159.389 179.743 158.188 179.173 157.202 179.451C156.256 179.721 146.697 183.577 146.056 183.83C146.665 183.492 156.475 178.095 157.111 178.047C157.672 178.006 164.705 179.39 166.778 179.807Z" fill="#CD634B"/>
<path d="M165.476 186.224C165.354 186.354 165.207 186.458 165.044 186.53C164.881 186.601 164.705 186.638 164.527 186.639C164.331 186.64 164.137 186.596 163.961 186.509C162.529 185.8 160.085 184.753 158.069 184.658L156.087 185.611L153.552 186.751C153.552 186.751 157.396 183.558 158.112 183.246C158.769 182.956 162.755 184.124 165.476 186.224Z" fill="#CD634B"/>
<path d="M162.605 191.232C162.463 191.372 162.283 191.467 162.087 191.503C161.403 191.631 160.473 191.503 159.314 190.591C159.314 190.591 158.215 190.591 156.087 189.859C156.087 189.859 151.096 194.333 144.343 195.654H134.043C134.355 194.904 134.927 194.292 135.653 193.93H144.546C144.546 193.93 149.791 191.971 151.228 191.066C152.665 190.16 155.989 188.297 155.989 188.297C157.647 188.981 160.055 189.38 160.055 189.38C160.66 190.156 161.864 190.851 162.605 191.232Z" fill="#CD634B"/>
<path d="M81.4049 131.737C79.4621 132.825 76.8442 133.303 73.3392 132.955C73.3164 132.955 73.2959 132.955 73.2754 132.955L71.6791 139.424L59.6114 132.902L47.7739 126.517L47.9039 125.461H52.1545V118.294C51.6793 117.491 51.4611 116.561 51.5292 115.63C51.5972 114.699 51.9483 113.811 52.5354 113.086C54.5877 110.408 58.3686 112.365 59.7527 113.371C59.7527 113.371 63.431 112.703 64.1949 115.713H67.6839V98.2563L79.1542 95.4332C79.1542 95.4332 93.3883 125.078 81.4049 131.737Z" fill="#FFAD95"/>
<path d="M81.4049 131.737C79.462 132.825 76.8441 133.304 73.3391 132.955C70.7099 132.227 67.9871 130.756 65.4126 128.113C65.1782 127.691 64.8248 127.347 64.3963 127.125C63.9678 126.902 63.4833 126.811 63.0032 126.862C62.5231 126.913 62.0687 127.104 61.6967 127.412C61.3246 127.72 61.0514 128.13 60.9111 128.592L59.6067 132.895L47.7693 126.51L47.8993 125.454H52.1544V118.287C51.6792 117.484 51.461 116.554 51.5291 115.623C51.5972 114.692 51.9482 113.805 52.5353 113.079C54.5876 110.402 58.3685 112.358 59.7527 113.364C59.7527 113.364 63.4309 112.696 64.1948 115.706H67.6838V98.2563C67.6838 98.2563 67.9483 129.244 81.4049 131.737Z" fill="#CD634B"/>
<path d="M210.264 143.294H209.58C209.252 143.294 208.932 143.396 208.665 143.587C208.398 143.778 208.197 144.048 208.091 144.359L192.801 189.312C192.721 189.548 192.698 189.801 192.734 190.048C192.771 190.295 192.866 190.53 193.012 190.733C193.157 190.937 193.349 191.102 193.572 191.216C193.794 191.33 194.04 191.39 194.29 191.389L210.264 143.294Z" fill="#191E23"/>
<path d="M148.245 194.351H188.608C188.729 194.351 188.845 194.399 188.93 194.485C189.016 194.571 189.064 194.687 189.064 194.808V195.425H147.791V194.808C147.791 194.687 147.839 194.571 147.924 194.486C148.009 194.4 148.125 194.352 148.245 194.351Z" fill="#FFF2FA"/>
<path d="M189.848 194.361H190.874C190.974 194.361 191.07 194.4 191.14 194.471C191.211 194.541 191.251 194.637 191.251 194.737V195.59H189.47V194.737C189.47 194.687 189.48 194.638 189.499 194.592C189.518 194.547 189.546 194.505 189.581 194.47C189.616 194.435 189.658 194.407 189.704 194.389C189.749 194.37 189.799 194.36 189.848 194.361Z" fill="#FFF2FA"/>
<path d="M211.738 141.121C211.38 141 210.989 141.026 210.651 141.193C210.313 141.36 210.055 141.655 209.934 142.012L192.008 195.188H137.947C136.869 195.188 135.836 195.616 135.074 196.379C134.311 197.141 133.883 198.174 133.883 199.252H192.53V198.871L193.643 199.245L212.629 142.92C212.749 142.563 212.723 142.173 212.556 141.836C212.389 141.498 212.094 141.241 211.738 141.121Z" fill="#C482B2"/>
<path d="M191.704 197.197C191.705 197.361 191.657 197.522 191.566 197.658C191.475 197.794 191.346 197.901 191.195 197.964C191.044 198.027 190.877 198.044 190.717 198.012C190.556 197.98 190.408 197.902 190.292 197.786C190.176 197.67 190.097 197.523 190.065 197.362C190.033 197.201 190.049 197.035 190.112 196.883C190.174 196.732 190.28 196.603 190.416 196.512C190.553 196.421 190.713 196.372 190.877 196.372C190.985 196.372 191.093 196.393 191.193 196.434C191.294 196.475 191.385 196.536 191.462 196.613C191.539 196.69 191.6 196.781 191.641 196.881C191.683 196.981 191.704 197.089 191.704 197.197Z" fill="#191E23"/>
<path d="M188.724 196.561H184.733C184.585 196.561 184.464 196.682 184.464 196.83V197.56C184.464 197.709 184.585 197.829 184.733 197.829H188.724C188.873 197.829 188.993 197.709 188.993 197.56V196.83C188.993 196.682 188.873 196.561 188.724 196.561Z" fill="#191E23"/>
<path d="M142.656 196.561H138.665C138.516 196.561 138.396 196.682 138.396 196.83V197.56C138.396 197.709 138.516 197.829 138.665 197.829H142.656C142.804 197.829 142.925 197.709 142.925 197.56V196.83C142.925 196.682 142.804 196.561 142.656 196.561Z" fill="#191E23"/>
<path d="M148.229 196.561H144.239C144.09 196.561 143.969 196.682 143.969 196.83V197.56C143.969 197.709 144.09 197.829 144.239 197.829H148.229C148.378 197.829 148.498 197.709 148.498 197.56V196.83C148.498 196.682 148.378 196.561 148.229 196.561Z" fill="#191E23"/>
<path d="M153.606 196.454H153.2V199.33H153.606V196.454Z" fill="#191E23"/>
<path d="M181.315 196.454H180.909V199.33H181.315V196.454Z" fill="#191E23"/>
<path d="M155.868 198.805C155.868 198.967 155.82 199.124 155.731 199.259C155.641 199.393 155.513 199.498 155.364 199.559C155.215 199.621 155.05 199.637 154.892 199.605C154.733 199.574 154.588 199.496 154.474 199.381C154.36 199.267 154.282 199.121 154.251 198.963C154.22 198.804 154.236 198.64 154.298 198.491C154.361 198.342 154.466 198.215 154.6 198.125C154.735 198.036 154.893 197.988 155.054 197.989C155.161 197.989 155.267 198.01 155.366 198.051C155.465 198.092 155.555 198.152 155.631 198.228C155.706 198.304 155.766 198.394 155.807 198.493C155.848 198.592 155.869 198.698 155.868 198.805Z" fill="#191E23"/>
<path d="M158.09 198.805C158.09 198.966 158.042 199.124 157.952 199.259C157.862 199.393 157.735 199.497 157.586 199.559C157.436 199.621 157.272 199.637 157.114 199.606C156.956 199.574 156.81 199.496 156.696 199.382C156.582 199.268 156.504 199.123 156.472 198.964C156.441 198.806 156.457 198.642 156.519 198.493C156.581 198.343 156.685 198.216 156.82 198.126C156.954 198.037 157.112 197.989 157.273 197.989C157.49 197.989 157.697 198.075 157.85 198.228C158.004 198.381 158.09 198.589 158.09 198.805Z" fill="#191E23"/>
<path d="M160.308 198.805C160.308 198.967 160.26 199.124 160.171 199.259C160.081 199.393 159.953 199.498 159.804 199.559C159.655 199.621 159.49 199.637 159.332 199.605C159.173 199.574 159.028 199.496 158.914 199.381C158.8 199.267 158.722 199.121 158.691 198.963C158.66 198.804 158.676 198.64 158.738 198.491C158.8 198.342 158.905 198.215 159.04 198.125C159.175 198.036 159.333 197.988 159.494 197.989C159.601 197.989 159.707 198.01 159.806 198.051C159.905 198.092 159.995 198.152 160.071 198.228C160.146 198.304 160.206 198.394 160.247 198.493C160.288 198.592 160.309 198.698 160.308 198.805Z" fill="#191E23"/>
<path d="M162.527 198.805C162.527 198.967 162.479 199.124 162.389 199.259C162.3 199.393 162.172 199.498 162.023 199.559C161.873 199.621 161.709 199.637 161.551 199.605C161.392 199.574 161.247 199.496 161.133 199.381C161.019 199.267 160.941 199.121 160.91 198.963C160.878 198.804 160.895 198.64 160.957 198.491C161.019 198.342 161.124 198.215 161.259 198.125C161.393 198.036 161.551 197.988 161.713 197.989C161.82 197.989 161.926 198.01 162.025 198.051C162.124 198.092 162.214 198.152 162.289 198.228C162.365 198.304 162.425 198.394 162.466 198.493C162.507 198.592 162.527 198.698 162.527 198.805Z" fill="#191E23"/>
<path d="M164.748 198.805C164.748 198.966 164.7 199.124 164.611 199.259C164.521 199.393 164.393 199.497 164.244 199.559C164.095 199.621 163.931 199.637 163.773 199.606C163.614 199.574 163.469 199.496 163.355 199.382C163.24 199.268 163.163 199.123 163.131 198.964C163.1 198.806 163.116 198.642 163.178 198.493C163.239 198.343 163.344 198.216 163.478 198.126C163.613 198.037 163.77 197.989 163.932 197.989C164.148 197.989 164.356 198.075 164.509 198.228C164.662 198.381 164.748 198.589 164.748 198.805Z" fill="#191E23"/>
<path d="M166.967 198.805C166.967 198.967 166.919 199.124 166.829 199.259C166.739 199.393 166.612 199.498 166.462 199.559C166.313 199.621 166.149 199.637 165.99 199.605C165.832 199.574 165.687 199.496 165.573 199.381C165.458 199.267 165.381 199.121 165.35 198.963C165.318 198.804 165.335 198.64 165.397 198.491C165.459 198.342 165.564 198.215 165.699 198.125C165.833 198.036 165.991 197.988 166.153 197.989C166.26 197.989 166.366 198.01 166.465 198.051C166.564 198.092 166.654 198.152 166.729 198.228C166.805 198.304 166.865 198.394 166.906 198.493C166.946 198.592 166.967 198.698 166.967 198.805Z" fill="#191E23"/>
<path d="M169.188 198.805C169.188 198.966 169.14 199.124 169.05 199.259C168.961 199.393 168.833 199.497 168.684 199.559C168.535 199.621 168.371 199.637 168.212 199.606C168.054 199.574 167.908 199.496 167.794 199.382C167.68 199.268 167.602 199.123 167.571 198.964C167.539 198.806 167.556 198.642 167.617 198.493C167.679 198.343 167.784 198.216 167.918 198.126C168.052 198.037 168.21 197.989 168.372 197.989C168.588 197.989 168.796 198.075 168.949 198.228C169.102 198.381 169.188 198.589 169.188 198.805Z" fill="#191E23"/>
<path d="M171.407 198.805C171.407 198.966 171.359 199.124 171.269 199.259C171.18 199.393 171.052 199.497 170.903 199.559C170.754 199.621 170.59 199.637 170.431 199.606C170.273 199.574 170.127 199.496 170.013 199.382C169.899 199.268 169.821 199.123 169.79 198.964C169.758 198.806 169.775 198.642 169.836 198.493C169.898 198.343 170.003 198.216 170.137 198.126C170.271 198.037 170.429 197.989 170.591 197.989C170.807 197.989 171.015 198.075 171.168 198.228C171.321 198.381 171.407 198.589 171.407 198.805Z" fill="#191E23"/>
<path d="M173.626 198.805C173.626 198.967 173.578 199.124 173.488 199.259C173.398 199.393 173.271 199.498 173.121 199.559C172.972 199.621 172.808 199.637 172.649 199.605C172.491 199.574 172.345 199.496 172.231 199.381C172.117 199.267 172.04 199.121 172.008 198.963C171.977 198.804 171.994 198.64 172.056 198.491C172.118 198.342 172.223 198.215 172.357 198.125C172.492 198.036 172.65 197.988 172.812 197.989C172.919 197.989 173.025 198.01 173.124 198.051C173.223 198.092 173.312 198.152 173.388 198.228C173.464 198.304 173.524 198.394 173.564 198.493C173.605 198.592 173.626 198.698 173.626 198.805Z" fill="#191E23"/>
<path d="M175.847 198.805C175.847 198.966 175.799 199.124 175.709 199.259C175.62 199.393 175.492 199.497 175.343 199.559C175.194 199.621 175.03 199.637 174.871 199.606C174.713 199.574 174.567 199.496 174.453 199.382C174.339 199.268 174.261 199.123 174.23 198.964C174.198 198.806 174.214 198.642 174.276 198.493C174.338 198.343 174.443 198.216 174.577 198.126C174.711 198.037 174.869 197.989 175.03 197.989C175.247 197.989 175.455 198.075 175.608 198.228C175.761 198.381 175.847 198.589 175.847 198.805Z" fill="#191E23"/>
<path d="M178.066 198.805C178.066 198.966 178.018 199.124 177.928 199.259C177.838 199.393 177.711 199.497 177.562 199.559C177.412 199.621 177.248 199.637 177.09 199.606C176.932 199.574 176.786 199.496 176.672 199.382C176.558 199.268 176.48 199.123 176.449 198.964C176.417 198.806 176.433 198.642 176.495 198.493C176.557 198.343 176.661 198.216 176.796 198.126C176.93 198.037 177.088 197.989 177.249 197.989C177.466 197.989 177.673 198.075 177.826 198.228C177.98 198.381 178.066 198.589 178.066 198.805Z" fill="#191E23"/>
<path d="M180.284 198.805C180.284 198.967 180.236 199.124 180.147 199.259C180.057 199.393 179.929 199.498 179.78 199.559C179.631 199.621 179.466 199.637 179.308 199.605C179.149 199.574 179.004 199.496 178.89 199.381C178.776 199.267 178.698 199.121 178.667 198.963C178.636 198.804 178.652 198.64 178.714 198.491C178.777 198.342 178.882 198.215 179.016 198.125C179.151 198.036 179.309 197.988 179.47 197.989C179.577 197.989 179.683 198.01 179.782 198.051C179.881 198.092 179.971 198.152 180.047 198.228C180.122 198.304 180.182 198.394 180.223 198.493C180.264 198.592 180.285 198.698 180.284 198.805Z" fill="#191E23"/>
<path d="M245.378 151.325C245.607 151.218 245.869 151.202 246.11 151.28C246.351 151.358 246.553 151.525 246.675 151.747L264.791 182.915L265.76 181.951L267.114 183.319L266.298 184.131L268.334 189.02L273.778 198.383C273.834 198.481 273.864 198.591 273.864 198.704C273.864 198.816 273.835 198.927 273.779 199.024C273.723 199.122 273.642 199.203 273.544 199.259C273.447 199.316 273.336 199.345 273.224 199.345C273.037 199.453 272.819 199.494 272.606 199.464C272.393 199.433 272.196 199.332 272.047 199.177L270.713 199.731L266.608 189.877C266.345 189.425 265.982 189.038 265.547 188.748C265.111 188.457 264.615 188.271 264.096 188.203C263.577 188.134 263.049 188.186 262.553 188.354C262.057 188.522 261.606 188.801 261.236 189.17L251.001 199.361C250.785 199.328 250.563 199.369 250.374 199.48L250.573 199.398C250.435 199.455 250.307 199.532 250.192 199.626L248.345 199.282L256.139 191.528C258.214 189.463 259.546 186.768 259.927 183.865C260.308 180.962 259.717 178.015 258.246 175.484L244.986 152.671C244.919 152.557 244.877 152.432 244.861 152.302C244.845 152.172 244.855 152.039 244.892 151.914C244.929 151.788 244.991 151.67 245.074 151.569C245.158 151.468 245.261 151.385 245.378 151.325Z" fill="#191E23"/>
<path d="M247.02 152.064C247.019 152.403 247.11 152.736 247.282 153.029L273.128 197.46C273.254 197.678 273.423 197.869 273.624 198.022C273.824 198.176 274.053 198.288 274.297 198.352C274.541 198.417 274.796 198.433 275.046 198.399C275.296 198.366 275.537 198.283 275.756 198.156C275.974 198.03 276.165 197.861 276.318 197.66C276.471 197.46 276.584 197.231 276.648 196.987C276.713 196.743 276.729 196.488 276.695 196.238C276.662 195.988 276.579 195.747 276.452 195.528L275.349 193.633L275.253 193.464L251.348 152.377L251.3 152.292L250.602 151.095C250.39 150.729 250.063 150.442 249.672 150.281C249.281 150.119 248.847 150.092 248.438 150.202C248.03 150.313 247.669 150.555 247.412 150.892C247.156 151.229 247.018 151.641 247.02 152.064Z" fill="#C482B2"/>
<path d="M273.566 193.61C273.72 193.617 273.869 193.669 273.994 193.76C274.119 193.852 274.214 193.978 274.267 194.123C274.321 194.269 274.33 194.426 274.293 194.577C274.256 194.727 274.176 194.863 274.062 194.968C273.948 195.073 273.806 195.141 273.653 195.165C273.5 195.189 273.343 195.166 273.203 195.101C273.063 195.036 272.945 194.93 272.865 194.798C272.784 194.666 272.745 194.513 272.751 194.358C272.756 194.256 272.78 194.155 272.823 194.062C272.866 193.968 272.927 193.885 273.003 193.815C273.079 193.746 273.167 193.692 273.264 193.657C273.36 193.622 273.463 193.606 273.566 193.61Z" fill="#191E23"/>
<path d="M272.414 191.679C272.568 191.686 272.717 191.738 272.842 191.83C272.966 191.921 273.061 192.048 273.114 192.193C273.167 192.338 273.175 192.496 273.139 192.646C273.102 192.797 273.021 192.932 272.907 193.037C272.793 193.141 272.651 193.21 272.498 193.233C272.345 193.257 272.189 193.235 272.049 193.169C271.908 193.104 271.791 192.999 271.71 192.866C271.63 192.734 271.591 192.581 271.597 192.427C271.602 192.324 271.626 192.223 271.67 192.13C271.713 192.037 271.775 191.953 271.85 191.884C271.926 191.814 272.015 191.76 272.112 191.725C272.208 191.69 272.311 191.674 272.414 191.679Z" fill="#191E23"/>
<path d="M271.26 189.747C271.415 189.754 271.564 189.806 271.689 189.897C271.814 189.989 271.909 190.115 271.962 190.26C272.015 190.406 272.024 190.563 271.988 190.714C271.951 190.864 271.871 191 271.757 191.105C271.643 191.21 271.5 191.278 271.347 191.302C271.194 191.326 271.038 191.303 270.898 191.238C270.757 191.173 270.64 191.068 270.559 190.935C270.479 190.803 270.439 190.65 270.446 190.495C270.456 190.289 270.546 190.094 270.699 189.954C270.851 189.814 271.053 189.739 271.26 189.747Z" fill="#191E23"/>
<path d="M270.106 187.816C270.261 187.822 270.41 187.874 270.535 187.966C270.66 188.057 270.755 188.183 270.808 188.329C270.861 188.474 270.87 188.632 270.833 188.782C270.797 188.933 270.717 189.069 270.603 189.173C270.489 189.278 270.346 189.347 270.193 189.37C270.04 189.394 269.884 189.372 269.744 189.307C269.603 189.241 269.486 189.136 269.405 189.004C269.325 188.872 269.285 188.718 269.292 188.564C269.301 188.357 269.392 188.162 269.544 188.021C269.697 187.881 269.899 187.807 270.106 187.816Z" fill="#191E23"/>
<path d="M268.955 185.887C269.109 185.894 269.258 185.946 269.383 186.038C269.507 186.129 269.602 186.256 269.655 186.401C269.708 186.546 269.716 186.704 269.679 186.854C269.643 187.004 269.562 187.14 269.448 187.245C269.334 187.349 269.192 187.418 269.039 187.441C268.886 187.465 268.73 187.442 268.589 187.377C268.449 187.312 268.331 187.206 268.251 187.074C268.171 186.942 268.132 186.789 268.138 186.635C268.143 186.532 268.167 186.431 268.211 186.338C268.254 186.245 268.315 186.161 268.391 186.091C268.467 186.022 268.556 185.968 268.653 185.933C268.749 185.898 268.852 185.882 268.955 185.887Z" fill="#191E23"/>
<path d="M267.801 183.955C267.955 183.962 268.104 184.014 268.229 184.105C268.354 184.196 268.449 184.323 268.502 184.468C268.556 184.613 268.564 184.771 268.528 184.922C268.491 185.072 268.411 185.208 268.297 185.313C268.183 185.417 268.041 185.486 267.888 185.51C267.735 185.533 267.578 185.511 267.438 185.446C267.298 185.381 267.18 185.275 267.1 185.143C267.019 185.011 266.98 184.858 266.987 184.703C266.995 184.496 267.086 184.301 267.239 184.161C267.391 184.021 267.594 183.947 267.801 183.955Z" fill="#191E23"/>
<path d="M255.966 163.16C256.12 163.167 256.269 163.219 256.394 163.31C256.519 163.402 256.614 163.528 256.667 163.673C256.721 163.819 256.729 163.976 256.693 164.127C256.656 164.277 256.576 164.413 256.462 164.518C256.348 164.623 256.206 164.691 256.053 164.715C255.9 164.739 255.743 164.716 255.603 164.651C255.463 164.586 255.345 164.48 255.264 164.348C255.184 164.216 255.145 164.063 255.151 163.908C255.155 163.806 255.18 163.705 255.223 163.612C255.266 163.519 255.327 163.435 255.403 163.365C255.479 163.296 255.567 163.242 255.664 163.207C255.76 163.172 255.863 163.156 255.966 163.16Z" fill="#191E23"/>
<path d="M254.814 161.236C254.968 161.243 255.117 161.295 255.242 161.387C255.367 161.478 255.461 161.605 255.514 161.75C255.567 161.895 255.576 162.053 255.539 162.203C255.502 162.354 255.421 162.49 255.307 162.594C255.193 162.698 255.051 162.767 254.898 162.79C254.745 162.814 254.589 162.792 254.449 162.726C254.309 162.661 254.191 162.556 254.111 162.423C254.03 162.291 253.991 162.138 253.998 161.984C254.002 161.881 254.027 161.78 254.07 161.687C254.113 161.594 254.175 161.51 254.251 161.441C254.326 161.371 254.415 161.317 254.512 161.282C254.609 161.247 254.711 161.231 254.814 161.236Z" fill="#191E23"/>
<path d="M253.66 159.304C253.815 159.311 253.964 159.364 254.088 159.455C254.213 159.547 254.308 159.673 254.36 159.819C254.413 159.964 254.422 160.122 254.385 160.272C254.348 160.422 254.268 160.558 254.154 160.662C254.04 160.767 253.897 160.835 253.744 160.859C253.591 160.882 253.435 160.86 253.295 160.795C253.155 160.729 253.037 160.624 252.957 160.492C252.876 160.36 252.837 160.207 252.844 160.052C252.848 159.949 252.873 159.849 252.916 159.755C252.96 159.662 253.021 159.578 253.097 159.509C253.173 159.439 253.261 159.386 253.358 159.351C253.455 159.315 253.557 159.3 253.66 159.304Z" fill="#191E23"/>
<path d="M252.506 157.373C252.661 157.379 252.81 157.431 252.935 157.523C253.06 157.614 253.155 157.74 253.208 157.886C253.261 158.031 253.27 158.189 253.234 158.339C253.197 158.49 253.117 158.626 253.003 158.73C252.889 158.835 252.746 158.904 252.593 158.927C252.441 158.951 252.284 158.929 252.144 158.864C252.003 158.798 251.886 158.693 251.805 158.561C251.725 158.429 251.685 158.275 251.692 158.121C251.701 157.914 251.792 157.719 251.944 157.578C252.097 157.438 252.299 157.364 252.506 157.373Z" fill="#191E23"/>
<path d="M251.86 156.811C252.172 156.511 252.181 156.016 251.882 155.705C251.582 155.393 251.087 155.384 250.776 155.683C250.464 155.983 250.455 156.478 250.754 156.789C251.054 157.101 251.549 157.11 251.86 156.811Z" fill="#191E23"/>
<path d="M250.201 153.512C250.355 153.519 250.505 153.571 250.63 153.662C250.754 153.753 250.85 153.88 250.903 154.025C250.956 154.17 250.965 154.328 250.928 154.478C250.892 154.629 250.811 154.765 250.697 154.87C250.583 154.974 250.441 155.043 250.288 155.067C250.135 155.09 249.979 155.068 249.838 155.003C249.698 154.938 249.58 154.832 249.5 154.7C249.419 154.568 249.38 154.415 249.387 154.26C249.396 154.053 249.486 153.858 249.639 153.718C249.792 153.577 249.994 153.504 250.201 153.512Z" fill="#191E23"/>
<path d="M260.882 172.752C261.057 172.647 261.267 172.617 261.464 172.667C261.662 172.717 261.831 172.843 261.936 173.019L263.76 176.083C263.864 176.259 263.895 176.468 263.844 176.666C263.794 176.864 263.667 177.034 263.492 177.138C263.317 177.242 263.107 177.273 262.909 177.223C262.711 177.172 262.542 177.045 262.437 176.87L260.613 173.808C260.509 173.632 260.479 173.422 260.529 173.224C260.579 173.026 260.706 172.856 260.882 172.752Z" fill="#FFF2FA"/>
<path d="M251.3 152.292L251.348 152.377L275.253 193.464L275.481 193.268C275.607 193.16 275.692 193.011 275.719 192.848C275.747 192.684 275.716 192.515 275.631 192.372L252.29 152.536C252.242 152.454 252.178 152.383 252.102 152.326C252.026 152.269 251.939 152.228 251.847 152.206C251.755 152.183 251.66 152.179 251.566 152.194C251.472 152.208 251.383 152.242 251.302 152.292H251.3Z" fill="#FFF2FA"/>
<path d="M284.117 195.273C283.511 195.305 282.917 195.452 282.365 195.704C280.925 196.306 279.382 196.622 277.821 196.634H268.079C267.267 196.666 266.463 196.468 265.757 196.064C265.35 195.796 265.007 195.44 264.755 195.023C264.502 194.605 264.346 194.137 264.298 193.651C264.279 193.5 264.272 193.348 264.278 193.195C263.739 193.226 263.207 193.07 262.77 192.753C262.186 192.281 262.086 191.526 262.086 190.945C262.091 190.662 262.128 190.38 262.198 190.105C261.733 190.136 261.273 189.995 260.905 189.711C260.248 189.152 260.314 188.101 260.481 187.326C260.55 186.997 260.647 186.674 260.77 186.361C260.216 186.265 259.92 185.791 259.781 185.221C259.685 184.761 259.649 184.29 259.673 183.821C259.684 183.455 259.837 183.108 260.099 182.852C260.361 182.597 260.712 182.454 261.078 182.452H263.744C262.925 182.179 262.483 181.424 262.246 180.685C262.184 180.49 262.17 180.282 262.207 180.08C262.244 179.878 262.33 179.689 262.457 179.528C262.584 179.367 262.749 179.24 262.937 179.157C263.124 179.075 263.33 179.04 263.534 179.055C266.635 179.283 273.394 179.798 275.392 180.256C278.003 180.847 281.804 184.295 281.804 184.295L283.528 184.523C283.528 184.523 285.542 195.273 284.117 195.273Z" fill="#FFAD95"/>
<path d="M136.189 183.912V199.735H27.613L22.2815 176.498C25.1685 153.503 39.756 140.357 39.756 140.357L40.2851 136.678L44.3555 134.838L46.563 130.713C46.563 130.713 61.5336 135.855 73.0472 143.438C84.5609 151.02 94.5786 183.912 94.5786 183.912H136.189Z" fill="#D63A21"/>
<path d="M73.1225 140.197L73.0473 143.444L46.563 130.72L46.791 125.974L47.7693 126.503L71.6745 139.417L73.1225 140.197Z" fill="#FFF2FA"/>
<path d="M79.1541 95.4333L67.6838 98.2564V115.699H64.1948C63.4309 112.689 59.7526 113.357 59.7526 113.357C58.3684 112.351 54.5921 110.393 52.5352 113.072C51.9482 113.798 51.5971 114.686 51.529 115.617C51.461 116.547 51.6792 117.477 52.1544 118.28V125.448H47.8992C47.8992 125.448 41.0284 114.919 38.7777 104.774C36.527 94.6283 44.0705 90.8634 44.0705 90.8634C44.0705 90.8634 43.1811 83.5753 64.0967 83.5753C85.0124 83.5753 79.1541 95.4333 79.1541 95.4333Z" fill="#191E23"/>
<path d="M344.102 136.159L336.429 140.854L335.836 141.221L330.839 144.268L328.664 140.51C328.436 140.644 323.435 143.504 318.993 141.422C313.997 139.077 309.703 130.462 313.748 104.612L321.164 112.821H327.093C327.092 112.826 327.092 112.832 327.093 112.837C327.093 112.837 327.093 112.855 327.093 112.864L328.196 119.263L330.091 130.243C330.169 130.679 330.406 131.069 330.757 131.339C331.108 131.608 331.546 131.736 331.987 131.699C332.428 131.661 332.838 131.46 333.138 131.135C333.438 130.81 333.606 130.384 333.608 129.942C333.608 129.91 333.608 129.876 333.608 129.84L333.019 119.548C333.019 119.548 335.3 114.502 338.458 114.11C341.616 113.717 343.306 120.34 340.739 125.085L344.102 136.159Z" fill="#FFAD95"/>
<path d="M355.643 129.13L344.102 136.158L340.736 125.078C343.311 120.333 341.63 113.704 338.456 114.103C335.282 114.502 333.017 119.541 333.017 119.541L333.606 129.833C333.606 129.869 333.606 129.903 333.606 129.935C333.603 130.378 333.436 130.803 333.136 131.128C332.836 131.453 332.425 131.654 331.985 131.692C331.544 131.729 331.106 131.601 330.755 131.332C330.404 131.062 330.167 130.672 330.089 130.236L327.079 112.814H321.15L313.734 104.605C313.734 104.605 319.647 87.6252 341.042 95.4834C356.779 101.59 356.015 124.123 355.643 129.13Z" fill="#191E23"/>
<path d="M336.424 116.869C336.424 116.869 337.719 114.785 339.263 115.466C340.807 116.148 342.823 122.51 337.035 126.681C337.035 126.681 339.84 123.014 339.696 119.528C339.553 116.041 338.652 115.391 336.424 116.869Z" fill="#191E23"/>
<path d="M58.1063 114.502C58.1063 114.502 56.3732 113.015 54.184 114.007C51.9948 114.999 53.8123 122.474 60.2133 122.269C60.2133 122.269 56.1246 121.525 55.1737 117.973C54.2228 114.42 56.2569 114.42 58.1063 114.502Z" fill="#191E23"/>
<path d="M136.189 183.912V199.735H27.613L22.2815 176.498C25.1685 153.503 39.756 140.357 39.756 140.357L40.2851 136.678L44.3555 134.838L46.563 130.713C46.563 130.713 61.5336 135.855 73.0472 143.438L54.884 139.162C54.884 139.162 41.2018 146.003 43.5962 163.334C45.9906 180.665 56.6331 196.087 56.6331 196.087H131.833L136.189 183.912Z" fill="#BF2211"/>
<path d="M419.587 198.924H0V200H419.587V198.924Z" fill="#191E23"/>
<path d="M94.5785 183.903H77.6216L61.6704 152.021L94.5785 183.903Z" fill="#BF2211"/>
<path d="M148.977 180.072C148.977 180.072 156.37 175.739 157.414 175.527C158.02 175.394 158.636 175.318 159.255 175.299C158.238 175.169 157.21 175.145 156.188 175.226C154.639 175.381 148.977 180.072 148.977 180.072Z" fill="#CD634B"/>
<path d="M262.677 182.439H263.744C263.389 182.467 263.032 182.467 262.677 182.439Z" fill="#FFAD95"/>
<path d="M274.241 181.912L263.751 182.439C262.932 182.165 262.49 181.41 262.253 180.672C262.193 180.485 262.178 180.287 262.209 180.094C262.24 179.901 262.316 179.717 262.431 179.559C263.343 180.295 265.623 181.912 268.131 181.912H274.241Z" fill="#CD634B"/>
<path d="M262.77 192.751L271.164 192.37L264.298 193.651C264.279 193.5 264.272 193.348 264.278 193.195C263.739 193.225 263.206 193.068 262.77 192.751Z" fill="#CD634B"/>
<path d="M260.481 187.332C260.55 187.003 260.647 186.681 260.77 186.368C260.216 186.272 259.92 185.798 259.781 185.228L273.331 185.837L260.481 187.332Z" fill="#CD634B"/>
<path d="M262.086 190.942C262.091 190.659 262.128 190.378 262.198 190.103C261.733 190.133 261.273 189.993 260.905 189.709L273.502 189.123L262.086 190.942Z" fill="#CD634B"/>
<path d="M284.117 195.273C283.511 195.305 282.917 195.452 282.365 195.704C280.925 196.306 279.381 196.622 277.821 196.634H268.079C267.267 196.666 266.462 196.468 265.757 196.064C270.931 196.05 274.74 195.537 277.346 194.985C278.603 194.722 279.731 194.034 280.542 193.038C281.353 192.041 281.797 190.797 281.8 189.513V184.291L283.524 184.519C283.524 184.519 285.542 195.273 284.117 195.273Z" fill="#CD634B"/>
<path d="M398.051 198.962H283.18V183.431L333.79 182.213C332.762 168.278 336.322 155.325 336.322 155.325C329.48 151.676 327.241 146.386 327.241 146.386L330.86 144.274L336.44 140.854L344.114 136.159L355.655 129.13L356.058 128.882L361.67 135.997L368.126 142.448C368.126 142.448 373.081 146.19 376.732 150.591C380.383 154.992 398.051 198.962 398.051 198.962Z" fill="#D63A21"/>
<path d="M398.051 198.962H283.18V193.339H339.961C378.664 162.08 362.886 144.512 356.783 144.958C350.779 145.401 336.773 155.019 336.335 155.32L352.464 140.954L327.246 146.397L330.865 144.286L336.445 140.865L344.118 136.17L355.659 129.142L356.063 128.893L361.675 136.008L368.131 142.459C368.131 142.459 373.086 146.201 376.737 150.602C380.388 155.004 398.051 198.962 398.051 198.962Z" fill="#BF2211"/>
<path d="M333.779 182.208H339.149L355.794 156.611L333.779 182.208Z" fill="#BF2211"/>
<path d="M344.102 136.158L336.429 140.854L335.836 141.221L334.135 136.966L328.662 140.509C328.434 140.644 323.433 143.504 318.991 141.422C328.974 139.8 329.132 127.183 328.206 119.261L330.101 130.241C330.178 130.676 330.415 131.067 330.766 131.336C331.117 131.606 331.556 131.734 331.996 131.696C332.437 131.659 332.847 131.457 333.147 131.132C333.447 130.807 333.615 130.382 333.617 129.94C333.617 129.908 333.617 129.874 333.617 129.837L333.029 119.546C333.029 119.546 335.309 114.499 338.467 114.107C341.626 113.715 343.315 120.337 340.748 125.083L344.102 136.158Z" fill="#CD634B"/>
<path d="M261.826 174.813C261.724 174.357 261.035 174.556 261.142 175.002C262.068 179.148 258.066 182.984 255.261 185.492C252.255 188.177 248.547 189.953 244.571 190.612C240.559 191.319 236.455 191.184 232.4 191.161C229.24 191.145 225.331 190.753 222.772 193.031C221.436 194.226 220.38 195.626 219.035 196.805C216.504 197.334 213.993 198.011 211.402 197.113C209.761 196.543 208.34 195.389 207.774 193.708C207.337 192.402 207.202 191.136 206.034 190.247C204.942 189.417 203.487 188.63 202.083 188.664C200.612 188.701 199.298 189.433 198.167 190.311C196.498 191.615 194.956 193.047 193.2 194.237C191.506 195.396 189.636 196.956 187.5 196.974C187.405 196.974 187.315 197.011 187.248 197.078C187.181 197.145 187.144 197.235 187.144 197.33C187.144 197.424 187.181 197.514 187.248 197.581C187.315 197.648 187.405 197.685 187.5 197.685C189.474 197.685 191.064 196.545 192.646 195.483C194.391 194.331 196.059 193.068 197.64 191.702C198.614 190.856 199.631 189.996 200.881 189.601C202.288 189.161 203.435 189.538 204.666 190.238C205.806 190.878 206.445 191.567 206.805 192.844C207.033 193.679 207.236 194.481 207.717 195.213C209.72 198.319 213.774 198.556 217.067 198.014C217.24 197.986 217.418 197.954 217.589 197.916C217.016 198.303 216.413 198.644 215.785 198.935H217.382C218.085 198.512 218.758 198.04 219.395 197.523C220.93 197.172 222.487 196.871 224.027 197.207C225.41 197.534 226.718 198.12 227.883 198.935H229.121C227.21 197.48 224.909 196.29 222.508 196.338C221.831 196.36 221.156 196.427 220.487 196.538C220.848 196.199 221.194 195.854 221.516 195.487C222.148 194.803 222.706 194.019 223.434 193.414C224.346 192.662 225.47 192.274 226.626 192.089C228.79 191.734 231.064 191.875 233.239 191.891C237.344 191.918 241.517 191.994 245.553 191.164C249.49 190.353 253.129 188.475 256.07 185.736C258.982 183.043 262.795 179.164 261.826 174.813Z" fill="#191E23"/>
</svg>
