<svg width="308" height="336" viewBox="0 0 308 336" fill="none" xmlns="http://www.w3.org/2000/svg">
<path d="M250.025 180.089C238.227 180.089 228.806 177.752 221.761 173.078C214.732 168.433 209.422 161.609 206.647 153.653C203.486 144.531 201.953 134.924 202.118 125.271C202.252 121.036 202.723 116.818 203.528 112.658C204.261 108.707 205.489 104.863 207.183 101.218C208.771 97.8182 210.882 94.6884 213.439 91.9426C216.016 89.2421 219.048 87.0167 222.397 85.3684C217.446 81.4858 213.383 76.5897 210.48 71.0083C206.748 63.6196 204.822 55.4514 204.859 47.1741C204.493 38.4952 206.159 29.8507 209.725 21.9297C212.937 15.0474 218.269 9.37455 224.939 5.74237C232.686 1.76266 241.321 -0.172137 250.025 0.121474C260.088 0.121474 268.463 2.02821 275.15 5.84168C281.727 9.53202 286.979 15.194 290.165 22.029C293.639 29.9357 295.191 38.5525 294.694 47.1741C294.864 55.4861 293.089 63.7229 289.51 71.2267C286.738 76.8342 282.649 81.6865 277.593 85.3684C280.942 87.0167 283.974 89.2421 286.551 91.9426C289.121 94.6783 291.233 97.8102 292.807 101.218C294.505 104.872 295.771 108.711 296.581 112.658C297.46 116.805 297.899 121.032 297.892 125.271C298.335 134.912 296.919 144.547 293.721 153.653C290.879 161.601 285.542 168.416 278.507 173.078C271.436 177.752 261.942 180.089 250.025 180.089ZM250.025 153.554C251.677 153.67 253.33 153.332 254.804 152.575C256.278 151.819 257.517 150.674 258.387 149.264C260.192 146.121 261.297 142.625 261.624 139.015C262.025 135.401 262.237 131.768 262.26 128.131C262.405 123.807 262.225 119.478 261.723 115.181C261.39 111.558 260.25 108.057 258.387 104.932C257.456 103.588 256.188 102.513 254.709 101.816C253.23 101.118 251.594 100.823 249.965 100.96C248.369 100.838 246.769 101.141 245.328 101.839C243.887 102.537 242.656 103.604 241.762 104.932C239.893 108.01 238.751 111.475 238.425 115.062C237.902 119.398 237.65 123.763 237.671 128.131C237.685 131.807 237.897 135.48 238.306 139.134C238.628 142.725 239.777 146.192 241.663 149.264C242.539 150.668 243.779 151.808 245.251 152.564C246.724 153.319 248.373 153.661 250.025 153.554ZM250.025 72.4185C251.176 72.4254 252.313 72.1654 253.347 71.6588C254.381 71.1522 255.283 70.4128 255.983 69.4988C257.842 66.9076 259.061 63.9126 259.538 60.7596C260.411 55.9908 260.81 51.1475 260.73 46.3002C260.935 41.4733 259.988 36.6669 257.969 32.2777C257.295 30.7329 256.184 29.419 254.772 28.4979C253.36 27.5768 251.71 27.0887 250.025 27.0938C248.29 27.0743 246.586 27.5521 245.115 28.4709C243.644 29.3896 242.466 30.7107 241.722 32.2777C239.591 36.5559 238.586 41.307 238.803 46.0817C238.727 50.9683 239.126 55.8508 239.994 60.6603C240.455 63.8865 241.757 66.9348 243.768 69.4988C244.531 70.4172 245.487 71.1553 246.569 71.6601C247.651 72.165 248.831 72.4239 250.025 72.4185Z" fill="#A31C44"/>
<path d="M151.312 173.257L150.12 174.647C149.626 174.67 149.141 174.784 148.69 174.985H113.455C113.004 174.784 112.519 174.67 112.025 174.647L110.794 173.257C110.794 141.2 110.794 109.143 110.794 77.0859L146.545 42.2284C148.074 40.7189 149.643 39.408 151.55 41.7517C151.484 85.6198 151.404 129.455 151.312 173.257Z" fill="#A31C44"/>
<path d="M98.2012 174.965C88.0121 174.965 77.823 174.587 67.6538 174.707C63.3239 174.707 61.1987 173.932 61.2384 168.907C61.4569 144.437 61.2384 119.987 61.3774 95.5176C61.3774 93.9287 60.3843 91.5453 62.728 90.9296C64.3368 90.4727 65.3101 92.2404 66.3627 93.2732C69.9379 96.8881 73.6322 100.424 76.9888 104.237C79.4914 107.097 81.3187 107.474 84.0596 104.376C88.032 99.8078 92.5605 95.5971 96.8705 91.2871C97.7245 90.433 98.519 89.142 100.009 89.5591C101.498 89.9762 101.24 91.5453 101.24 92.7171C101.24 119.2 101.2 145.682 101.121 172.164C101.121 173.038 100.207 173.892 99.7107 174.766L98.2012 174.965Z" fill="#A31C44"/>
<path d="M157.25 31.1257C151.451 21.3139 147.657 24.5117 142.672 29.6757C124.061 48.9218 104.934 67.5522 86.2047 86.7586C81.9741 91.1083 79.551 92.022 75.2012 87.0168C69.2427 80.1049 62.1719 74.0867 55.9949 67.3337C52.8964 63.9771 51.1287 64.4339 48.1892 67.4529C36.0933 79.8665 23.6003 91.8631 11.6832 104.416C7.71081 108.547 5.90339 106.978 2.7255 103.959C-0.452391 100.94 -1.24687 99.1325 2.48715 95.6169C17.9992 80.5021 33.2531 65.1092 48.3878 49.5971C51.526 46.3994 53.2539 46.6973 56.1538 49.756C62.9465 57.0056 70.2556 63.7785 77.0682 71.0082C79.829 73.9477 81.4776 73.8484 84.2582 71.0082C101.75 53.1987 119.381 35.5019 137.15 17.9176C140.03 15.0376 141.123 13.0514 137.349 10.1913C134.528 8.00651 133.555 5.96075 138.521 5.02724C145.512 3.6965 152.424 1.94866 159.376 0.399442C162.156 -0.216274 164.54 -0.732678 163.348 3.79581C161.262 12.2172 159.554 20.6585 157.25 31.1257Z" fill="#A31C44"/>
<path d="M50.9497 86.1231C50.8703 115.254 50.8041 144.338 50.7511 173.376L48.9834 174.866L11.6829 174.727L10.809 173.416C10.809 157.665 10.9878 141.915 10.809 126.164C10.809 119.987 9.14062 121.179 15.4765 114.843C24.9903 105.329 35.0206 96.3519 44.7727 87.0367C46.4014 85.4875 47.752 83.5212 50.2546 83.2034L50.9497 86.1231Z" fill="#A31C44"/>
<path d="M50.95 86.123L50.2151 83.243L50.95 86.123Z" fill="#A31C44"/>
<path d="M10.7894 173.416L11.6634 174.727L10.7894 173.416Z" fill="#A31C44"/>
<path d="M48.9836 174.866L50.7513 173.376L48.9836 174.866Z" fill="#A31C44"/>
<path d="M98.2013 174.965L99.7108 174.826L98.2013 174.965Z" fill="#A31C44"/>
<path d="M112.025 174.647C112.519 174.67 113.004 174.784 113.455 174.985L112.025 174.647Z" fill="#A31C44"/>
<path d="M148.73 175.084C149.181 174.884 149.666 174.769 150.16 174.747L148.73 175.084Z" fill="#A31C44"/>
<path d="M14.1857 247.057V222.111H9.6969V217.205H25.2685V222.111H20.8195V247.057H14.1857Z" fill="#A31C44"/>
<path d="M27.8904 247.058V217.265H36.1132C37.8783 217.229 39.6389 217.456 41.3368 217.94C42.7201 218.321 43.9365 219.153 44.7928 220.304C45.6928 221.754 46.1228 223.446 46.0242 225.15C46.0366 226.25 45.9368 227.348 45.7263 228.427C45.5701 229.361 45.1805 230.24 44.5937 230.983C44.0068 231.726 43.2419 232.309 42.3697 232.678L46.4612 247.117H39.6486L36.3118 233.651H34.4249V247.018L27.8904 247.058ZM34.4845 229.897H36.3118C37.066 229.941 37.817 229.768 38.4767 229.4C39.0019 229.063 39.3893 228.548 39.5691 227.95C39.8015 227.219 39.9089 226.453 39.8869 225.686C39.9415 224.647 39.7005 223.614 39.1918 222.707C38.8891 222.322 38.4928 222.021 38.0407 221.834C37.5886 221.646 37.0959 221.577 36.6097 221.634H34.4647L34.4845 229.897Z" fill="#A31C44"/>
<path d="M48.5667 247.057L54.2074 217.265H61.7152L67.2964 247.057H61.1988L60.2057 240.761H55.8162L54.8033 247.057H48.5667ZM56.5114 236.809H59.6893L58.1003 225.17L56.5114 236.809Z" fill="#A31C44"/>
<path d="M70.3152 247.058V217.265H78.0216C79.2394 217.26 80.4554 217.36 81.6563 217.563C82.7327 217.741 83.7646 218.125 84.6951 218.695C85.5872 219.276 86.3073 220.085 86.7806 221.039C87.3176 222.292 87.5751 223.648 87.5354 225.011C87.5633 226.05 87.3809 227.083 86.9991 228.05C86.6779 228.832 86.1575 229.517 85.4896 230.036C84.7957 230.544 83.9934 230.884 83.1459 231.029C84.2015 231.096 85.2158 231.465 86.0679 232.092C86.92 232.718 87.5741 233.577 87.9525 234.564C88.3785 235.734 88.5806 236.974 88.5483 238.219C88.5759 239.567 88.3744 240.91 87.9525 242.191C87.5931 243.234 86.9866 244.175 86.1847 244.932C85.3889 245.674 84.4296 246.219 83.3843 246.521C82.1318 246.88 80.8337 247.054 79.5311 247.038L70.3152 247.058ZM76.9093 229.182H78.2003C78.9887 229.234 79.7768 229.077 80.4844 228.725C80.9884 228.432 81.3588 227.955 81.5173 227.394C81.7229 226.699 81.8168 225.974 81.7953 225.249C81.8244 224.563 81.681 223.88 81.3782 223.263C81.104 222.734 80.6647 222.309 80.1269 222.051C79.4565 221.794 78.7381 221.686 78.0216 221.734H76.8894L76.9093 229.182ZM76.9093 242.489H78.2996C78.8503 242.557 79.4091 242.493 79.9303 242.303C80.4516 242.113 80.9205 241.803 81.2988 241.397C81.9162 240.427 82.2085 239.286 82.133 238.14C82.1653 237.232 82.0444 236.326 81.7755 235.458C81.5663 234.835 81.1253 234.316 80.544 234.008C79.8361 233.656 79.0496 233.492 78.2599 233.532H76.9093V242.489Z" fill="#A31C44"/>
<path d="M90.4551 247.057L96.0958 217.265H103.623L109.185 247.057H103.107L102.114 240.761H97.7245L96.6917 247.057H90.4551ZM98.3998 236.809H101.558L99.9688 225.17L98.3998 236.809Z" fill="#A31C44"/>
<path d="M112.204 247.057V217.265H118.798V242.608H125.69V247.057H112.204Z" fill="#A31C44"/>
<path d="M128.649 247.057V217.265H135.243V229.361H139.851V217.205H146.485V246.998H139.851V234.008H135.243V247.057H128.649Z" fill="#A31C44"/>
<path d="M159.554 247.554C157.713 247.65 155.88 247.245 154.251 246.382C152.969 245.578 152.001 244.358 151.51 242.926C150.91 241.238 150.621 239.454 150.656 237.663V226.58C150.617 224.781 150.907 222.991 151.51 221.297C152.041 219.901 153.028 218.725 154.311 217.96C155.945 217.114 157.775 216.716 159.614 216.808C161.472 216.712 163.322 217.11 164.976 217.96C166.275 218.712 167.272 219.891 167.797 221.297C168.41 222.989 168.7 224.781 168.651 226.58V237.623C168.696 239.415 168.407 241.2 167.797 242.886C167.285 244.315 166.287 245.517 164.976 246.283C163.32 247.195 161.444 247.635 159.554 247.554ZM159.554 242.886C159.828 242.909 160.103 242.875 160.363 242.786C160.623 242.697 160.861 242.556 161.064 242.37C161.399 241.996 161.619 241.534 161.699 241.039C161.796 240.495 161.842 239.943 161.838 239.391V224.951C161.845 224.392 161.798 223.833 161.699 223.283C161.62 222.793 161.399 222.337 161.064 221.972C160.861 221.786 160.623 221.644 160.363 221.555C160.103 221.467 159.828 221.433 159.554 221.455C159.293 221.432 159.029 221.467 158.782 221.556C158.535 221.645 158.311 221.787 158.124 221.972C157.789 222.337 157.568 222.793 157.489 223.283C157.39 223.833 157.343 224.392 157.35 224.951V239.331C157.346 239.884 157.392 240.435 157.489 240.98C157.548 241.469 157.748 241.931 158.065 242.31C158.264 242.494 158.5 242.634 158.756 242.723C159.012 242.811 159.284 242.847 159.554 242.827V242.886Z" fill="#A31C44"/>
<path d="M182.038 247.057V217.265H189.605C191.676 217.18 193.742 217.511 195.683 218.238C197.058 218.827 198.153 219.922 198.742 221.297C199.378 223.024 199.675 224.859 199.616 226.699V237.543C199.675 239.403 199.378 241.257 198.742 243.005C198.169 244.398 197.08 245.515 195.703 246.124C193.805 246.857 191.777 247.195 189.744 247.117L182.038 247.057ZM188.632 242.489H189.665C190.419 242.548 191.176 242.397 191.85 242.052C192.068 241.897 192.253 241.699 192.393 241.47C192.533 241.241 192.625 240.987 192.664 240.721C192.794 239.994 192.854 239.256 192.843 238.517V225.507C192.853 224.787 192.787 224.068 192.644 223.362C192.589 223.116 192.483 222.885 192.332 222.683C192.182 222.481 191.99 222.313 191.77 222.19C191.097 221.889 190.36 221.759 189.625 221.813H188.632V242.489Z" fill="#A31C44"/>
<path d="M203.628 247.057V217.265H217.054V221.734H210.222V229.142H215.426V233.651H210.222V242.569H217.054V247.018L203.628 247.057Z" fill="#A31C44"/>
<path d="M228.653 247.554C226.786 247.657 224.927 247.23 223.291 246.323C221.991 245.527 221.009 244.306 220.51 242.867C219.937 241.172 219.662 239.391 219.696 237.603V226.798C219.657 224.99 219.933 223.189 220.51 221.475C221.009 220.036 221.991 218.814 223.291 218.019C224.937 217.242 226.731 216.829 228.551 216.808C230.371 216.788 232.174 217.16 233.837 217.9C235.044 218.576 235.978 219.65 236.479 220.939C237.02 222.373 237.282 223.896 237.254 225.428V228.01H230.798V225.031C230.796 224.46 230.763 223.89 230.699 223.323C230.663 222.834 230.475 222.369 230.163 221.992C229.967 221.796 229.73 221.646 229.469 221.554C229.207 221.461 228.929 221.427 228.653 221.456C228.375 221.432 228.095 221.468 227.832 221.561C227.568 221.653 227.327 221.8 227.124 221.992C226.783 222.382 226.568 222.867 226.508 223.382C226.411 223.959 226.364 224.544 226.369 225.13V239.172C226.368 239.785 226.421 240.396 226.528 241C226.617 241.5 226.852 241.963 227.203 242.33C227.4 242.505 227.63 242.639 227.879 242.724C228.128 242.809 228.391 242.844 228.653 242.827C228.923 242.856 229.196 242.823 229.451 242.73C229.706 242.637 229.936 242.487 230.123 242.291C230.445 241.894 230.639 241.409 230.679 240.9C230.76 240.328 230.8 239.75 230.798 239.172V236.034H237.254V238.616C237.28 240.167 237.018 241.71 236.479 243.164C235.998 244.489 235.08 245.61 233.877 246.342C232.28 247.218 230.473 247.637 228.653 247.554Z" fill="#A31C44"/>
<path d="M240.888 247.057V217.265H254.315V221.734H247.443V229.142H252.647V233.651H247.443V242.569H254.335V247.018L240.888 247.057Z" fill="#A31C44"/>
<path d="M257.334 247.057V217.265H261.962L268.079 231.664V217.205H273.541V246.998H269.092L262.975 231.664V247.137L257.334 247.057Z" fill="#A31C44"/>
<path d="M280.612 247.057V222.111H276.123V217.205H291.695V222.111H287.246V247.057H280.612Z" fill="#A31C44"/>
<path d="M294.396 247.057V217.265H307.823V221.734H300.99V229.142H306.194V233.651H300.99V242.569H307.882V247.018L294.396 247.057Z" fill="#A31C44"/>
<path d="M11.4845 291.25V261.457H24.9111V265.946H18.0985V273.374H23.2824V277.943H18.0985V286.861H24.9707V291.25H11.4845Z" fill="#A31C44"/>
<path d="M45.9449 291.727C44.0778 291.82 42.2215 291.394 40.5821 290.495C39.2859 289.688 38.3047 288.461 37.8015 287.019C37.2301 285.331 36.9546 283.558 36.9872 281.776V271.011C36.9502 269.203 37.2257 267.402 37.8015 265.688C38.2951 264.251 39.2798 263.034 40.5821 262.252C42.2215 261.353 44.0778 260.927 45.9449 261.02C47.7381 260.932 49.5237 261.308 51.1288 262.113C52.326 262.8 53.2566 263.87 53.7704 265.152C54.3091 266.586 54.572 268.109 54.545 269.64V272.222H48.0899V269.243C48.0883 268.679 48.0552 268.115 47.9906 267.555C47.9494 267.061 47.7628 266.591 47.4543 266.204C47.2583 266.008 47.0211 265.859 46.76 265.766C46.4989 265.673 46.2205 265.64 45.9449 265.668C45.6651 265.647 45.3842 265.686 45.1206 265.782C44.857 265.878 44.6167 266.029 44.4155 266.224C44.0784 266.617 43.8643 267.101 43.7998 267.614C43.701 268.192 43.6545 268.777 43.6607 269.362V283.405C43.6551 284.012 43.7151 284.618 43.8395 285.212C43.9081 285.715 44.1381 286.182 44.4949 286.543C44.6917 286.717 44.9212 286.851 45.1701 286.936C45.419 287.022 45.6823 287.057 45.9449 287.039C46.2174 287.066 46.4924 287.032 46.75 286.939C47.0077 286.846 47.2415 286.697 47.4345 286.503C47.7385 286.106 47.9243 285.631 47.9707 285.133C48.05 284.56 48.0898 283.983 48.0899 283.405V280.266H54.545V282.848C54.5682 284.399 54.3056 285.941 53.7704 287.397C53.284 288.718 52.3677 289.837 51.1685 290.575C49.5626 291.422 47.758 291.82 45.9449 291.727Z" fill="#A31C44"/>
<path d="M58.1598 291.25V261.457H66.3826C68.1462 261.425 69.9052 261.646 71.6062 262.113C72.9997 262.483 74.2214 263.325 75.0622 264.496C75.9646 265.945 76.3949 267.639 76.2936 269.343C76.306 270.442 76.2062 271.54 75.9957 272.62C75.8235 273.516 75.4574 274.363 74.9232 275.102C74.3159 275.863 73.5317 276.463 72.639 276.85L76.7107 291.25H69.8981L66.6209 277.863H64.734V291.25H58.1598ZM64.7539 274.07H66.6011C67.3619 274.117 68.1203 273.945 68.7859 273.573C69.301 273.238 69.681 272.731 69.8584 272.143C70.089 271.404 70.1963 270.633 70.1762 269.859C70.2308 268.82 69.9897 267.787 69.481 266.88C69.1784 266.495 68.7821 266.194 68.33 266.006C67.8779 265.819 67.3852 265.75 66.899 265.807H64.7539V274.07Z" fill="#A31C44"/>
<path d="M80.266 291.25V261.457H93.6727V265.946H86.8601V273.374H92.044V277.943H86.8601V286.861H93.7522V291.25H80.266Z" fill="#A31C44"/>
<path d="M104.656 291.727C103.037 291.778 101.428 291.438 99.9688 290.734C98.7042 290.054 97.7042 288.97 97.1285 287.655C96.4242 285.941 96.0664 284.105 96.0759 282.253L101.697 281.398C101.696 282.442 101.816 283.481 102.054 284.497C102.175 285.143 102.487 285.737 102.948 286.205C103.322 286.545 103.813 286.73 104.319 286.721C104.59 286.758 104.867 286.709 105.109 286.581C105.351 286.453 105.547 286.252 105.669 286.006C105.875 285.543 105.983 285.043 105.987 284.537C106.022 283.429 105.709 282.339 105.093 281.418C104.398 280.477 103.599 279.617 102.71 278.856L100.128 276.612C99.0163 275.683 98.052 274.592 97.2676 273.374C96.4505 272.016 96.0436 270.45 96.0957 268.866C96.0254 267.789 96.1917 266.71 96.5828 265.705C96.974 264.7 97.5806 263.792 98.36 263.046C100.078 261.641 102.261 260.932 104.477 261.06C105.803 261.007 107.121 261.287 108.311 261.874C109.232 262.367 110.001 263.102 110.535 264C111.024 264.859 111.373 265.791 111.568 266.76C111.741 267.678 111.84 268.608 111.866 269.541L106.205 270.236C106.194 269.465 106.134 268.696 106.027 267.932C105.981 267.394 105.803 266.876 105.51 266.423C105.356 266.239 105.161 266.094 104.939 266.001C104.718 265.908 104.478 265.868 104.239 265.886C103.966 265.87 103.693 265.935 103.457 266.073C103.22 266.21 103.029 266.415 102.908 266.661C102.627 267.129 102.476 267.664 102.471 268.21C102.437 269.179 102.715 270.133 103.266 270.931C103.891 271.723 104.589 272.455 105.351 273.116L107.814 275.36C109.103 276.432 110.215 277.698 111.111 279.114C112.064 280.671 112.534 282.475 112.462 284.298C112.482 285.631 112.153 286.945 111.508 288.112C110.874 289.249 109.94 290.19 108.807 290.833C107.523 291.482 106.094 291.79 104.656 291.727Z" fill="#A31C44"/>
<path d="M124.22 291.727C122.353 291.82 120.497 291.394 118.857 290.495C117.561 289.688 116.58 288.461 116.077 287.019C115.505 285.331 115.23 283.558 115.262 281.776V271.011C115.225 269.203 115.501 267.402 116.077 265.688C116.57 264.251 117.555 263.034 118.857 262.252C120.497 261.353 122.353 260.927 124.22 261.02C126.013 260.935 127.798 261.311 129.404 262.113C130.596 262.801 131.52 263.872 132.026 265.152C132.564 266.586 132.827 268.109 132.8 269.64V272.222H126.365V269.243C126.396 268.681 126.396 268.117 126.365 267.555C126.324 267.061 126.137 266.591 125.829 266.204C125.633 266.008 125.396 265.859 125.134 265.766C124.873 265.673 124.595 265.64 124.319 265.668C124.04 265.647 123.759 265.686 123.495 265.782C123.231 265.878 122.991 266.029 122.79 266.224C122.444 266.612 122.229 267.098 122.174 267.614C122.076 268.192 122.029 268.777 122.035 269.362V283.405C122.033 284.011 122.087 284.616 122.194 285.212C122.279 285.714 122.514 286.178 122.869 286.543C123.066 286.717 123.296 286.851 123.545 286.936C123.793 287.022 124.057 287.057 124.319 287.039C124.589 287.067 124.861 287.033 125.116 286.94C125.371 286.848 125.601 286.698 125.789 286.503C126.099 286.107 126.292 285.632 126.345 285.133C126.424 284.56 126.464 283.983 126.464 283.405V280.266H132.9V282.848C132.929 284.398 132.673 285.94 132.145 287.397C131.658 288.718 130.742 289.837 129.543 290.575C127.908 291.439 126.066 291.838 124.22 291.727Z" fill="#A31C44"/>
<path d="M136.455 291.25V261.457H143.049V291.25H136.455Z" fill="#A31C44"/>
<path d="M147.399 291.25L147.915 261.457H154.986L158.263 278.816L161.799 261.457H168.631L169.148 291.25H164.46L163.904 271.388L160.448 291.25H156.277L152.603 271.229L152.146 291.25H147.399Z" fill="#A31C44"/>
<path d="M173.458 291.25V261.457H186.864V265.946H180.052V273.374H185.275V277.943H180.092V286.861H186.984V291.25H173.458Z" fill="#A31C44"/>
<path d="M189.923 291.25V261.457H194.571L200.688 275.817V261.457H206.15V291.25H201.681L195.564 275.758V291.25H189.923Z" fill="#A31C44"/>
<path d="M213.28 291.25V266.343H208.792V261.457H224.383V266.363H219.914V291.25H213.28Z" fill="#A31C44"/>
<path d="M235.248 291.726C233.407 291.813 231.577 291.409 229.944 290.555C228.648 289.778 227.659 288.579 227.144 287.158C226.545 285.469 226.256 283.686 226.29 281.895V270.792C226.251 269 226.54 267.216 227.144 265.529C227.661 264.125 228.651 262.945 229.944 262.192C231.577 261.338 233.407 260.934 235.248 261.02C237.107 260.93 238.958 261.334 240.61 262.192C241.909 262.944 242.905 264.123 243.431 265.529C244.044 267.214 244.333 269 244.285 270.792V281.895C244.328 283.687 244.039 285.472 243.431 287.158C242.907 288.58 241.912 289.779 240.61 290.555C238.958 291.413 237.107 291.817 235.248 291.726ZM235.248 287.039C235.521 287.062 235.797 287.028 236.056 286.939C236.316 286.85 236.555 286.708 236.757 286.523C237.092 286.157 237.313 285.701 237.393 285.212C237.489 284.661 237.536 284.103 237.532 283.543V269.163C237.536 268.604 237.49 268.046 237.393 267.495C237.313 267.005 237.092 266.55 236.757 266.184C236.555 265.998 236.316 265.857 236.056 265.768C235.797 265.679 235.521 265.645 235.248 265.668C234.987 265.656 234.727 265.695 234.481 265.784C234.236 265.872 234.01 266.008 233.818 266.184C233.482 266.55 233.261 267.005 233.182 267.495C233.085 268.046 233.038 268.604 233.043 269.163V283.543C233.042 284.102 233.082 284.659 233.162 285.212C233.236 285.695 233.443 286.149 233.758 286.523C233.958 286.706 234.193 286.846 234.449 286.935C234.705 287.024 234.977 287.059 235.248 287.039Z" fill="#A31C44"/>
<path d="M11.4845 335.502V305.709H24.9111V310.218H18.0985V317.626H23.2824V322.195H18.0985V330.974H24.9707V335.423L11.4845 335.502Z" fill="#A31C44"/>
<path d="M36.5106 335.939C34.6427 336.042 32.7837 335.615 31.1478 334.707C29.8486 333.912 28.8657 332.691 28.3672 331.252C27.7943 329.557 27.5188 327.776 27.5529 325.988V315.243C27.5143 313.435 27.7899 311.634 28.3672 309.92C28.8657 308.481 29.8486 307.259 31.1478 306.464C32.7937 305.687 34.588 305.274 36.4082 305.253C38.2283 305.232 40.0314 305.605 41.6945 306.345C42.8712 307.035 43.7756 308.107 44.2566 309.384C44.7973 310.817 45.0601 312.341 45.0313 313.872V316.455H38.5762V313.475C38.5745 312.904 38.5414 312.334 38.4769 311.767C38.4403 311.279 38.2529 310.814 37.9406 310.436C37.7446 310.241 37.5074 310.091 37.2463 309.998C36.9852 309.905 36.7067 309.872 36.4311 309.9C36.1528 309.877 35.8728 309.913 35.6092 310.005C35.3457 310.098 35.1046 310.245 34.9017 310.436C34.5676 310.831 34.3539 311.314 34.286 311.827C34.1882 312.404 34.1417 312.989 34.147 313.575V327.617C34.1426 328.23 34.2025 328.843 34.3257 329.444C34.3997 329.945 34.629 330.411 34.9812 330.775C35.1779 330.95 35.4074 331.083 35.6563 331.169C35.9052 331.254 36.1686 331.289 36.4311 331.271C36.7036 331.298 36.9787 331.264 37.2363 331.171C37.4939 331.078 37.7277 330.929 37.9207 330.735C38.2282 330.332 38.4143 329.85 38.457 329.345C38.5376 328.772 38.5774 328.195 38.5762 327.617V324.479H45.0313V327.001C45.0581 328.552 44.7955 330.095 44.2566 331.549C43.7758 332.874 42.8581 333.995 41.6548 334.727C40.0809 335.588 38.3033 336.007 36.5106 335.939Z" fill="#A31C44"/>
<path d="M57.266 335.939C55.4245 336.041 53.5903 335.635 51.9629 334.767C50.6625 333.996 49.6721 332.794 49.1624 331.371C48.5525 329.685 48.2629 327.9 48.3083 326.108V315.084C48.261 313.292 48.5507 311.506 49.1624 309.821C49.6796 308.417 50.6699 307.237 51.9629 306.484C53.596 305.633 55.4272 305.236 57.266 305.332C59.1239 305.236 60.974 305.634 62.6287 306.484C63.9217 307.242 64.9168 308.42 65.4491 309.821C66.0438 311.51 66.3265 313.294 66.2833 315.084V326.187C66.3247 327.977 66.0421 329.76 65.4491 331.45C64.9243 332.871 63.929 334.07 62.6287 334.847C60.9719 335.686 59.1193 336.064 57.266 335.939ZM57.266 331.272C57.5397 331.295 57.8151 331.26 58.0749 331.172C58.3347 331.083 58.5733 330.941 58.7755 330.755C59.1013 330.378 59.3146 329.917 59.3912 329.424C59.4952 328.874 59.5484 328.316 59.5501 327.756V313.396C59.5493 312.83 59.4961 312.264 59.3912 311.708C59.3138 311.227 59.1001 310.779 58.7755 310.417C58.5733 310.231 58.3347 310.089 58.0749 310C57.8151 309.911 57.5397 309.877 57.266 309.9C57.0022 309.886 56.738 309.924 56.489 310.012C56.2401 310.101 56.0113 310.238 55.8161 310.417C55.4916 310.779 55.2778 311.227 55.2004 311.708C55.0955 312.264 55.0423 312.83 55.0415 313.396V327.756C55.0467 328.315 55.0932 328.872 55.1805 329.424C55.2415 329.918 55.4491 330.381 55.7764 330.755C55.9763 330.938 56.2116 331.079 56.4678 331.168C56.724 331.256 56.9956 331.292 57.266 331.272Z" fill="#A31C44"/>
<path d="M70.3152 335.502V305.709H74.943L81.0604 320.089V305.65H86.5224V335.442H81.9939L76.0354 320.03V335.502H70.3152Z" fill="#A31C44"/>
<path d="M99.532 335.939C97.6904 336.04 95.8563 335.635 94.2289 334.767C92.9285 333.996 91.9381 332.794 91.4284 331.371C90.8185 329.685 90.5289 327.9 90.5743 326.107V315.084C90.527 313.292 90.8167 311.506 91.4284 309.821C91.9456 308.417 92.9359 307.237 94.2289 306.484C95.862 305.633 97.6931 305.235 99.532 305.332C101.39 305.236 103.24 305.634 104.895 306.484C106.211 307.205 107.241 308.354 107.814 309.741C108.409 311.431 108.692 313.214 108.649 315.005V326.107C108.69 327.898 108.407 329.681 107.814 331.371C107.29 332.792 106.294 333.99 104.994 334.767C103.316 335.652 101.426 336.057 99.532 335.939ZM93.5734 303.048L97.089 295.957H101.975L105.59 303.048H101.181L99.5518 298.658L97.9629 303.048H93.5734ZM99.532 331.271C99.8056 331.294 100.081 331.26 100.341 331.171C100.601 331.083 100.839 330.941 101.041 330.755C101.373 330.379 101.593 329.918 101.677 329.424C101.764 328.872 101.811 328.315 101.816 327.756V313.396C101.812 312.83 101.765 312.266 101.677 311.708C101.593 311.225 101.372 310.777 101.041 310.417C100.839 310.231 100.601 310.089 100.341 310C100.081 309.911 99.8056 309.877 99.532 309.9C99.2704 309.877 99.007 309.911 98.7601 310.001C98.5131 310.09 98.2885 310.232 98.1019 310.417C97.7632 310.772 97.5414 311.222 97.4664 311.708C97.3683 312.265 97.3217 312.83 97.3273 313.396V327.756C97.3261 328.314 97.3659 328.872 97.4465 329.424C97.5075 329.918 97.715 330.381 98.0423 330.755C98.2422 330.938 98.4776 331.079 98.7337 331.167C98.9899 331.256 99.2616 331.292 99.532 331.271Z" fill="#A31C44"/>
<path d="M112.462 335.502L112.978 305.709H120.049L123.346 323.029L126.882 305.67H133.635L134.151 335.462H129.464L128.907 315.601L125.452 335.462H121.281L117.745 315.501L117.308 335.502H112.462Z" fill="#A31C44"/>
<path d="M138.56 335.502V305.709H145.154V335.502H138.56Z" fill="#A31C44"/>
<path d="M158.164 335.939C156.296 336.042 154.437 335.615 152.801 334.708C151.502 333.912 150.519 332.691 150.021 331.252C149.448 329.557 149.172 327.776 149.206 325.988V315.243C149.168 313.435 149.443 311.634 150.021 309.92C150.519 308.481 151.502 307.259 152.801 306.464C154.444 305.687 156.235 305.274 158.052 305.254C159.868 305.233 161.668 305.605 163.328 306.345C164.534 307.021 165.468 308.095 165.97 309.384C166.51 310.817 166.773 312.341 166.744 313.872V316.455H160.309V313.475C160.307 312.905 160.274 312.334 160.21 311.767C160.173 311.279 159.986 310.814 159.673 310.436C159.477 310.241 159.24 310.091 158.979 309.998C158.718 309.905 158.44 309.872 158.164 309.9C157.886 309.877 157.606 309.913 157.342 310.005C157.078 310.098 156.837 310.245 156.634 310.436C156.294 310.83 156.074 311.312 155.999 311.827C155.918 312.406 155.878 312.99 155.88 313.575V327.617C155.879 328.229 155.932 328.841 156.039 329.444C156.128 329.945 156.363 330.407 156.714 330.775C156.911 330.95 157.14 331.083 157.389 331.169C157.638 331.254 157.901 331.289 158.164 331.271C158.433 331.296 158.705 331.261 158.959 331.169C159.213 331.076 159.444 330.928 159.634 330.735C159.947 330.334 160.14 329.852 160.19 329.345C160.27 328.772 160.31 328.195 160.309 327.617V324.479H166.744V327.001C166.767 328.55 166.511 330.091 165.989 331.55C165.508 332.879 164.582 334.002 163.368 334.727C161.779 335.605 159.977 336.024 158.164 335.939Z" fill="#A31C44"/>
<path d="M178.9 335.939C177.059 336.035 175.226 335.631 173.597 334.767C172.307 333.983 171.32 332.786 170.796 331.371C170.203 329.681 169.92 327.898 169.962 326.108V315.084C169.919 313.294 170.201 311.51 170.796 309.821C171.327 308.425 172.314 307.249 173.597 306.484C175.231 305.638 177.061 305.24 178.9 305.332C180.758 305.236 182.608 305.634 184.262 306.484C185.566 307.229 186.565 308.411 187.083 309.821C187.695 311.506 187.984 313.292 187.937 315.084V326.187C187.982 327.979 187.693 329.764 187.083 331.45C186.573 332.88 185.574 334.083 184.262 334.847C182.606 335.686 180.753 336.064 178.9 335.939ZM178.9 331.272C179.177 331.297 179.456 331.265 179.719 331.176C179.983 331.087 180.225 330.944 180.429 330.755C180.755 330.378 180.968 329.917 181.045 329.424C181.142 328.874 181.189 328.315 181.184 327.756V313.396C181.189 312.83 181.143 312.265 181.045 311.708C180.967 311.227 180.754 310.779 180.429 310.417C180.225 310.228 179.983 310.085 179.719 309.996C179.456 309.907 179.177 309.875 178.9 309.9C178.638 309.877 178.375 309.912 178.128 310.001C177.881 310.09 177.656 310.232 177.47 310.417C177.137 310.774 176.922 311.225 176.854 311.708C176.749 312.264 176.696 312.83 176.695 313.396V327.756C176.69 328.315 176.737 328.874 176.834 329.424C176.897 329.913 177.097 330.375 177.41 330.755C177.61 330.938 177.845 331.079 178.101 331.168C178.358 331.256 178.629 331.292 178.9 331.272Z" fill="#A31C44"/>
</svg>
