<svg width="118" height="118" viewBox="0 0 118 118" fill="none" xmlns="http://www.w3.org/2000/svg">
<path d="M96.5328 103.372C95.2458 104.452 93.8965 105.49 92.5057 106.465C82.7127 113.407 71.0055 117.135 59.0019 117.135C46.9983 117.135 35.2911 113.407 25.4981 106.465C24.1073 105.49 22.7788 104.473 21.4917 103.393C12.3928 95.7071 5.87479 85.4113 2.81966 73.8991C-0.235464 62.3869 0.319821 50.214 4.41038 39.0278C8.50093 27.8415 15.9293 18.1819 25.6902 11.3562C35.451 4.53051 47.0732 0.868211 58.9839 0.864916C70.8946 0.861621 82.5188 4.51749 92.2835 11.3378C102.048 18.1581 109.482 27.8136 113.579 38.9976C117.675 50.1815 118.237 62.3541 115.189 73.868C112.14 85.382 105.627 95.6813 96.5328 103.372Z" fill="#F1F1F2"/>
<path d="M59.0019 65.0541C70.1279 65.0541 79.1473 56.0347 79.1473 44.9087C79.1473 33.7828 70.1279 24.7634 59.0019 24.7634C47.876 24.7634 38.8566 33.7828 38.8566 44.9087C38.8566 56.0347 47.876 65.0541 59.0019 65.0541Z" fill="#792DE9" stroke="#792DE9" stroke-linecap="round" stroke-linejoin="round"/>
<path d="M96.5328 103.372C95.2458 104.452 93.8965 105.49 92.5057 106.465C82.7127 113.407 71.0054 117.135 59.0019 117.135C46.9983 117.135 35.291 113.407 25.498 106.465C24.1072 105.49 22.7787 104.473 21.4917 103.393C27.8645 91.3119 44.7409 82.9463 59.0019 82.9463C73.2213 82.9463 90.1392 91.3119 96.5328 103.372Z" fill="#792DE9"/>
</svg>
