<svg width="26" height="65" viewBox="0 0 26 65" fill="none" xmlns="http://www.w3.org/2000/svg">
<path d="M6.24634 22.2575V61.7187C6.25053 62.0181 6.31368 62.3134 6.4321 62.5887C6.55057 62.8635 6.72206 63.1126 6.93672 63.3214C7.15142 63.5301 7.40509 63.6942 7.68331 63.8049C7.96153 63.9156 8.25884 63.9706 8.55824 63.9664L17.4442 63.9617C18.0484 63.9696 18.6311 63.7372 19.0641 63.3161C19.4972 62.8945 19.7452 62.3181 19.7537 61.7139V22.2575" stroke="#F1F1F2" stroke-linecap="round" stroke-linejoin="round"/>
<path d="M12.9999 63.9638V43.6214" stroke="#F1F1F2" stroke-linecap="round" stroke-linejoin="round"/>
<path d="M19.7537 40.9907H20.5384C21.7708 40.9971 22.9554 40.5138 23.8314 39.6469C24.7075 38.78 25.2033 37.6007 25.2098 36.3682V23.644C25.1967 21.1792 24.2051 18.8204 22.453 17.0867C20.7009 15.353 18.3318 14.3863 15.867 14.3992H10.133C7.66812 14.3863 5.29911 15.353 3.547 17.0867C1.79489 18.8204 0.80322 21.1792 0.790161 23.644V36.3682C0.796717 37.6007 1.29253 38.78 2.16856 39.6469C3.04464 40.5138 4.22914 40.9971 5.46158 40.9907H6.24631" stroke="#F1F1F2" stroke-linecap="round" stroke-linejoin="round"/>
<path d="M12.9999 14.399C16.7299 14.399 19.7537 11.407 19.7537 7.71619C19.7537 4.02534 16.7299 1.03333 12.9999 1.03333C9.27 1.03333 6.24628 4.02534 6.24628 7.71619C6.24628 11.407 9.27 14.399 12.9999 14.399Z" stroke="#F1F1F2" stroke-linecap="round" stroke-linejoin="round"/>
</svg>
