<svg width="64" height="62" viewBox="0 0 64 62" fill="none" xmlns="http://www.w3.org/2000/svg">
<path d="M25.1055 48.7279L22.9064 54.7903L21.3186 59.1546C14.5762 56.8286 8.87659 52.1878 5.23251 46.0566C1.58843 39.9254 0.235816 32.7009 1.41498 25.6667C2.59414 18.6325 6.22872 12.2441 11.673 7.63637C17.1172 3.02869 24.0186 0.500165 31.151 0.500025C33.3966 0.497106 35.6354 0.74776 37.8247 1.24722L36.186 5.63696L33.1548 13.7372L31.1849 18.9931L28.2301 26.9065L27.0159 30.1415L26.6253 31.1944L25.7338 41.5022L25.4366 44.8901L25.1055 48.7279Z" stroke="#F1F1F2" stroke-linecap="round" stroke-linejoin="round"/>
<path d="M63 30.651C62.9959 35.2898 61.9221 39.8653 59.8621 44.0216C57.8021 48.178 54.8113 51.8033 51.1224 54.6159C47.4334 57.4284 43.1455 59.3524 38.592 60.2383C34.0385 61.1241 29.3421 60.948 24.8677 59.7236L26.8206 55.4356L28.8075 51.0969L30.0811 45.3316L30.8113 42.0032L32.8661 32.6463L33.2906 30.7358L33.9954 29.3603L38.8266 19.8761L40.4569 16.6836L44.8297 8.12488L46.9354 3.98981C51.7855 6.55151 55.8447 10.3881 58.6755 15.0863C61.5063 19.7844 63.0015 25.1659 63 30.651Z" stroke="#F1F1F2" stroke-linecap="round" stroke-linejoin="round"/>
<path d="M25.4366 44.8901L25.1054 48.7279L22.9064 54.7904C16.7764 52.696 11.6727 48.3483 8.63067 42.6292C5.5886 36.91 4.83599 30.2479 6.52552 23.9943C8.21505 17.7406 12.2202 12.3639 17.7284 8.95475C23.2366 5.54565 29.8354 4.35951 36.186 5.63698L33.1548 13.7373L31.1849 18.9931L28.2301 26.9065L27.0159 30.1415L26.6253 31.1944L25.7338 41.5022L25.4366 44.8901Z" stroke="#F1F1F2" stroke-linecap="round" stroke-linejoin="round"/>
<path d="M58.3555 30.651C58.3553 37.4156 55.668 43.9032 50.8847 48.6865C46.1013 53.4698 39.6138 56.1572 32.8491 56.1574C30.8179 56.1611 28.7936 55.9187 26.8206 55.4356L28.8075 51.0968L30.0811 45.3315L30.8113 42.0031L32.8661 32.6462L33.2906 30.7358L33.9954 29.3603L38.8266 19.8761L40.4569 16.6835L44.8297 8.12485C48.9169 10.2978 52.3354 13.5426 54.7183 17.5111C57.1012 21.4796 58.3585 26.022 58.3555 30.651V30.651Z" stroke="#F1F1F2" stroke-linecap="round" stroke-linejoin="round"/>
<path d="M33.1548 10.2305V13.7372L31.1849 18.993L28.9688 18.6618C27.9879 18.6059 27.0161 18.8763 26.2051 19.4308C25.3941 19.9853 24.7895 20.7927 24.4856 21.727C24.2808 22.5064 24.3514 23.3327 24.6856 24.0661C25.0198 24.7994 25.597 25.3948 26.3197 25.7516L28.2301 26.9064L27.0159 30.1414L24.5621 28.6555C23.2059 27.9115 22.1384 26.7342 21.5304 25.3119C20.9223 23.8895 20.8089 22.3044 21.2082 20.8099C21.7285 19.1475 22.7826 17.7032 24.2072 16.7008C25.6317 15.6984 27.3472 15.1939 29.0876 15.2654L29.3424 15.2824L29.7584 15.3419V10.2305H33.1548Z" stroke="#F1F1F2" stroke-linecap="round" stroke-linejoin="round"/>
<path d="M42.3164 16.9634L41.8237 20.3258L38.8267 19.8763L40.4564 16.6833L42.3164 16.9634Z" stroke="#F1F1F2" stroke-linecap="round" stroke-linejoin="round"/>
<path d="M22.1763 40.9753L25.7336 41.5023L25.4369 44.8901L21.6748 44.3299L22.1763 40.9753Z" stroke="#F1F1F2" stroke-linecap="round" stroke-linejoin="round"/>
<path d="M42.7833 40.4832C42.2675 42.1467 41.2157 43.5927 39.7919 44.5956C38.3681 45.5986 36.6524 46.1021 34.9124 46.0277H34.853V51.0713H31.4566V45.5352L30.0811 45.3315L30.8113 42.0031L35.0228 42.6315C36.0038 42.6888 36.9762 42.4201 37.7886 41.8672C38.601 41.3144 39.2078 40.5084 39.5144 39.5748C39.7162 38.7953 39.6441 37.9703 39.3102 37.2376C38.9764 36.505 38.401 35.9093 37.6804 35.5501L32.8661 32.6462L33.2907 30.7358L33.9954 29.3603L39.4296 32.6378C40.7879 33.3795 41.8572 34.5565 42.4655 35.9796C43.0738 37.4026 43.1858 38.9889 42.7833 40.4832V40.4832Z" stroke="#F1F1F2" stroke-linecap="round" stroke-linejoin="round"/>
<path d="M46.9354 3.99008L44.8296 8.12526L40.4564 16.6835L38.8266 19.8765L33.9951 29.3602L33.2909 30.7364L32.8658 32.6462L30.8109 42.0027L30.0813 45.3319L28.807 51.0967L26.8208 55.4356L24.8678 59.7236" stroke="#F1F1F2" stroke-linecap="round" stroke-linejoin="round"/>
<path d="M21.3184 59.1545L22.906 54.7901L25.1059 48.7274L25.4369 44.8901L25.7336 41.5022L26.6249 31.1947L27.0157 30.1418L28.2302 26.9068L31.1852 18.9929L33.1548 13.7373L36.1862 5.63747L37.8247 1.24765" stroke="#F1F1F2" stroke-linecap="round" stroke-linejoin="round"/>
</svg>
