<svg width="240" height="52" viewBox="0 0 240 52" fill="none" xmlns="http://www.w3.org/2000/svg">
<path d="M69.539 51.6545C69.2161 51.662 68.8953 51.6008 68.5977 51.4752C68.3001 51.3495 68.0326 51.1622 67.8126 50.9255C67.3485 50.4298 67.1001 49.7699 67.1221 49.0909V26.1634C67.1531 23.5145 67.7384 21.1346 68.8778 19.0236C69.9571 16.9714 71.5614 15.2426 73.5269 14.0138C75.4834 12.7907 77.6983 12.1792 80.1716 12.1792C82.6702 12.1792 84.9001 12.7907 86.8612 14.0138C88.8295 15.2466 90.4407 16.9739 91.5344 19.0236C92.6853 21.1346 93.2608 23.5145 93.2608 26.1634C93.2608 28.8122 92.7308 31.1835 91.6708 33.2773C90.6843 35.2883 89.1871 37.0046 87.329 38.2543C85.6527 39.3399 83.7212 39.9669 81.7271 40.0727C79.7331 40.1785 77.7461 39.7594 75.9644 38.8572C74.4049 38.0416 73.0376 36.9019 71.9541 35.5144V49.0892C71.9773 49.7633 71.7399 50.4204 71.2912 50.9238C71.0693 51.1651 70.7977 51.3554 70.4952 51.4816C70.1927 51.6077 69.8665 51.6667 69.539 51.6545ZM80.1681 35.5662C81.6967 35.5904 83.1982 35.1619 84.484 34.3345C85.7654 33.4947 86.8041 32.3331 87.4965 30.9659C88.2539 29.4806 88.6368 27.8324 88.6117 26.1651C88.6405 24.4808 88.2577 22.815 87.4965 21.3125C86.8031 19.946 85.7646 18.7846 84.484 17.9439C83.1917 17.1389 81.6999 16.7121 80.1776 16.7121C78.6554 16.7121 77.1635 17.1389 75.8712 17.9439C74.5822 18.7748 73.5414 19.9387 72.8587 21.3125C72.1114 22.8192 71.7366 24.4834 71.7659 26.1651C71.7403 27.8299 72.1151 29.4765 72.8587 30.9659C73.5404 32.3404 74.5814 33.5045 75.8712 34.3345C77.1526 35.156 78.6465 35.5836 80.1681 35.5645V35.5662Z" fill="black"/>
<path d="M102.899 29.8878C102.576 29.8959 102.255 29.8351 101.957 29.7094C101.66 29.5837 101.392 29.396 101.173 29.1588C100.709 28.663 100.46 28.0031 100.482 27.3242V3.19085C100.482 2.42038 100.712 1.8002 101.173 1.33032C101.641 0.879333 102.266 0.627441 102.916 0.627441C103.566 0.627441 104.191 0.879333 104.66 1.33032C105.102 1.8002 105.323 2.42038 105.324 3.19085V27.3242C105.347 27.9985 105.109 28.6556 104.66 29.1588C104.437 29.4012 104.164 29.5921 103.86 29.718C103.556 29.8439 103.228 29.9018 102.899 29.8878ZM102.899 39.9436C102.576 39.9518 102.255 39.8909 101.957 39.7652C101.66 39.6395 101.392 39.4518 101.173 39.2146C100.709 38.7188 100.46 38.059 100.482 37.38V14.9569C100.482 14.1847 100.712 13.5749 101.173 13.0964C101.641 12.6442 102.266 12.3915 102.916 12.3915C103.567 12.3915 104.192 12.6442 104.66 13.0964C105.102 13.5663 105.324 14.1847 105.324 14.9569V37.38C105.347 38.0544 105.109 38.7114 104.66 39.2146C104.437 39.4561 104.163 39.646 103.859 39.771C103.555 39.896 103.227 39.9532 102.899 39.9385V39.9436ZM122.407 39.9436C122.084 39.9518 121.763 39.8909 121.465 39.7652C121.167 39.6395 120.9 39.4518 120.68 39.2146C120.216 38.7188 119.968 38.059 119.99 37.38V25.0111C119.99 23.1004 119.658 21.5422 118.994 20.3364C118.391 19.1905 117.456 18.2532 116.313 17.6467C115.115 17.0419 113.787 16.7394 112.446 16.7656C111.191 16.7504 109.951 17.0472 108.839 17.6294C107.805 18.1619 106.924 18.949 106.277 19.9166C105.638 20.8939 105.307 22.0412 105.328 23.2093H102.338C102.338 21.0982 102.821 19.2129 103.786 17.5534C104.734 15.9102 106.102 14.5486 107.748 13.6078C109.466 12.6244 111.416 12.1209 113.395 12.1497C115.582 12.1497 117.535 12.6438 119.254 13.6319C120.974 14.6201 122.334 16.07 123.335 17.9818C124.332 19.8924 124.83 22.2384 124.83 25.0197V37.3887C124.852 38.0676 124.604 38.7275 124.14 39.2233C123.918 39.4588 123.649 39.6444 123.35 39.7677C123.051 39.891 122.73 39.9492 122.407 39.9385V39.9436Z" fill="black"/>
<path d="M143.703 40.0888C141.494 40.1195 139.327 39.4799 137.488 38.2542C135.629 37.0053 134.132 35.2888 133.146 33.2772C132.084 31.1823 131.554 28.811 131.556 26.1633C131.559 23.5156 132.134 21.1357 133.283 19.0235C134.381 16.969 136.001 15.2409 137.98 14.0137C139.984 12.7835 142.296 12.1473 144.647 12.1791C147.114 12.1791 149.328 12.7907 151.29 14.0137C153.259 15.2466 154.87 16.9738 155.963 19.0235C157.114 21.1345 157.69 23.5145 157.69 26.1633H155.839C155.839 28.8122 155.309 31.1835 154.249 33.2772C153.263 35.2882 151.766 37.0045 149.907 38.2542C148.071 39.4773 145.909 40.1168 143.703 40.0888ZM144.652 35.5644C146.181 35.5889 147.683 35.1604 148.968 34.3327C150.247 33.4967 151.28 32.3336 151.958 30.9641C152.701 29.4742 153.075 27.8279 153.049 26.1633C153.078 24.4818 152.704 22.8178 151.958 21.3107C151.279 19.9418 150.247 18.779 148.968 17.9421C147.676 17.137 146.184 16.7103 144.662 16.7103C143.14 16.7103 141.648 17.137 140.356 17.9421C139.064 18.7767 138.016 19.9391 137.319 21.3107C136.558 22.8132 136.175 24.479 136.204 26.1633C136.179 27.8306 136.561 29.4788 137.319 30.9641C138.015 32.3364 139.063 33.499 140.356 34.3327C141.637 35.1546 143.131 35.5828 144.652 35.5644ZM155.282 39.9385C154.959 39.9466 154.638 39.8858 154.34 39.7601C154.042 39.6344 153.775 39.4467 153.555 39.2095C153.091 38.7136 152.843 38.0538 152.865 37.3749V29.6823L153.766 24.3529L157.705 26.1633V37.3749C157.727 38.0538 157.479 38.7136 157.015 39.2095C156.794 39.4475 156.526 39.6356 156.227 39.7614C155.928 39.8871 155.606 39.9475 155.282 39.9385Z" fill="black"/>
<path d="M167.292 39.8885C166.532 39.8885 165.947 39.6789 165.536 39.2597C165.125 38.8404 164.919 38.2122 164.918 37.3749V14.9C164.918 14.0938 165.124 13.4737 165.536 13.0395C165.947 12.6059 166.532 12.3865 167.292 12.3865C168.081 12.3865 168.674 12.5961 169.07 13.0153C169.466 13.4345 169.664 14.0628 169.664 14.9V37.3749C169.664 38.1782 169.465 38.8001 169.07 39.2355C168.675 39.6708 168.076 39.8885 167.292 39.8885ZM167.243 22.6928C167.214 20.8374 167.678 19.0075 168.588 17.3907C169.498 15.7739 170.822 14.4284 172.423 13.4921C174.002 12.5549 175.807 12.0685 177.643 12.0859C179.541 12.0859 180.956 12.4124 181.89 13.0654C182.823 13.7184 183.179 14.4975 182.957 15.4027C182.893 15.8116 182.702 16.1899 182.411 16.4842C182.155 16.7292 181.834 16.8953 181.486 16.9627C181.107 17.0289 180.718 17.0112 180.347 16.9108C178.321 16.4767 176.502 16.4433 174.89 16.8107C173.277 17.178 172.004 17.8656 171.071 18.8733C170.136 19.8787 169.67 21.1519 169.671 22.6928H167.243Z" fill="black"/>
<path d="M198.884 40.139C196.697 40.139 194.744 39.6449 193.025 38.6568C191.305 37.6687 189.945 36.2187 188.944 34.3069C187.947 32.3986 187.449 30.0526 187.449 27.269V14.9001C187.427 14.2212 187.676 13.5616 188.139 13.0654C188.364 12.834 188.634 12.6501 188.931 12.5245C189.228 12.3989 189.548 12.3342 189.871 12.3342C190.194 12.3342 190.513 12.3989 190.81 12.5245C191.108 12.6501 191.377 12.834 191.602 13.0654C192.066 13.5616 192.314 14.2212 192.293 14.9001V27.269C192.293 29.1474 192.625 30.6976 193.289 31.9195C193.891 33.081 194.835 34.0291 195.994 34.6351C197.186 35.2333 198.504 35.5349 199.837 35.5144C201.099 35.5343 202.345 35.2373 203.462 34.6507C204.491 34.108 205.364 33.3119 206 32.3376C206.633 31.3669 206.964 30.2299 206.95 29.0708H209.94C209.967 31.0431 209.467 32.9868 208.491 34.7008C207.554 36.351 206.195 37.7222 204.553 38.6741C202.896 39.653 201.006 40.1413 198.884 40.139ZM209.372 39.8885C209.049 39.8959 208.728 39.8348 208.43 39.7092C208.133 39.5835 207.865 39.3962 207.645 39.1595C207.182 38.6634 206.933 38.0037 206.955 37.3249V14.9001C206.955 14.1296 207.185 13.5094 207.645 13.0395C208.114 12.5884 208.739 12.3365 209.39 12.3365C210.04 12.3365 210.665 12.5884 211.134 13.0395C211.576 13.5094 211.798 14.1296 211.799 14.9001V37.3249C211.821 37.9992 211.583 38.6563 211.134 39.1595C210.911 39.4014 210.639 39.5919 210.335 39.7178C210.031 39.8437 209.704 39.9019 209.375 39.8885H209.372Z" fill="black"/>
<path d="M229.786 40.0889C227.688 40.1101 225.605 39.7441 223.64 39.0092C221.758 38.2894 220.295 37.3761 219.251 36.2693C219.024 36.0256 218.852 35.7348 218.75 35.4174C218.647 35.1 218.616 34.7639 218.657 34.433C218.691 34.1044 218.79 33.7858 218.949 33.4964C219.108 33.207 219.323 32.9527 219.583 32.7487C220.215 32.2131 220.84 31.9868 221.458 32.0697C222.078 32.1566 222.645 32.4705 223.048 32.9508C223.585 33.5865 224.448 34.1813 225.637 34.7353C226.883 35.3016 228.239 35.5848 229.608 35.5645C231.441 35.5645 232.841 35.246 233.806 34.6092C234.772 33.9723 235.27 33.1512 235.301 32.1457C235.332 31.1403 234.882 30.2691 233.949 29.532C233.017 28.7949 231.317 28.1915 228.848 27.7216C225.652 27.0513 223.335 26.0459 221.896 24.7054C221.204 24.0869 220.653 23.3267 220.28 22.4763C219.907 21.6259 219.722 20.7052 219.736 19.7768C219.736 18.0677 220.211 16.6517 221.161 15.5288C222.138 14.3858 223.399 13.5192 224.815 13.0153C226.303 12.4623 227.878 12.1815 229.464 12.1861C231.553 12.1861 233.404 12.5379 235.016 13.2416C236.629 13.9453 237.91 14.9173 238.861 16.1576C239.276 16.6185 239.497 17.222 239.477 17.842C239.46 18.1334 239.379 18.4175 239.24 18.674C239.1 18.9305 238.906 19.1531 238.671 19.3259C238.412 19.5086 238.117 19.634 237.806 19.6936C237.495 19.7532 237.175 19.7456 236.867 19.6714C236.204 19.5548 235.591 19.2391 235.111 18.7662C234.403 18.0151 233.524 17.4462 232.549 17.1078C231.52 16.7896 230.447 16.6368 229.369 16.6552C227.978 16.6552 226.8 16.9062 225.834 17.4084C224.868 17.9105 224.386 18.6481 224.387 19.6213C224.38 20.1977 224.536 20.7645 224.838 21.2555C225.138 21.7427 225.731 22.1786 226.618 22.5632C227.504 22.9479 228.801 23.3251 230.509 23.6948C232.881 24.1969 234.755 24.8303 236.132 25.595C237.508 26.3597 238.497 27.2563 239.097 28.2848C239.712 29.3632 240.024 30.5882 239.999 31.8296C240.018 33.3034 239.615 34.7518 238.837 36.0033C238.061 37.2436 236.922 38.2323 235.42 38.9694C233.918 39.7065 232.04 40.0796 229.786 40.0889Z" fill="black"/>
<path d="M31.4281 12.2552H33.3961V13.4368H21.5879V4.76811H23.9495L27.4937 1.61713H27.8873L31.4315 4.76811H33.3996V5.95145H31.4281V8.65155L43.9821 5.79426C40.9587 3.42372 37.4679 1.72071 33.7395 0.797302C30.011 -0.126102 26.1295 -0.248968 22.3502 0.436785C18.5709 1.12254 14.9795 2.60137 11.8125 4.77595C8.64538 6.95054 5.97437 9.7716 3.97523 13.0535C1.97608 16.3354 0.694126 20.0036 0.213674 23.817C-0.266778 27.6303 0.0651578 31.5022 1.1877 35.178C2.31023 38.8537 4.1979 42.2498 6.72647 45.143C9.25504 48.0362 12.3672 50.3607 15.8582 51.9637C16.1516 51.2727 17.2617 48.6313 17.6622 47.0265C18.0178 45.6013 18.5909 41.4553 18.5909 41.4553H35.9511C35.9511 41.4553 36.5605 46.3821 36.69 47.0265C37.094 49.0477 38.2006 51.4196 38.4802 52C41.9869 50.4014 45.1143 48.0758 47.6554 45.1772C50.1966 42.2785 52.0936 38.8728 53.2208 35.1855C54.3481 31.4982 54.6799 27.6134 54.1943 23.7881C53.7087 19.9629 52.4168 16.2844 50.4041 12.9962L31.4315 8.67747L31.4281 12.2552ZM34.7962 31.9108H20.0964L20.9716 21.5785H33.9192L34.7962 31.9108Z" fill="black"/>
<path d="M87.8159 12.998V12.9565L87.7262 12.9773L87.8159 12.998Z" fill="black"/>
</svg>
