<svg width="240" height="52" viewBox="0 0 240 52" fill="none" xmlns="http://www.w3.org/2000/svg">
<path d="M69.539 51.6545C69.2161 51.6619 68.8953 51.6008 68.5977 51.4751C68.3001 51.3495 68.0326 51.1621 67.8126 50.9255C67.3485 50.4297 67.1001 49.7698 67.1221 49.0908V26.1633C67.1531 23.5145 67.7384 21.1345 68.8778 19.0235C69.9571 16.9713 71.5614 15.2426 73.5269 14.0137C75.4834 12.7907 77.6983 12.1791 80.1716 12.1791C82.6702 12.1791 84.9001 12.7907 86.8612 14.0137C88.8295 15.2466 90.4407 16.9738 91.5344 19.0235C92.6853 21.1345 93.2608 23.5145 93.2608 26.1633C93.2608 28.8122 92.7308 31.1835 91.6708 33.2772C90.6843 35.2882 89.1871 37.0045 87.329 38.2542C85.6527 39.3399 83.7212 39.9669 81.7271 40.0726C79.7331 40.1784 77.7461 39.7593 75.9644 38.8571C74.4049 38.0415 73.0376 36.9018 71.9541 35.5143V49.0891C71.9773 49.7632 71.7399 50.4204 71.2912 50.9237C71.0693 51.1651 70.7977 51.3554 70.4952 51.4815C70.1927 51.6077 69.8665 51.6667 69.539 51.6545ZM80.1681 35.5662C81.6966 35.5903 83.1982 35.1618 84.484 34.3344C85.7654 33.4946 86.8041 32.3331 87.4965 30.9658C88.2539 29.4805 88.6368 27.8324 88.6117 26.165C88.6405 24.4808 88.2577 22.815 87.4965 21.3125C86.8031 19.9459 85.7646 18.7846 84.484 17.9438C83.1917 17.1388 81.6999 16.7121 80.1776 16.7121C78.6553 16.7121 77.1635 17.1388 75.8712 17.9438C74.5822 18.7747 73.5414 19.9386 72.8587 21.3125C72.1114 22.8191 71.7366 24.4833 71.7659 26.165C71.7402 27.8298 72.1151 29.4764 72.8587 30.9658C73.5404 32.3404 74.5814 33.5045 75.8712 34.3344C77.1526 35.1559 78.6465 35.5835 80.1681 35.5644V35.5662Z" fill="black"/>
<path d="M102.899 29.8879C102.576 29.896 102.255 29.8351 101.957 29.7094C101.66 29.5837 101.392 29.3961 101.173 29.1589C100.709 28.663 100.46 28.0032 100.482 27.3242V3.1909C100.482 2.42043 100.712 1.80025 101.173 1.33036C101.641 0.879379 102.266 0.627487 102.916 0.627487C103.566 0.627487 104.191 0.879379 104.66 1.33036C105.102 1.80025 105.323 2.42043 105.324 3.1909V27.3242C105.347 27.9986 105.109 28.6556 104.66 29.1589C104.437 29.4013 104.164 29.5921 103.86 29.718C103.556 29.8439 103.228 29.9019 102.899 29.8879ZM102.899 39.9437C102.576 39.9518 102.255 39.891 101.957 39.7653C101.66 39.6396 101.392 39.4519 101.173 39.2147C100.709 38.7189 100.46 38.059 100.482 37.3801V14.957C100.482 14.1848 100.712 13.575 101.173 13.0965C101.641 12.6443 102.266 12.3915 102.916 12.3915C103.567 12.3915 104.192 12.6443 104.66 13.0965C105.102 13.5663 105.324 14.1848 105.324 14.957V37.3801C105.347 38.0544 105.109 38.7115 104.66 39.2147C104.437 39.4562 104.163 39.646 103.859 39.771C103.555 39.8961 103.227 39.9532 102.899 39.9385V39.9437ZM122.407 39.9437C122.084 39.9518 121.763 39.891 121.465 39.7653C121.167 39.6396 120.9 39.4519 120.68 39.2147C120.216 38.7189 119.968 38.059 119.99 37.3801V25.0111C119.99 23.1005 119.658 21.5422 118.994 20.3364C118.391 19.1906 117.456 18.2532 116.313 17.6467C115.115 17.0419 113.787 16.7395 112.446 16.7657C111.191 16.7505 109.951 17.0473 108.839 17.6294C107.805 18.1619 106.924 18.9491 106.277 19.9167C105.638 20.8939 105.307 22.0413 105.328 23.2093H102.338C102.338 21.0983 102.821 19.213 103.786 17.5534C104.734 15.9103 106.102 14.5486 107.748 13.6078C109.466 12.6245 111.416 12.1209 113.395 12.1498C115.582 12.1498 117.535 12.6438 119.254 13.632C120.974 14.6201 122.334 16.0701 123.335 17.9818C124.332 19.8925 124.831 22.2384 124.831 25.0197V37.3887C124.852 38.0677 124.604 38.7275 124.14 39.2233C123.918 39.4588 123.649 39.6444 123.35 39.7677C123.051 39.891 122.73 39.9493 122.407 39.9385V39.9437Z" fill="black"/>
<path d="M143.703 40.0888C141.494 40.1195 139.327 39.4799 137.488 38.2542C135.629 37.0053 134.132 35.2888 133.146 33.2772C132.084 31.1823 131.554 28.811 131.556 26.1633C131.559 23.5156 132.134 21.1357 133.283 19.0235C134.381 16.969 136.001 15.2409 137.98 14.0137C139.984 12.7835 142.296 12.1473 144.647 12.1791C147.114 12.1791 149.328 12.7907 151.29 14.0137C153.259 15.2466 154.87 16.9738 155.964 19.0235C157.114 21.1345 157.69 23.5145 157.69 26.1633H155.839C155.839 28.8122 155.309 31.1835 154.249 33.2772C153.263 35.2882 151.766 37.0045 149.908 38.2542C148.071 39.4773 145.909 40.1168 143.703 40.0888ZM144.653 35.5644C146.181 35.5889 147.683 35.1604 148.968 34.3327C150.247 33.4967 151.28 32.3336 151.958 30.9641C152.701 29.4742 153.075 27.8279 153.049 26.1633C153.079 24.4818 152.704 22.8178 151.958 21.3107C151.279 19.9419 150.247 18.779 148.968 17.9421C147.676 17.137 146.184 16.7103 144.662 16.7103C143.14 16.7103 141.648 17.137 140.356 17.9421C139.064 18.7767 138.016 19.9391 137.319 21.3107C136.558 22.8132 136.175 24.479 136.204 26.1633C136.179 27.8306 136.562 29.4788 137.319 30.9641C138.015 32.3364 139.063 33.499 140.356 34.3327C141.637 35.1546 143.131 35.5828 144.653 35.5644ZM155.282 39.9385C154.959 39.9466 154.638 39.8858 154.34 39.7601C154.042 39.6344 153.775 39.4467 153.555 39.2095C153.091 38.7136 152.843 38.0538 152.865 37.3749V29.6823L153.766 24.3529L157.705 26.1633V37.3749C157.727 38.0538 157.479 38.7136 157.015 39.2095C156.794 39.4475 156.526 39.6356 156.227 39.7614C155.928 39.8871 155.606 39.9475 155.282 39.9385Z" fill="black"/>
<path d="M167.292 39.8884C166.532 39.8884 165.947 39.6788 165.536 39.2596C165.125 38.8404 164.919 38.2122 164.918 37.3749V14.9C164.918 14.0938 165.124 13.4736 165.536 13.0394C165.947 12.6058 166.532 12.3864 167.292 12.3864C168.081 12.3864 168.674 12.596 169.07 13.0153C169.466 13.4345 169.664 14.0627 169.664 14.9V37.3749C169.664 38.1782 169.465 38.8001 169.07 39.2354C168.675 39.6708 168.076 39.8884 167.292 39.8884ZM167.243 22.6928C167.214 20.8374 167.678 19.0075 168.588 17.3907C169.498 15.7739 170.822 14.4284 172.423 13.4921C174.002 12.5548 175.807 12.0685 177.643 12.0859C179.541 12.0859 180.956 12.4124 181.89 13.0654C182.823 13.7184 183.179 14.4975 182.957 15.4027C182.893 15.8115 182.702 16.1899 182.411 16.4841C182.155 16.7291 181.834 16.8953 181.486 16.9626C181.107 17.0288 180.718 17.0111 180.347 16.9108C178.321 16.4766 176.502 16.4432 174.889 16.8106C173.277 17.178 172.004 17.8655 171.071 18.8733C170.136 19.8787 169.67 21.1518 169.671 22.6928H167.243Z" fill="black"/>
<path d="M198.884 40.1389C196.697 40.1389 194.744 39.6448 193.025 38.6567C191.305 37.6685 189.945 36.2186 188.944 34.3068C187.947 32.3985 187.449 30.0525 187.449 27.2689V14.9C187.427 14.2211 187.676 13.5615 188.139 13.0653C188.364 12.8339 188.634 12.65 188.931 12.5244C189.228 12.3988 189.548 12.3341 189.871 12.3341C190.194 12.3341 190.513 12.3988 190.81 12.5244C191.108 12.65 191.377 12.8339 191.602 13.0653C192.066 13.5615 192.314 14.2211 192.293 14.9V27.2689C192.293 29.1473 192.625 30.6975 193.289 31.9194C193.891 33.0809 194.835 34.029 195.994 34.635C197.186 35.2332 198.504 35.5348 199.837 35.5143C201.099 35.5342 202.345 35.2372 203.462 34.6506C204.491 34.1079 205.364 33.3118 206 32.3375C206.633 31.3668 206.964 30.2297 206.95 29.0707H209.94C209.967 31.043 209.467 32.9867 208.491 34.7007C207.554 36.3509 206.195 37.7221 204.553 38.6739C202.896 39.6529 201.006 40.1412 198.884 40.1389ZM209.372 39.8884C209.049 39.8958 208.728 39.8347 208.43 39.709C208.133 39.5834 207.865 39.3961 207.645 39.1594C207.182 38.6632 206.933 38.0036 206.955 37.3248V14.9C206.955 14.1295 207.185 13.5093 207.645 13.0394C208.114 12.5883 208.739 12.3364 209.39 12.3364C210.04 12.3364 210.665 12.5883 211.134 13.0394C211.576 13.5093 211.798 14.1295 211.799 14.9V37.3248C211.821 37.9991 211.583 38.6562 211.134 39.1594C210.911 39.4013 210.639 39.5918 210.335 39.7177C210.031 39.8436 209.704 39.9018 209.375 39.8884H209.372Z" fill="black"/>
<path d="M229.786 40.0888C227.688 40.11 225.605 39.744 223.64 39.0091C221.758 38.2893 220.295 37.376 219.251 36.2693C219.024 36.0256 218.852 35.7347 218.75 35.4174C218.647 35.1 218.616 34.7639 218.657 34.4329C218.691 34.1043 218.79 33.7858 218.949 33.4964C219.108 33.207 219.323 32.9527 219.583 32.7486C220.215 32.2131 220.84 31.9868 221.458 32.0697C222.078 32.1566 222.645 32.4704 223.048 32.9507C223.585 33.5865 224.448 34.1813 225.637 34.7353C226.883 35.3016 228.239 35.5847 229.608 35.5645C231.441 35.5645 232.841 35.246 233.806 34.6091C234.772 33.9723 235.27 33.1511 235.301 32.1457C235.332 31.1403 234.882 30.2691 233.95 29.532C233.017 28.7949 231.317 28.1914 228.848 27.7216C225.652 27.0513 223.335 26.0459 221.896 24.7053C221.204 24.0869 220.653 23.3267 220.28 22.4763C219.908 21.6259 219.722 20.7052 219.736 19.7767C219.736 18.0676 220.211 16.6517 221.161 15.5288C222.139 14.3858 223.399 13.5191 224.815 13.0152C226.303 12.4623 227.878 12.1814 229.464 12.1861C231.553 12.1861 233.404 12.5379 235.016 13.2416C236.629 13.9452 237.91 14.9172 238.861 16.1576C239.276 16.6185 239.497 17.222 239.477 17.8419C239.46 18.1334 239.379 18.4175 239.24 18.674C239.1 18.9305 238.906 19.1531 238.671 19.3258C238.412 19.5086 238.117 19.634 237.806 19.6936C237.495 19.7531 237.175 19.7456 236.867 19.6714C236.204 19.5547 235.591 19.239 235.111 18.7661C234.403 18.0151 233.524 17.4462 232.549 17.1077C231.52 16.7895 230.447 16.6367 229.369 16.6551C227.978 16.6551 226.8 16.9062 225.834 17.4083C224.868 17.9104 224.386 18.6481 224.387 19.6212C224.38 20.1977 224.536 20.7644 224.838 21.2555C225.138 21.7426 225.731 22.1785 226.618 22.5632C227.504 22.9479 228.801 23.325 230.509 23.6947C232.881 24.1969 234.755 24.8303 236.132 25.595C237.508 26.3597 238.497 27.2563 239.097 28.2847C239.712 29.3632 240.024 30.5882 239.999 31.8296C240.018 33.3033 239.615 34.7518 238.837 36.0033C238.061 37.2436 236.922 38.2323 235.42 38.9694C233.918 39.7064 232.04 40.0796 229.786 40.0888Z" fill="black"/>
<path d="M31.4281 12.2552H33.3961V13.4368H21.5879V4.76811H23.9495L27.4937 1.61713H27.8873L31.4315 4.76811H33.3996V5.95145H31.4281V8.65155L43.9821 5.79426C40.9587 3.42372 37.4679 1.72071 33.7395 0.797302C30.011 -0.126102 26.1295 -0.248968 22.3502 0.436785C18.5709 1.12254 14.9795 2.60137 11.8125 4.77595C8.64538 6.95054 5.97437 9.7716 3.97523 13.0535C1.97608 16.3354 0.694126 20.0036 0.213674 23.817C-0.266778 27.6303 0.0651578 31.5022 1.1877 35.178C2.31023 38.8537 4.1979 42.2498 6.72647 45.143C9.25504 48.0362 12.3672 50.3607 15.8582 51.9637C16.1516 51.2727 17.2617 48.6313 17.6622 47.0265C18.0178 45.6013 18.5909 41.4553 18.5909 41.4553H35.9511C35.9511 41.4553 36.5605 46.3821 36.69 47.0265C37.094 49.0477 38.2006 51.4196 38.4802 52C41.9869 50.4014 45.1143 48.0758 47.6554 45.1772C50.1966 42.2785 52.0936 38.8728 53.2208 35.1855C54.3481 31.4982 54.6799 27.6134 54.1943 23.7881C53.7087 19.9629 52.4168 16.2844 50.4041 12.9962L31.4315 8.67747L31.4281 12.2552ZM34.7962 31.9108H20.0964L20.9716 21.5785H33.9192L34.7962 31.9108Z" fill="black"/>
<path d="M87.8159 12.998V12.9565L87.7262 12.9772L87.8159 12.998Z" fill="black"/>
</svg>
