<svg width="318" height="69" viewBox="0 0 318 69" fill="none" xmlns="http://www.w3.org/2000/svg">
<path d="M92.1391 68.5414C91.7113 68.5513 91.2862 68.4702 90.8919 68.3034C90.4976 68.1367 90.1431 67.8881 89.8517 67.5741C89.2367 66.9163 88.9076 66.0406 88.9367 65.1396V34.7166C88.9779 31.2018 89.7533 28.0438 91.263 25.2426C92.6931 22.5195 94.8189 20.2256 97.4231 18.595C100.015 16.9721 102.95 16.1606 106.227 16.1606C109.538 16.1606 112.493 16.9721 115.091 18.595C117.699 20.2309 119.834 22.5228 121.283 25.2426C122.808 28.0438 123.57 31.2018 123.57 34.7166C123.57 38.2314 122.868 41.378 121.464 44.1562C120.157 46.8246 118.173 49.1021 115.711 50.7602C113.49 52.2009 110.931 53.0328 108.288 53.1732C105.646 53.3136 103.014 52.7574 100.653 51.5602C98.5865 50.4781 96.7748 48.9657 95.3392 47.1247V65.1373C95.3699 66.0319 95.0553 66.9038 94.4608 67.5718C94.1668 67.892 93.8069 68.1445 93.4061 68.3119C93.0053 68.4793 92.573 68.5576 92.1391 68.5414ZM106.223 47.1935C108.248 47.2255 110.238 46.6569 111.941 45.5591C113.639 44.4447 115.015 42.9034 115.933 41.0891C116.936 39.1183 117.444 36.9313 117.41 34.7189C117.449 32.484 116.941 30.2736 115.933 28.2799C115.014 26.4665 113.638 24.9256 111.941 23.81C110.229 22.7417 108.252 22.1755 106.235 22.1755C104.218 22.1755 102.242 22.7417 100.529 23.81C98.8214 24.9125 97.4423 26.4569 96.5378 28.2799C95.5476 30.2791 95.051 32.4873 95.0898 34.7189C95.0558 36.9279 95.5524 39.1128 96.5378 41.0891C97.441 42.9131 98.8203 44.4577 100.529 45.5591C102.227 46.6491 104.207 47.2165 106.223 47.1912V47.1935Z" fill="white"/>
<path d="M136.341 39.6588C135.913 39.6695 135.488 39.5888 135.093 39.422C134.699 39.2552 134.345 39.0062 134.054 38.6915C133.439 38.0335 133.11 37.158 133.139 36.2571V4.23397C133.139 3.21161 133.444 2.38868 134.054 1.76518C134.675 1.16676 135.503 0.83252 136.364 0.83252C137.225 0.83252 138.053 1.16676 138.674 1.76518C139.26 2.38868 139.553 3.21161 139.555 4.23397V36.2571C139.585 37.1518 139.269 38.0237 138.674 38.6915C138.379 39.0131 138.017 39.2663 137.614 39.4334C137.211 39.6005 136.777 39.6774 136.341 39.6588ZM136.341 53.0021C135.913 53.0129 135.488 52.9321 135.093 52.7654C134.699 52.5986 134.345 52.3495 134.054 52.0348C133.439 51.3768 133.11 50.5013 133.139 49.6004V19.8466C133.139 18.822 133.443 18.0128 134.054 17.3779C134.674 16.7779 135.502 16.4425 136.364 16.4425C137.226 16.4425 138.054 16.7779 138.674 17.3779C139.26 18.0014 139.555 18.822 139.555 19.8466V49.6004C139.585 50.4952 139.269 51.3671 138.674 52.0348C138.378 52.3552 138.016 52.6071 137.613 52.773C137.21 52.9389 136.776 53.0147 136.341 52.9953V53.0021ZM162.189 53.0021C161.761 53.0129 161.336 52.9321 160.941 52.7654C160.547 52.5986 160.192 52.3495 159.901 52.0348C159.287 51.3768 158.958 50.5013 158.986 49.6004V33.1877C158.986 30.6524 158.547 28.5848 157.667 26.9848C156.867 25.4643 155.629 24.2205 154.114 23.4157C152.527 22.6132 150.768 22.2119 148.99 22.2467C147.328 22.2265 145.686 22.6203 144.212 23.3928C142.842 24.0994 141.674 25.1438 140.818 26.4278C139.97 27.7245 139.532 29.2469 139.559 30.7968H135.598C135.598 27.9957 136.237 25.4941 137.517 23.2919C138.773 21.1116 140.585 19.3048 142.766 18.0564C145.043 16.7516 147.627 16.0834 150.249 16.1217C153.146 16.1217 155.734 16.7773 158.012 18.0885C160.29 19.3997 162.093 21.3236 163.419 23.8604C164.74 26.3957 165.4 29.5086 165.4 33.1991V49.6119C165.429 50.5127 165.1 51.3883 164.485 52.0462C164.192 52.3587 163.835 52.605 163.439 52.7686C163.043 52.9322 162.617 53.0095 162.189 52.9953V53.0021Z" fill="white"/>
<path d="M190.407 53.1947C187.479 53.2354 184.608 52.3867 182.172 50.7603C179.709 49.1031 177.725 46.8254 176.419 44.1562C175.011 41.3765 174.309 38.2299 174.312 34.7166C174.315 31.2033 175.078 28.0454 176.6 25.2427C178.054 22.5165 180.201 20.2234 182.824 18.5951C185.479 16.9626 188.543 16.1185 191.658 16.1607C194.926 16.1607 197.86 16.9722 200.46 18.5951C203.068 20.2309 205.202 22.5229 206.652 25.2427C208.177 28.0438 208.939 31.2018 208.939 34.7166H206.487C206.487 38.2315 205.785 41.378 204.38 44.1562C203.073 46.8247 201.089 49.1021 198.627 50.7603C196.194 52.3833 193.329 53.2318 190.407 53.1947ZM191.665 47.1912C193.69 47.2237 195.68 46.655 197.383 45.5568C199.078 44.4474 200.446 42.9042 201.345 41.0869C202.328 39.11 202.824 36.9254 202.791 34.7166C202.829 32.4854 202.333 30.2774 201.345 28.2776C200.444 26.4612 199.077 24.9183 197.383 23.8077C195.671 22.7395 193.694 22.1733 191.677 22.1733C189.66 22.1733 187.683 22.7395 185.971 23.8077C184.259 24.9152 182.871 26.4575 181.948 28.2776C180.939 30.2713 180.432 32.4817 180.47 34.7166C180.437 36.929 180.944 39.116 181.948 41.0869C182.87 42.9079 184.258 44.4505 185.971 45.5568C187.669 46.6474 189.648 47.2156 191.665 47.1912ZM205.748 52.9953C205.32 53.006 204.895 52.9253 204.5 52.7585C204.106 52.5917 203.752 52.3426 203.461 52.0279C202.846 51.37 202.517 50.4944 202.546 49.5935V39.386L203.74 32.3143L208.96 34.7166V49.5935C208.989 50.4944 208.659 51.37 208.045 52.0279C207.753 52.3437 207.397 52.5934 207.001 52.7602C206.605 52.927 206.178 53.0072 205.748 52.9953Z" fill="white"/>
<path d="M221.662 52.9289C220.655 52.9289 219.88 52.6507 219.335 52.0945C218.791 51.5382 218.518 50.7046 218.516 49.5936V19.7711C218.516 18.7014 218.789 17.8784 219.335 17.3023C219.88 16.727 220.655 16.4358 221.662 16.4358C222.708 16.4358 223.493 16.714 224.018 17.2702C224.542 17.8265 224.805 18.6601 224.805 19.7711V49.5936C224.805 50.6595 224.542 51.4847 224.018 52.0624C223.494 52.64 222.7 52.9289 221.662 52.9289ZM221.598 30.1115C221.558 27.6496 222.173 25.2215 223.379 23.0761C224.585 20.9307 226.339 19.1453 228.46 17.9029C230.552 16.6593 232.944 16.0139 235.377 16.037C237.892 16.037 239.767 16.4702 241.004 17.3367C242.241 18.2032 242.712 19.237 242.418 20.4382C242.333 20.9807 242.08 21.4827 241.695 21.8731C241.355 22.1983 240.93 22.4187 240.469 22.5081C239.967 22.5959 239.451 22.5724 238.959 22.4393C236.275 21.8632 233.865 21.8189 231.729 22.3064C229.592 22.7939 227.906 23.7062 226.669 25.0433C225.431 26.3774 224.812 28.0668 224.814 30.1115H221.598Z" fill="white"/>
<path d="M263.521 53.2612C260.624 53.2612 258.036 52.6057 255.758 51.2945C253.48 49.9833 251.677 48.0593 250.35 45.5225C249.03 42.9903 248.369 39.8774 248.369 36.1838V19.7711C248.341 18.8703 248.67 17.9951 249.284 17.3367C249.583 17.0297 249.94 16.7856 250.334 16.619C250.728 16.4523 251.151 16.3665 251.579 16.3665C252.006 16.3665 252.43 16.4523 252.824 16.619C253.218 16.7856 253.575 17.0297 253.873 17.3367C254.487 17.9951 254.816 18.8703 254.788 19.7711V36.1838C254.788 38.6763 255.228 40.7332 256.108 42.3546C256.905 43.8958 258.157 45.1539 259.692 45.9581C261.271 46.7518 263.018 47.152 264.784 47.1248C266.456 47.1511 268.107 46.7571 269.588 45.9787C270.95 45.2585 272.108 44.2022 272.95 42.9093C273.789 41.6214 274.227 40.1126 274.208 38.5746H278.17C278.206 41.1917 277.543 43.7708 276.251 46.0452C275.008 48.2349 273.208 50.0544 271.033 51.3174C268.837 52.6163 266.333 53.2643 263.521 53.2612ZM277.417 52.9289C276.989 52.9387 276.564 52.8576 276.17 52.6909C275.776 52.5241 275.421 52.2756 275.13 51.9615C274.516 51.3032 274.187 50.4279 274.215 49.5271V19.7711C274.215 18.7488 274.52 17.9258 275.13 17.3023C275.751 16.7038 276.58 16.3694 277.441 16.3694C278.303 16.3694 279.132 16.7038 279.753 17.3023C280.338 17.9258 280.632 18.7488 280.633 19.7711V49.5271C280.663 50.4219 280.348 51.2938 279.753 51.9615C279.458 52.2825 279.096 52.5353 278.694 52.7024C278.291 52.8694 277.857 52.9467 277.422 52.9289H277.417Z" fill="white"/>
<path d="M304.466 53.1948C301.687 53.223 298.926 52.7373 296.323 51.7621C293.829 50.807 291.891 49.5952 290.508 48.1266C290.206 47.8032 289.98 47.4173 289.844 46.9962C289.708 46.575 289.666 46.1291 289.721 45.6899C289.765 45.2539 289.896 44.8312 290.107 44.4472C290.317 44.0631 290.603 43.7257 290.947 43.4549C291.784 42.7443 292.612 42.444 293.431 42.5541C294.254 42.6693 295.004 43.0858 295.538 43.7231C296.25 44.5667 297.394 45.356 298.969 46.0911C300.62 46.8425 302.417 47.2182 304.23 47.1913C306.659 47.1913 308.514 46.7688 309.793 45.9237C311.073 45.0786 311.733 43.989 311.774 42.6549C311.815 41.3208 311.218 40.1647 309.983 39.1867C308.748 38.2087 306.495 37.4079 303.224 36.7844C298.989 35.895 295.919 34.5609 294.012 32.7821C293.095 31.9615 292.365 30.9527 291.871 29.8243C291.377 28.6959 291.132 27.4742 291.151 26.2422C291.151 23.9744 291.78 22.0955 293.038 20.6055C294.334 19.0889 296.003 17.9389 297.88 17.2703C299.851 16.5365 301.938 16.1639 304.04 16.17C306.808 16.17 309.26 16.6369 311.397 17.5706C313.533 18.5043 315.231 19.7941 316.491 21.4399C317.04 22.0515 317.333 22.8523 317.307 23.6749C317.285 24.0616 317.177 24.4386 316.993 24.779C316.808 25.1193 316.551 25.4147 316.239 25.644C315.896 25.8865 315.506 26.0528 315.093 26.1319C314.681 26.2109 314.257 26.2009 313.849 26.1024C312.97 25.9477 312.158 25.5288 311.523 24.9013C310.584 23.9047 309.42 23.1498 308.128 22.7007C306.764 22.2784 305.342 22.0757 303.915 22.1001C302.071 22.1001 300.509 22.4333 299.23 23.0995C297.951 23.7658 297.312 24.7446 297.313 26.0359C297.303 26.8008 297.51 27.5528 297.91 28.2044C298.308 28.8509 299.094 29.4293 300.268 29.9397C301.443 30.4501 303.161 30.9506 305.424 31.4411C308.567 32.1074 311.051 32.9479 312.874 33.9626C314.698 34.9773 316.008 36.167 316.804 37.5317C317.619 38.9627 318.031 40.5882 317.998 42.2354C318.024 44.191 317.49 46.113 316.459 47.7736C315.431 49.4194 313.922 50.7314 311.932 51.7094C309.942 52.6874 307.453 53.1826 304.466 53.1948Z" fill="white"/>
<path d="M41.6422 16.2617H44.2499V17.8296H28.604V6.32692H31.7331L36.4292 2.14581H36.9507L41.6468 6.32692H44.2544V7.89712H41.6422V11.4799L58.2763 7.68854C54.2703 4.54301 49.645 2.28324 44.7048 1.05796C39.7646 -0.167328 34.6216 -0.330361 29.614 0.57958C24.6064 1.48952 19.8479 3.45181 15.6515 6.33732C11.4551 9.22284 7.91604 12.9662 5.26717 17.321C2.61831 21.6758 0.919717 26.5433 0.283118 31.6033C-0.353481 36.6633 0.0863341 41.8011 1.5737 46.6784C3.06106 51.5558 5.56222 56.0623 8.91257 59.9013C12.2629 63.7403 16.3866 66.8248 21.0121 68.9519C21.4009 68.035 22.8717 64.5301 23.4024 62.4005C23.8736 60.5094 24.633 55.0079 24.633 55.0079H47.6352C47.6352 55.0079 48.4427 61.5455 48.6143 62.4005C49.1495 65.0825 50.6158 68.2298 50.9863 69C55.6326 66.8788 59.7764 63.793 63.1435 59.9466C66.5105 56.1003 69.024 51.5812 70.5176 46.6884C72.0112 41.7956 72.4509 36.6408 71.8075 31.565C71.1641 26.4892 69.4523 21.6082 66.7854 17.245L41.6468 11.5143L41.6422 16.2617ZM46.105 42.3431H26.6277L27.7874 28.6331H44.9429L46.105 42.3431Z" fill="white"/>
<path d="M116.356 17.2474V17.1924L116.237 17.2199L116.356 17.2474Z" fill="white"/>
</svg>
