<svg width="319" height="69" viewBox="0 0 319 69" fill="none" xmlns="http://www.w3.org/2000/svg">
<path d="M92.4288 68.5414C91.9997 68.5513 91.5732 68.4701 91.1777 68.3034C90.7822 68.1367 90.4266 67.8881 90.1342 67.5741C89.5173 66.9163 89.1872 66.0406 89.2164 65.1397V34.7166C89.2577 31.2018 90.0355 28.0438 91.55 25.2426C92.9846 22.5195 95.1171 20.2256 97.7294 18.595C100.33 16.9721 103.274 16.1606 106.561 16.1606C109.882 16.1606 112.846 16.9721 115.453 18.595C118.069 20.2309 120.211 22.5228 121.664 25.2426C123.194 28.0438 123.959 31.2018 123.959 34.7166C123.959 38.2314 123.255 41.378 121.846 44.1562C120.535 46.8246 118.544 49.1021 116.075 50.7602C113.847 52.2009 111.279 53.0328 108.629 53.1732C105.979 53.3136 103.338 52.7574 100.969 51.5602C98.8965 50.4781 97.0791 48.9657 95.639 47.1247V65.1374C95.6698 66.0319 95.3542 66.9038 94.7578 67.5718C94.4629 67.892 94.1019 68.1445 93.6998 68.3119C93.2978 68.4793 92.8641 68.5576 92.4288 68.5414ZM106.557 47.1935C108.588 47.2255 110.584 46.6569 112.293 45.5591C113.996 44.4447 115.377 42.9034 116.297 41.0891C117.304 39.1183 117.813 36.9313 117.78 34.7189C117.818 32.484 117.309 30.2736 116.297 28.2799C115.376 26.4665 113.995 24.9256 112.293 23.81C110.576 22.7417 108.593 22.1755 106.569 22.1755C104.546 22.1755 102.563 22.7417 100.845 23.81C99.1321 24.9125 97.7487 26.4569 96.8414 28.2799C95.848 30.2791 95.3499 32.4873 95.3889 34.7189C95.3547 36.9279 95.8529 39.1128 96.8414 41.0891C97.7474 42.9131 99.1311 44.4577 100.845 45.5591C102.549 46.6491 104.534 47.2165 106.557 47.1912V47.1935Z" fill="#7116FA"/>
<path d="M136.77 39.6588C136.341 39.6696 135.914 39.5889 135.518 39.4221C135.123 39.2553 134.767 39.0062 134.475 38.6915C133.859 38.0336 133.528 37.158 133.557 36.2571V4.22715C133.557 3.20479 133.863 2.38186 134.475 1.75836C135.098 1.15994 135.929 0.825684 136.793 0.825684C137.657 0.825684 138.488 1.15994 139.11 1.75836C139.698 2.38186 139.992 3.20479 139.994 4.22715V36.2502C140.024 37.145 139.707 38.0169 139.11 38.6846C138.815 39.0075 138.452 39.262 138.048 39.4303C137.644 39.5986 137.207 39.6766 136.77 39.6588ZM136.77 53.0022C136.341 53.0129 135.914 52.9322 135.518 52.7654C135.123 52.5986 134.767 52.3496 134.475 52.0348C133.859 51.3769 133.528 50.5013 133.557 49.6004V19.8398C133.557 18.8152 133.863 18.006 134.475 17.3711C135.097 16.771 135.928 16.4357 136.793 16.4357C137.657 16.4357 138.488 16.771 139.11 17.3711C139.698 17.9946 139.994 18.8152 139.994 19.8398V49.5935C140.024 50.4883 139.707 51.3602 139.11 52.0279C138.814 52.3496 138.451 52.6028 138.047 52.7699C137.643 52.937 137.207 53.0139 136.77 52.9953V53.0022ZM162.699 53.0022C162.27 53.0129 161.843 52.9322 161.447 52.7654C161.052 52.5986 160.696 52.3496 160.404 52.0348C159.788 51.3769 159.457 50.5013 159.486 49.6004V33.1877C159.486 30.6525 159.045 28.5849 158.162 26.9849C157.361 25.4644 156.119 24.2206 154.599 23.4158C153.007 22.6132 151.242 22.2119 149.459 22.2467C147.791 22.2265 146.144 22.6203 144.666 23.3928C143.291 24.0994 142.119 25.1439 141.26 26.4278C140.41 27.7246 139.97 29.247 139.998 30.7969H136.024C136.024 27.9957 136.666 25.4941 137.949 23.292C139.201 21.1075 141.011 19.2945 143.195 18.0381C145.478 16.7333 148.07 16.0652 150.7 16.1034C153.607 16.1034 156.203 16.759 158.488 18.0702C160.774 19.3814 162.583 21.3054 163.917 23.8421C165.242 26.3774 165.904 29.4903 165.904 33.1809V49.5935C165.933 50.4944 165.603 51.37 164.987 52.0279C164.695 52.3417 164.341 52.5901 163.947 52.7569C163.552 52.9236 163.127 53.0049 162.699 52.9953V53.0022Z" fill="#7116FA"/>
<path d="M191.005 53.1947C188.069 53.2354 185.189 52.3867 182.745 50.7603C180.274 49.1031 178.284 46.8254 176.974 44.1562C175.562 41.3765 174.857 38.2299 174.86 34.7166C174.863 31.2033 175.628 28.0454 177.155 25.2427C178.614 22.5165 180.768 20.2234 183.399 18.5951C186.063 16.9626 189.135 16.1185 192.26 16.1607C195.539 16.1607 198.482 16.9722 201.09 18.5951C203.706 20.2309 205.848 22.5229 207.301 25.2427C208.831 28.0438 209.596 31.2018 209.596 34.7166H207.136C207.136 38.2315 206.432 41.378 205.023 44.1562C203.712 46.8247 201.722 49.1021 199.252 50.7603C196.811 52.3833 193.937 53.2318 191.005 53.1947ZM192.267 47.1912C194.299 47.2237 196.295 46.655 198.004 45.5568C199.704 44.4474 201.076 42.9042 201.978 41.0869C202.965 39.11 203.462 36.9254 203.428 34.7166C203.467 32.4854 202.97 30.2774 201.978 28.2776C201.075 26.4612 199.703 24.9183 198.004 23.8077C196.286 22.7395 194.303 22.1733 192.28 22.1733C190.257 22.1733 188.274 22.7395 186.556 23.8077C184.839 24.9152 183.446 26.4575 182.52 28.2776C181.508 30.2713 180.999 32.4817 181.037 34.7166C181.004 36.929 181.513 39.116 182.52 41.0869C183.445 42.9079 184.838 44.4505 186.556 45.5568C188.259 46.6474 190.245 47.2156 192.267 47.1912ZM206.395 52.9953C205.966 53.006 205.539 52.9253 205.143 52.7585C204.748 52.5917 204.392 52.3426 204.1 52.0279C203.484 51.37 203.154 50.4944 203.183 49.5935V39.386L204.38 32.3143L209.617 34.7166V49.5935C209.646 50.4944 209.316 51.37 208.699 52.0279C208.406 52.3437 208.049 52.5934 207.652 52.7602C207.254 52.927 206.826 53.0072 206.395 52.9953Z" fill="#7116FA"/>
<path d="M222.359 52.9288C221.349 52.9288 220.571 52.6507 220.025 52.0944C219.479 51.5382 219.205 50.7046 219.204 49.5936V19.7711C219.204 18.7014 219.477 17.8784 220.025 17.3023C220.571 16.7269 221.349 16.4358 222.359 16.4358C223.408 16.4358 224.196 16.714 224.722 17.2702C225.248 17.8265 225.511 18.6601 225.511 19.7711V49.5936C225.511 50.6595 225.248 51.4847 224.722 52.0624C224.197 52.64 223.4 52.9288 222.359 52.9288ZM222.294 30.1115C222.255 27.6496 222.872 25.2214 224.082 23.0761C225.291 20.9307 227.05 19.1453 229.178 17.9029C231.277 16.6593 233.677 16.0139 236.117 16.037C238.64 16.037 240.521 16.4702 241.762 17.3367C243.003 18.2032 243.475 19.237 243.18 20.4381C243.095 20.9806 242.841 21.4827 242.455 21.8731C242.114 22.1982 241.687 22.4186 241.225 22.5081C240.721 22.5959 240.204 22.5724 239.711 22.4393C237.018 21.8647 234.6 21.8204 232.457 22.3063C230.314 22.7923 228.622 23.7046 227.382 25.0433C226.139 26.3774 225.519 28.0668 225.521 30.1115H222.294Z" fill="#7116FA"/>
<path d="M264.35 53.2612C261.444 53.2612 258.848 52.6056 256.562 51.2945C254.277 49.9833 252.469 48.0593 251.138 45.5225C249.813 42.9903 249.151 39.8774 249.151 36.1838V19.7711C249.122 18.8703 249.452 17.9951 250.068 17.3367C250.368 17.0296 250.726 16.7856 251.121 16.6189C251.516 16.4523 251.941 16.3665 252.37 16.3665C252.799 16.3665 253.224 16.4523 253.619 16.6189C254.014 16.7856 254.372 17.0296 254.671 17.3367C255.287 17.9951 255.618 18.8703 255.589 19.7711V36.1838C255.589 38.6763 256.031 40.7332 256.913 42.3546C257.713 43.8958 258.969 45.1539 260.509 45.958C262.093 46.7518 263.845 47.152 265.617 47.1248C267.294 47.1511 268.95 46.7571 270.435 45.9787C271.803 45.2585 272.963 44.2022 273.808 42.9093C274.65 41.6214 275.089 40.1126 275.07 38.5746H279.045C279.081 41.1917 278.416 43.7708 277.12 46.0452C275.873 48.2349 274.067 50.0544 271.886 51.3174C269.683 52.6163 267.171 53.2643 264.35 53.2612ZM278.29 52.9289C277.861 52.9387 277.434 52.8576 277.039 52.6909C276.643 52.5241 276.288 52.2756 275.995 51.9615C275.379 51.3032 275.049 50.4279 275.077 49.5271V19.7711C275.077 18.7488 275.383 17.9258 275.995 17.3023C276.618 16.7038 277.449 16.3694 278.314 16.3694C279.178 16.3694 280.009 16.7038 280.633 17.3023C281.22 17.9258 281.515 18.7488 281.516 19.7711V49.5271C281.546 50.4219 281.23 51.2938 280.633 51.9615C280.336 52.2825 279.974 52.5353 279.57 52.7023C279.166 52.8694 278.731 52.9467 278.294 52.9289H278.29Z" fill="#7116FA"/>
<path d="M305.423 53.1948C302.635 53.223 299.866 52.7373 297.254 51.7621C294.753 50.807 292.809 49.5952 291.422 48.1266C291.119 47.8032 290.891 47.4173 290.755 46.9962C290.619 46.575 290.577 46.1291 290.632 45.6899C290.676 45.2539 290.808 44.8312 291.019 44.4472C291.23 44.0631 291.517 43.7257 291.862 43.4549C292.702 42.7443 293.533 42.444 294.354 42.5541C295.179 42.6693 295.932 43.0858 296.467 43.7231C297.182 44.5667 298.329 45.356 299.909 46.0911C301.566 46.8425 303.368 47.2182 305.187 47.1913C307.624 47.1913 309.484 46.7688 310.767 45.9237C312.051 45.0786 312.713 43.989 312.755 42.6549C312.796 41.3208 312.197 40.1647 310.958 39.1867C309.719 38.2087 307.459 37.4079 304.177 36.7844C299.929 35.895 296.849 34.5609 294.937 32.7821C294.017 31.9615 293.284 30.9527 292.789 29.8243C292.294 28.6959 292.047 27.4742 292.066 26.2422C292.066 23.9744 292.697 22.0955 293.959 20.6055C295.259 19.0889 296.934 17.9389 298.817 17.2703C300.794 16.5365 302.887 16.1639 304.996 16.17C307.773 16.17 310.233 16.6369 312.376 17.5706C314.519 18.5043 316.222 19.7941 317.486 21.4399C318.037 22.0515 318.331 22.8523 318.305 23.6749C318.282 24.0616 318.175 24.4386 317.99 24.779C317.804 25.1193 317.546 25.4147 317.234 25.644C316.89 25.8865 316.498 26.0528 316.084 26.1319C315.671 26.2109 315.245 26.2009 314.836 26.1024C313.954 25.9477 313.14 25.5288 312.502 24.9013C311.561 23.9047 310.393 23.1498 309.097 22.7007C307.729 22.2784 306.302 22.0757 304.87 22.1001C303.021 22.1001 301.454 22.4333 300.171 23.0995C298.887 23.7658 298.246 24.7446 298.248 26.0359C298.238 26.8008 298.446 27.5528 298.847 28.2044C299.246 28.8509 300.035 29.4293 301.213 29.9397C302.391 30.4501 304.115 30.9506 306.385 31.4411C309.537 32.1074 312.029 32.9479 313.858 33.9626C315.688 34.9773 317.002 36.167 317.8 37.5317C318.618 38.9627 319.032 40.5882 318.998 42.2354C319.024 44.191 318.488 46.113 317.454 47.7736C316.423 49.4194 314.909 50.7314 312.913 51.7094C310.917 52.6874 308.42 53.1826 305.423 53.1948Z" fill="#7116FA"/>
<path d="M41.7732 16.2616H44.389V17.8296H28.6939V6.32693H31.8329L36.5438 2.14581H37.0669L41.7732 6.32693H44.389V7.89713H41.7732V11.48L58.4595 7.68854C54.4409 4.54301 49.8011 2.28324 44.8454 1.05796C39.8897 -0.167328 34.7304 -0.330361 29.7071 0.57958C24.6838 1.48952 19.9103 3.45181 15.7007 6.33732C11.4912 9.22284 7.94093 12.9661 5.28374 17.3209C2.62654 21.6757 0.922609 26.5433 0.284008 31.6033C-0.354593 36.6633 0.0866056 41.8011 1.57864 46.6784C3.07068 51.5558 5.57971 56.0623 8.9406 59.9013C12.3015 63.7403 16.4381 66.8248 21.0781 68.9519C21.4682 68.035 22.9436 64.5301 23.476 62.4005C23.9487 60.5094 24.7105 55.0079 24.7105 55.0079H47.785C47.785 55.0079 48.595 61.5455 48.7671 62.4005C49.3041 65.0825 50.7749 68.2298 51.1467 69C55.8076 66.8788 59.9644 63.7929 63.342 59.9466C66.7196 56.1003 69.241 51.5812 70.7393 46.6884C72.2376 41.7956 72.6787 36.6408 72.0333 31.565C71.3879 26.4892 69.6707 21.6082 66.9955 17.245L41.7778 11.5143L41.7732 16.2616ZM46.25 42.3431H26.7114L27.8747 28.6331H45.0843L46.25 42.3431Z" fill="#792DE9"/>
<path d="M116.722 17.2474V17.1924L116.603 17.2199L116.722 17.2474Z" fill="#7116FA"/>
</svg>
