<svg width="64" height="65" viewBox="0 0 64 65" fill="none" xmlns="http://www.w3.org/2000/svg">
<g clip-path="url(#clip0_1010_185)">
<path d="M59.8475 23.8115L30.4237 14.3539L1 23.8115L30.4237 33.2691L59.8475 23.8115Z" stroke="#F1F1F2" stroke-linecap="round" stroke-linejoin="round"/>
<path d="M49.2864 27.2625H49.2969V46.3356L49.0902 46.4346C43.2681 49.2236 36.8919 50.6632 30.4363 50.646C23.9807 50.6289 17.6121 49.1555 11.8049 46.3356V46.3356V27.2842" stroke="#F1F1F2" stroke-linecap="round" stroke-linejoin="round"/>
<path d="M59.8474 23.8112V37.235" stroke="#F1F1F2" stroke-linecap="round" stroke-linejoin="round"/>
<path d="M59.8475 43.54C61.5886 43.54 63 42.1286 63 40.3875C63 38.6464 61.5886 37.2349 59.8475 37.2349C58.1064 37.2349 56.6949 38.6464 56.6949 40.3875C56.6949 42.1286 58.1064 43.54 59.8475 43.54Z" stroke="#F1F1F2" stroke-linecap="round" stroke-linejoin="round"/>
<path d="M0 0.5L60 60.5" stroke="#F1F1F2" stroke-width="2"/>
</g>
<defs>
<clipPath id="clip0_1010_185">
<rect width="64" height="64" fill="white" transform="translate(0 0.5)"/>
</clipPath>
</defs>
</svg>
